<mxfile host="app.diagrams.net" modified="2024-02-18T16:47:03.660Z" agent="Mozilla/5.0 (Windows NT 10.0; Win64; x64) AppleWebKit/537.36 (KHTML, like Gecko) Chrome/121.0.0.0 Safari/537.36 Edg/121.0.0.0" etag="ni0jfssDX8c1WdSgUIQy" version="22.1.16" type="github">
  <diagram name="PÃ¡gina-1" id="LX5NMlbCeNEq-ElKMwvn">
    <mxGraphModel dx="1736" dy="1113" grid="0" gridSize="10" guides="1" tooltips="1" connect="1" arrows="1" fold="1" page="0" pageScale="1" pageWidth="827" pageHeight="1169" math="0" shadow="0">
      <root>
        <mxCell id="0" />
        <mxCell id="1" parent="0" />
        <mxCell id="f95klg6fwESr5AWln45m-10" value="&lt;font style=&quot;font-size: 15px;&quot;&gt;GitHub&lt;/font&gt;" style="verticalLabelPosition=bottom;html=1;verticalAlign=top;align=center;strokeColor=none;fillColor=#00BEF2;shape=mxgraph.azure.github_code;pointerEvents=1;" vertex="1" parent="1">
          <mxGeometry x="971" y="-177" width="80" height="80" as="geometry" />
        </mxCell>
        <mxCell id="f95klg6fwESr5AWln45m-11" value="&lt;font style=&quot;font-size: 20px;&quot;&gt;AWS&lt;/font&gt;" style="swimlane;whiteSpace=wrap;html=1;rounded=1;" vertex="1" parent="1">
          <mxGeometry x="-30" y="-14" width="441" height="372" as="geometry" />
        </mxCell>
        <mxCell id="f95klg6fwESr5AWln45m-4" value="&lt;font style=&quot;font-size: 18px;&quot;&gt;S3 Source Files&lt;/font&gt;" style="sketch=0;outlineConnect=0;fontColor=#232F3E;gradientColor=none;fillColor=#7AA116;strokeColor=none;dashed=0;verticalLabelPosition=bottom;verticalAlign=top;align=center;html=1;fontSize=12;fontStyle=0;aspect=fixed;pointerEvents=1;shape=mxgraph.aws4.bucket_with_objects;" vertex="1" parent="f95klg6fwESr5AWln45m-11">
          <mxGeometry x="83" y="172" width="75" height="78" as="geometry" />
        </mxCell>
        <mxCell id="f95klg6fwESr5AWln45m-15" style="edgeStyle=orthogonalEdgeStyle;shape=connector;curved=1;rounded=0;orthogonalLoop=1;jettySize=auto;html=1;labelBackgroundColor=default;strokeColor=default;strokeWidth=2;align=center;verticalAlign=middle;fontFamily=Helvetica;fontSize=12;fontColor=default;endArrow=classic;startSize=23;" edge="1" parent="f95klg6fwESr5AWln45m-11" source="f95klg6fwESr5AWln45m-6" target="f95klg6fwESr5AWln45m-4">
          <mxGeometry relative="1" as="geometry" />
        </mxCell>
        <mxCell id="f95klg6fwESr5AWln45m-6" value="&lt;font style=&quot;font-size: 15px;&quot;&gt;IAM Bucket Policies&lt;/font&gt;" style="outlineConnect=0;dashed=0;verticalLabelPosition=bottom;verticalAlign=top;align=center;html=1;shape=mxgraph.aws3.iam;fillColor=#759C3E;gradientColor=none;" vertex="1" parent="f95klg6fwESr5AWln45m-11">
          <mxGeometry x="273" y="58.00000000000003" width="42" height="81" as="geometry" />
        </mxCell>
        <mxCell id="f95klg6fwESr5AWln45m-12" value="&lt;font style=&quot;font-size: 20px;&quot;&gt;Informatica&lt;/font&gt;" style="swimlane;whiteSpace=wrap;html=1;rounded=1;strokeColor=default;align=center;verticalAlign=middle;fontFamily=Helvetica;fontSize=12;fontColor=default;startSize=23;fillColor=default;" vertex="1" parent="1">
          <mxGeometry x="432" y="-14" width="571" height="527" as="geometry" />
        </mxCell>
        <mxCell id="f95klg6fwESr5AWln45m-20" style="edgeStyle=orthogonalEdgeStyle;shape=connector;curved=1;rounded=0;orthogonalLoop=1;jettySize=auto;html=1;entryX=0.5;entryY=0;entryDx=0;entryDy=0;labelBackgroundColor=default;strokeColor=default;strokeWidth=2;align=center;verticalAlign=middle;fontFamily=Helvetica;fontSize=12;fontColor=default;endArrow=classic;startSize=23;" edge="1" parent="f95klg6fwESr5AWln45m-12" source="f95klg6fwESr5AWln45m-8" target="f95klg6fwESr5AWln45m-19">
          <mxGeometry relative="1" as="geometry" />
        </mxCell>
        <mxCell id="f95klg6fwESr5AWln45m-8" value="IICS CDI" style="shape=image;verticalLabelPosition=bottom;labelBackgroundColor=default;verticalAlign=top;aspect=fixed;imageAspect=0;image=data:image/png,iVBORw0KGgoAAAANSUhEUgAAB9AAAAKxCAYAAAALqDchAAAgAElEQVR4nOzdebhkZ10v+m+FJCQhJCCEIUzhJBABmfTCDwVkcEIlwOE4cFBQz/UoOF+OCqJ99dJ6gnicFcXD4xEU1ITRzdBpTAgzS2aIIUGCyCgIYRAiJCH7/rGqSNN0d/ZQVe9aVZ/P89RDd7P7Xd/s3XtX1fqu9XsTAAAAAAAAAAAAAAAAAAAAAAAAAAAAAAAAAAAAAAAAAAAAAAAAAAAAAAAAAAAAAAAAAAAAAAAAAAAAAAAAAAAAAAAAAAAAAAAAAAAAAAAAAAAAAAAAAAAAAAAAAAAAAAAAAAAAAAAAAAAAAAAAAAAAAAAAAAAAAAAAAAAAAAAAAAAAAAAAAAAAAAAAAAAAAAAAAAAAAAAAAAAAAAAAAAAAAAAAAAAAAAAAAAAAAAAAAAAAAAAAAAAAAAAAAAAAAAAAAAAAAAAAAAAAAAAAAAAAAAAAAAAAAAAAAAAAAAAAAAAAAAAAAAAAAAAAAAAAAAAAAAAAAAAAAAAAAAAAAAAAAAAAAAAAAAAAAAAAAAAAAAAAAAAAAAAAAAAAAAAAAAAAAAAAAAAAAAAAAAAAAAAAAAAAAAAAAAAAAAAAAAAAAAAAAAAAAAAAAAAAAAAAAAAAAAAAAAAAAAAAAAAAAAAAAAAAAAAAAAAAAAAAAAAAAAAAAAAAAAAAAAAAAAAAAAAAAAAAAAAAAAAAAAAAAAAAAAAAAAAAAAAAAAAAAAAAAAAAAAAAAAAAAAAAAAAAAAAAAAAAAAAAAAAAAAAAAAAAAAAAAAAAAAAAAAAAAAAAAAAAAAAAAAAAAAAAAAAAAAAAAAAAAAAAAAAAAAAAAAAAAAAAAAAAAAAAAAAAAAAAAAAAAAAAAAAAAAAAAAAAAAAAAAAAAAAAAAAAAAAAAAAAAAAAAAAAAAAAAAAAAAAAAAAAAAAAAAAAAAAAAAAAAAAAAAAAAAAAAAAAAAAAAAAAAAAAAAAAAAAAAAAAAAAAAAAAAAAAAAAAAAAAAAAAAAAAAAAAAAAAAAAAAAAAAAAAAAAAAAAAAAAAAAAAAAAAAAAAAAAAAAAAAAAAAAAAAAAAAAAAAAAAAAAAAAAAAAAAAAAAAAAAAAAAAAAAAAAAAAAAAAAAAAAAAAAAAAAAAAAAAAAAAAAAAAAAAAAAAAAAAAAAAAAAAAAAAAAAAAAAAAAAAAAAAAAAAAAAAAAAAAAAAAAAAAAAAAAAAAAAAAAAAAAAAAAAAAAAAAAAAAAAAAAAAAAAAAAAAAAAAAAAAAAAAAAAAAAAAAAAAAAAAAAAAAAAAAAAAAAAAAAAAAAAAAAAAAAAAAAAAAAAAAAAAAAAAAAAAAAAAAAAAAAAAAAAAAAAAAAAAAAAAAAAAAAAAAAAAAAAAAAAAAAAAAAAAAAAAAAAAAAAAAAAAAAAAAAAAAAAAAAAAAAAAAAAAAAAAAAAAAAAAAAAAAAAYMw29+TE1hkAAAAAAADYvqNaBwBYQcdu7sne1iEAAAAAAADYHgU6wJxN9ubyJPfa3JOnts4CAAAAAADA1inQARbj3CRPVKIDAAAAAACMhwIdYDFemOTqKNEBAAAAAABGQ4EOsADTMe7nT3+rRAcAAAAAABgBBTrA4px7wK+V6AAAAAAAAAOnQAdYnNkY9xklOgAAAAAAwIAp0AEW5KAx7jNKdAAAAAAAgIFSoAMs1rmH+DMlOgAAAAAAwAAp0AEW6+Ax7jNKdAAAAAAAgIFRoAMs0GHGuM8o0QEAAAAAAAZEgQ5wHTbPys13ucShxrjPKNEBAAAAAAAGQoEOcASbZ+XWSZ68y2VenOSaI/z/SnQAAAAAAIABUKADHMa0PL8wyft2s85kbz4xXedIlOgAAAAAAACNKdABDuGA8vz0JOfNYckjjXGfUaIDAAAAAAA0pEAHOMhB5fkHJhu5ZA7LviBHHuM+88TNPdkzh+MBAAAAAACwTQp0gAMcVJ4n87n7PJO9+Xiue4z7zFM29+RJ8zguAAAAAAAAW6dAB5g6RHmeJPvmeIitjHGfOVuJDgAAAAAAsFwKdIActjz/UpIL5niYrY5xn1GiAwAAAAAALJECHVh7hynPk+SNk418el7H2eYY9xklOgAAAAAAwJIo0IG1doTyPEn2L+CQ2xnjPqNEBwAAAAAAWAIFOrC2rqM8T+a7//nMdse4zyjRAQAAAAAAFkyBDqylLZTnlyd587yPu8Mx7jNKdAAAAAAAgAVSoANrZwvleZL8/WRjR3eKb8VOxrjPKNEBAAAAAAAWRIEOrJUtludJct4CY+x0jPuMEh0AAAAAAGABFOjA2thGeZ4ssEDf5Rj3GSU6AAAAAADAnCnQgbWwzfL8oslGPrzYRLsa4z6jRAcAAAAAAJgjBTqw8rZZnifJ/sWl+bLdjnGfUaIDAAAAAADMiQIdWGmbZ+XUbK88T5J9i0lzrTmNcZ9RogMAAAAAAMyBAh1YWZtn5ZT0e5lvpzz/jySvWUyir/KiOa6lRAcAAAAAANglBTqwkqbl+QVJvm6bf/VVk418YQGRDuX5STbnuJ4SHQAAAAAAYBcU6MDK2UV5nixn//MkyWRvPpLkdXNeVokOAAAAAACwQwp0YKXssjxP+pHvy3TOAtY8e3NPfmIB6wIAAAAAAKw0BTqwMuZQnn9wspGL5xhpK+Y9xn3mjzf35PELWBcAAAAAAGBlKdCBlTCH8jxZ4vj2mQWNcZ95uhIdAAAAAABg6xTowOjNqTxPkn1ziLMTixjjPqNEBwAAAAAA2CIFOjBqcyzPr0ly/u4T7ciixrjPKNEBAAAAAAC2QIEOjNYcy/Mk6SYb+dQc1tm2BY9xn1GiAwAAAAAAXAcFOjBKcy7Pk+S8Oa2zU4sc4z6jRAcAAAAAADgCBTowOgsoz5P2Bfqix7jPKNEBAAAAAAAOQ4EOjMqCyvNPJXnTHNfbtiWNcZ9RogMAAAAAAByCAh0YjQWV50ly/mQjX5rzmjuxjDHuM0p0AAAAAACAgyjQgVFYYHmeJPsWsOZOLGuM+4wSHQAAAAAA4AAKdGDwFlyeJ8n+Ba27LUse4z6jRAcAAAAAAJhSoAODtoTy/OLJRj64oLV3Yplj3GeU6AAAAAAAAFGgAwO2eVZuksWW50ly3gLX3ollj3GfUaIDAAAAAABrT4EODNLmWTk5ycuy2PI8GViBPh3j/g+NDq9EBwAAAAAA1poCHRicaXm+P8m9F3yoLyR59YKPsRPnNjy2Eh0AAAAAAFhbCnRgUJZYnifJqycb+Y8lHGe7WhboSV+i/3jjDAAAAAAAAEunQAcGY8nleTKw8e0zk735QJKucYynb+7JDzTOAAAAAAAAsFQKdGAQGpTnyUAL9KnWd6EfleTZSnQAAAAAAGCdKNCB5hqV5x+ebOQfl3i87WpdoCdKdAAAAAAAYM0o0IGmGpXnmR5zsAYyxj1RogMAAAAAAGtEgQ4007A8T5J9DY65XUO4Cz1RogMAAAAAAGtCgQ400bg8vybJ3zc47nYNpUBPlOgAAAAAAMAaUKADS9e4PE+SN002cnmjY2/ZgMa4zyjRAQAAAACAlaZAB5ZqAOV5kpzX8NjbNaS70BMlOgAAAAAAsMIU6MDSDKQ8TxTou6VEBwAAAAAAVpICHViKAZXnn86wxqIf0QDHuM8o0QEAAAAAgJWjQAcWbkDleZJcMNnIl1qH2KYh3oWeKNEBAAAAAIAVo0AHFmpg5XmS7GsdYAeGWqAnSnQAAAAAAGCFKNCBhRlgeZ6Ma//zJIMe4z6jRAcAAAAAAFaCAh1YiM2zcmKGV55fMtnIB1qH2KEh34WeKNEBAAAAAIAVoEAH5m7zrJyQ5O8yrPI8GeHd5wd4UesAW6BEBwAAAAAARk2BDszVtDx/SZIHtc5yCKMt0Cd7c1mSt7bOsQVKdAAAAAAAYLQU6MDcDLw8/2KSV7UOsUtDH+M+MyvRv691EAAAAAAAgO1QoANzMfDyPEleM9nIFa1D7NJYCvSkf375q809eVjrIAAAAAAAAFulQAd2bQTleZLsax1gt0Y0xn3mmCTPU6IDAAAAAABjoUAHdmUk5XmS7G8dYE7GdBd6okQHAAAAAABGRIEO7NiIyvOPTjbyrtYh5mRsBXqiRAcAAAAAAEZCgQ7syIjK8yQ5r3WAeRnhGPcZJToAAAAAADB4CnRg20ZWnicrVKBPjfEu9ESJDgAAAAAADJwCHdiWEZbnm0le0TrEnI21QE+U6AAAAAAAwIAp0IEtG2F5niRvnmzkk61DzNOIx7jPKNEBAAAAAIBBUqADWzLS8jxJ9rUOsCBjvgs9UaIDAAAAAAADpEAHrtOIy/Mk2d86wIKMvUBPlOgAAAAAAMDAKNCBIxp5ef6ZJG9sHWIRVmCM+4wSHQAAAAAAGAwFOnBYIy/Pk+SCyUaubh1igVbhLvREiQ4AAAAAAAyEAh04pBUoz5PV3f98ZlUK9ESJDgAAAAAADIACHfgqm2fl2Iy/PE9Wd//zJF8e4/621jnmSIkOAAAAAAA0pUAHvsK0PH9exl+ev2eykfe3DrEEL2wdYM6U6AAAAAAAQDMKdODLDijPz2qdZQ7Oax1gSVZpjPuMEh0AAAAAAGhCgQ4kWbnyPFmTAn2yN5ckuah1jgWYlejf1joIAAAAAACwPhTowCqW51cmeWXrEEt0TusAC3JMkhdv7smDWwcBAAAAAADWgwId1twKludJ8trJRq5oHWKJVnGM+8zxSV6iRAcAAAAAAJZBgQ5rbEXL8yTZ1zrAMq3wGPcZJToAAAAAALAUCnRYUytcnidrsv/5QVZ1jPuMEh0AAAAAAFg4BTqsoRUvz/81ybtah2hglce4zyjRAQAAAACAhVKgw5pZ8fI8SfZPNrLZOsSyrcEY9xklOgAAAAAAsDAKdFgja1CeJ+s5vn1m1ce4zyjRAQAAAACAhVCgw5pYk/J8M8n+1iEaWocx7jNKdAAAAAAAYO4U6LAG1qQ8T5K3TjbyidYhWlmjMe4zSnQAAAAAAGCuFOiw4taoPE+Sfa0DDMC6jHGfUaIDAAAAAABzo0CHFbZm5Xmy3uPbZ9ZpjPuMEh0AAAAAAJgLBTqsqDUsz/89yetbh2htDce4zyjRAQAAAACAXVOgwwpaw/I8Sc6fbOTq1iEGYt3GuM8o0QEAAAAAgF1RoMOK2Twr10s/xnudyvMkOa91gAF5XusADSnRAQAAAACAHVOgwwqZlufPTvKw1lkasP/51GRv3p3k0tY5GlKiAwAAAAAAO6JAhxVxQHn+6NZZGnjvZCPvax1iYM5tHaAxJToAAAAAALBtCnRYAWtenifJvtYBBmhd90E/0PFJNjb3pFoHAQAAAAAAxkGBDiOnPE9ifPtXmezNu7LeY9xnTkiyX4kOAAAAAABsxdGtAwA7pzxPklyV5ILWIQbq3CS/0jrEAJyUvkT/9snedK3DAMBYVdWxSW6b5LQkpyY5Lv3FajdMcr3ph12V5PNJPjd9fDLJR5P8a9d1n1hyZAAAAIBtm7QOAOyM8vzLXjnZsM/1oWzuyV2TvLN1jgH5bKJEB4CtqKoTkvxfSb4xSU1/fevs7j3kZ5O8L8lFSd6e5M1Juq7rvrC7tAAAAADzo0CHEVKef4UnTTbym61DDNXmnlyS5MzWOQZEiQ58hao6tuu6K1vngCGoqpOTfE+SRyZ5cPo7zBfti0m6JC9NstF13buXcEwAAACAw1Kgw8goz7/KPScbeXvrEEO1uSd7Y4z7wZToQKrq1kn+V5KXd133rNZ5oKWquleSn0ry/Umu3zjORUmek+TPuq67vHEWAAAAYA0d1ToAsHXK86/y8STvaB1i4M5pHWCAZnuiV+sgwPJV1XFV9StJLk1fFrqglLVVVfeuqlck+Yckj0378jxJvi7J2Um+uXUQAAAAYD0p0GEklOeHdN5kI5utQwzZZG/elb4k4isp0WENVdUjklycZG+SExrHgWaq6pZV9dfpR6d/a+s8AAAAAEOiQIcRUJ4f1v7WAUbi3NYBBkqJDmuiqu5UVfuTvDDJ7VvngZaq6jFJ3p3kUa2zAAAAAAzR0a0DAEemPD+szSjQt+qc2Af9cGYluj3RYQVV1clJfi393s5e97LWqur4JM9I8pjWWQAAAACGzB3oMGDK8yN6+2QjH28dYgyMcb9O7kSHFVNVR1XV/53kPUl+Lspz1lxV3TzJa6M8BwAAALhOCnQYKOX5ddrXOsDIGON+ZEp0WBFVdZ/0+zo/M8nNGseB5qrq1klel+TrW2cBAAAAGAN348AAKc+35LzWAUbGGPfrZpw7jFhV3TLJU5M8tnUWGIqqulWSC5Oc3jgKAAA0VVXHJLnBnJe9uuu6z815TQAGwB3oMDDK8y35XJLXtw4xJsa4b5k70WFkqurYqvrF9D/jlOcwVVUnJXlZlOcAABygqo5tnaGR707yqTk/XrLU/wIAlkaBDgOyeVYmSf5PlOfX5YLJRq5qHWKEnt86wEgo0WEkquo7k1yU5DeT3LBxHBiMqpok+cskd2udBQCAYaiq61XV49JfZAkAHIECHQZiWp4/PcljWmcZAePbd+YFrQOMiBIdBqyq7lBVL0l/4ucOrfPAAP1ikoe1DgEAwDBU1f2TvCXJnyS5aeM4ADB4CnQYgAPK88e1zjISCvQdmOzNW5K8r3WOEVGiw8BU1fWr6qnp7zr/7tZ5YIiq6h5JntI6BwAA7VXVrarqr5O8OsndW+cBgLFQoENjyvNte99kI5e1DjFi57YOMDInJXnp5p7ctXUQIElyyyRPTLKue/bBEVXVUUmeGd8jAABrbXrx8ZOTvCfJo1rnAYCxUaBDQ8rzHdnXOsDIKdC37yZJLlCiAzACj0vyDa1DAADQTlU9PMnFSX4jyQmN4wDAKCnQoRHl+Y4Z374Lxrjv2E2jRAdgwKrqxCS/2joHAABtVNXXVtW+JC9K8p9a5wGAMVOgQwPK8x27KskrW4dYAe5C3xklOgBD9tNJbtY6BAAAy1VVJ1XV/0ryriTf0ToPAKyCo1sHgHWjPN+V10828u+tQ6yAc9PvIcz2zUr0B0/25l2twwBAklTV8UmesMRDXpzkLUnemuQDST6c5PL0FzteleSY6eNrkpyS5LZJzkhy5yT3SHLzJWYFAFhJVTVJ8sNJnhoXUgLAXCnQYYmU57tmfPscTPbmLZt78r4Y57VTSnQAhuYx6Z+fFukDSf44ybld1/3zbhaqqtOT3Hf6uH+SO+0+HgDA+qiqSvIHSe7dOgsArCIFOiyJ8nwuFOjz4y703VGiAzAkP7HAtT+T5ElJntl13dXzWLDrusuSXJbk2UlSVbdN8p3Tx7ckOXEexwEAWDVVdfP0d5z/UJJJ4zgAsLIU6LAEyvO5+Lckb2sdYoUo0HdPiQ5Ac1X19UnuvqDl35rkrK7rPrKg9ZMkXdd9IMkzkjyjqo5Nf1f6BxZ5TACAMamqY5L8TJJfTXLDxnEAYOUp0GHBlOdzc95kI5utQ6wKY9znRokOQGv/dUHrvibJQ7quu2JB6x9S13VXJjl/mccEABiyqjotyb4kZzaOAgBr46jWAWCVKc/n6hWtA6ygc1sHWBGzEv2urYMAsJa+dwFrvjfJI5ZdngMAcEinRXkOAEulQIcFUZ7Pnf3P50+BPj9KdACWrqrumuR2c152M8mPdF13+ZzXBQAAABgFBTosgPJ87t4+2cjHWodYNZO9eUuS97XOsUKU6AAs23csYM2/7LrutQtYFwAAAGAUFOgwZ8rzhXD3+eK4C32+lOgALNOD5rzeZpL/Oec1AQAAAEZFgQ5zpDxfGAX64ijQ50+JDsDCVdVRSb55zsvu77ru0jmvCQAAADAqCnSYrz+I8nzePp/kda1DrKrpGPd/aZ1jBSnRAVi0M5OcOOc1nzvn9QAAAABGR4EOc7J5Vp6a5Kda51hBF0w2cmXrECvu+a0DrCglOgCLdK85r7eZ5CVzXhMAAABgdBToMAfT8vyJrXOsqP2tA6wBY9wXZ1ai37l1EABWzl3mvN47u667fM5rAgAAAIyOAh12SXm+cPY/X7wuyQdbh1hhN02yf3NPzmgdBICVcqc5r/eaOa8HAAAAMEoKdNgF5fnC/fNkI//UOsSqm+zNZtyFvmi3SnKhEh2AOTp9zuu9c87rAQDAkLw0yY3n/HjoUv8LAFiao1sHgLFSni+Fu8+X59wkT2gdYsXNSvQHTvbmva3DADB6p855vYvnvB4AAAxG13VXJfl06xwAjIM70GEHlOdLo0BfHmPcl8Od6ADsWlUdn+RGc172sjmvBwAAADBKCnTYJuX50lyd5ILWIdaFMe5LpUQHYLduM+f1rk7ysTmvCQAAADBKCnTYBuX5Ur1hspHPtg6xZhToy6NEB2A3bjnn9T7Wdd3mnNcEAAAAGCUFOmyR8nzpjG9fPmPcl0uJDsBO3XjO631izusBAAAAjJYCHbZAed7EvtYB1o0x7k0o0QHYiaPnvN5n5rweAAAAwGgp0OE6KM+b+ESSt7UOsaYU6MunRAdgu06c83q2zQEAAACYUqDDESjPm9k/2cg1rUOsKWPc21CiA7Adx855vS/NeT0AAACA0VKgw2Eoz5va3zrAujLGvSklOgBbdcKc17tyzusBAAAAjJYCHQ5Bed6cAr0tBXo7SnQAWriidQAAAACAoVCgw0GU5829c7KRj7YOseaMcW9LiQ4AAAAAAI0o0OEAyvNBOK91gHVnjPsgKNEBAAAAAKABBTpMbZ6Vp0R5PgT7WgcgSfKC1gFQogMAAAAAwLIp0CHJ5ll5UpI9rXOQK5K8rnUIkiRvSIzSHwAlOgAAAAAALJECnbU3Lc/Pbp2DJMkrJxv5YusQJJO9uSbJ81vnIMm1JfptWwcBAAAAAIBVp0BnrSnPB2d/6wB8hXNaB+DLbpXkgs09uXXrIAAAAAAAsMoU6Kwt5fkg2f98WF4XY9yH5PT0d6Ir0QEAAAAAYEEU6Kwl5fkg/ctkI+9pHYJrGeM+SEp0AAAAAABYoKNbB4BlU54P1nmtA3BI5yT5qdYh+AqzEv2Bk735UOswAFtRVZMkJ09/+5mu6zZb5oExqKpjktwgyVVd132+dR6gV1U3TJKu6/69dZYxqarrJblhks2u6z7TOg/zV1U3OuC3n++67qpmYYBRqqqjkpyU5EueZ8evqo5Pcv3pb6/uuu5zLfPAdinQWSvK80FToA/TbIz7LVsH4Sso0YHBmL4pvnuSuya5Y5Iz0j9v3DTJLdIXgAf/nST5dJJPJfl4kg9MH5cmeXeSdzhhwqqqqhPTf7/cKclp08dtk5yS5GuS3CTJMQf9ndkvL0/yyenjo0nen+R9Sd6b5J1d131kwfEZkao6Lskd0v9snv37mj2uSHL19EM3k/xS13VfaJFzSKrq1Fz7nHanJLdKcpskN0tf/h5zwMcmyTXpvy8/nuTDST6U5KIklyR5a9d1/7rE+M1U1Y2TfH2Sr03/7+309J+zW6T/t3fcQR+f9J+7T6X//H00yQfT/zy7OMk/Jnl313VXhyaq6vrpf36clv456nZJbj593DT9c9WJ6b8vjjvMGknyxSSfnT4+kf5r/bEk/5L+ueuyJJd0XXfFwv5jgEGoqtOS3CP9c8Ttk/yn9M8Vp6T/uXLCQR+f9K9RPpvkyvQ/Oz6a/jn3I+l/hlyS/vni35bx37Duquo26b92p6V/Xjg1/dfvlulfX94w/XPDyYf5+8m1X9PPpD8n8K/pv7YfSv864LIkl3pfwxBMWgeAZVGeD9qXktxkshFXoQ/Q5p78YdyFPlSXJUp01sf0Dfc/z3nZH+m67i/mvOZKm5Z/D0jy7UkemOQuSa4358Nspi/SX5/kgiR/76TItarq55L87hyXfFbXdT88x/WYmt5Fc9ck901y/yT3Sn+ycFHvxT+Z5K3pL4J8bZI3unt9PVTV0ekLzPsm+ab0/9Zum63/W7tx13WfXlC8waqqk5N8d5JvmT5uN+dDXJb++/G8JC9blc9xVZ2S5DvSvxa4T/qidd6uSPKWJBcmeUWSNyjUF6Oqbp/kG5LcM8nd0r+2u12Wt/XnNemLsHekf+33+vQXoPh6T1XVA5O8co5LvqPrunvMcT34CtP3jN+Y5JvTvzb5hvR3li/KJ5O8Kf3Pjzekfw3sbucdmk7bmT0v3CPJ1yU5M4e4OH6BPpnknem/rq9L/zrAOQGWSoHOWlCeD95rJxu5f+sQHNrmntw/yatb5+CwlOisjVUt0Kvq8bl2rNk8/HnXdZ+d43qpqhskOSvJ9yf5riTHznP9LdhM/6b5RUme23XdR5d8/B2pqlsn+Z4FLP2AJI+Y43pvSvLcOa43L8/rum50z2/TQu4703+vPCT9XRmtXJnkNUlemmSj67r3NswyKFX1A5nv12aj67rL5rjedZqenH5Ikv+cvgQ+5N0+WzS3Ar2qvj3Jneex1tSruq5727wWq6pjk/yXJI9OXwAv6znt6vRl8LOSPL/ruv9Y0nHnoqpuluRR6T9v987yzyl+KskL028z9oqu665Z8vFXwvTCrnskeXCS+6UvuG7WNNSh/XuS85PsS/J3I3rtd/0kj1/A0mck+ck5rveRJL81x/XmZa4/7w9lAc//o3y9ughVddtc+5rkAVn+e8YDXZ3+YtKNJC/tuu7ShlkGr6pukeRB6b9u35T+QqplXUS1VZtJ3p7p80KSbmhbw1XVPdN/Drdqf9d1F0//7s9N/+xzXdc98zqO85D0U3+SBu9B1okR7qw85fko7G8dgCMyxn3YjHOH8Ts7uys9Dvai9CPRdq2qzkx/EvCHM9+M2zVJf5L3fkmeVlUvT/Kn6U+GDOpN80HOyHzvFF+Ue00fQ/P2ZBzPbdNR2Q9Lf5HJQ9P2hOGBjs21d9b+TlW9Nf3FEn/Tdd2HmyZr7xfSj+qel/env7Bx4aqff/n4JN+X5PhlHHObHp3kh+a43v+TZNeFSlXdMslPJPmxtCkMj07yrdPHH1XVnyf5vdtsyqEAACAASURBVK7rPtAgy5ZV1YOS/Gz6n23znjizHTdO8t+mjw9W1TOTPL3ruk80zDQK0wu7viv989R3pP9cDt0N018s+Igkf1JVr0vyl0n+euDb/Byfcbz2OzXDzDmXn/fXYd7P/6N5vboIVfU16V///kD6O82H4uj009IemOS3q+ofkzw7yXO8Bv7yxVSV/nnhoenvMB+6Sfo74u+Z5JfSvxY4J8lfdF13UdNk13pAtvez9UfSb12TA/9eVV3Rdd0hL3CvqjOSvCDXvgd4f5b0HmQdKdBZacrz0djXOgCHN9mbazb35Pkxxn3IlOjAXE2vnP6V9HcQDG1q1VHp72r47iSXVtVTk/yVMZ+0UFV3TPLj6cvCmzSOsxVfP338ZlW9JMkzkpznTs7hm57o/L4kT8p8T/yvvKq6aZKfT/9+ZpmjR4/k5PRF0U9V1XOS/OqQivSqmiR5ZJL/N/1I76G5TZL/L8kvTS9E+PWx3KG8LFV1q/STFh6W/oT+mM8BH3gh5e9W1XPTX3zyj21jwfqqqnulvyjtUUmOaxxnK+6S5DeTnF1V+5P8QZJ9A78Ye66mE3i+PcnD00+Xu3nbRLt2myT/I8n/qKo3JvnDJOesyHmB36+q87qu++SBfzh9ffaMDPMC2pU05hdPcETK89H4ZPp9zRi2c6JAHzolOrBr07F7T0t/F8EYnJnk/yT5lar65a7r/rZ1INZDVd03fZH50NZZduh66U+ePTzJe6rqt5I8u+u6K9vG4mBVdb0kj0l/p80dG8cZlenn7nFJfj3JjRrHOZxj0k95eVRV/U6Ss1vv2VpV35b+tcAY9kc+Ln2B89+q6vfSF+mfb5ypmemWO49M8tj0k0eGdhHkPJyQ5EeT/GhVvSzJr3Vd96bGmWBtTEdH/1L6vc3H6Kj02988JMm7p88df7HKr4Gr6t7pL/b9/ozjgt+duM/08dSqelqSP2vxNe267veS/N6Bf1ZV709yu/RbVDxwi0vdNP0d6Y896M9/JP0WLCzJ0PYxgLlQno/KKyYbccfL8M3GuDNssxL91q2DAONSVcdU1Z4kl2Q85fmBTk/yN1V1YVXdpXUYVldV3b+qXpV+T8WxlucHu2OS/53kX6rqp6d3pzAAVXW/JG9Of6GQ8nwbququSd6U5I8y3PL8QMcleXKSi6d7yC9dVd2mqs5Nv8XaGMrzAx2X/qKm91TVI1uHWbaqum9VPSvJx9KPKP7WrGZ5frDvSvIPVfXCqrpD6zCwyqrq26ZbAb084y3PD3an9HfzvqeqfriqVuZm06q6WVU9qaouSdKlv9hsVcvzA90m/Z3o/1RVPzi9Y3usHnPga8LpPvW/Pf2tLmVJFOisHOX56Nj/fAQme3NNkue3zsGWKNGBbamqe6QvGZ6S8Y8Ce0CSt1bVL6/SCRDaq6q7VdVLk7w6q3PS8GC3SD/O8tIVOOE0alV1SlX9VZLXZHxFZlNVNamqn09/4cE9W+fZgdskOa+q/rSqljYSt6p+PP0enN+zrGMuyKlJnl9Vz6mqMezzvWNVdUJV/WhVvS39RV2PzXC2KFi2RyS5qKp+o6rG/loWBqWq7lFVr0h//naMz6tbcbv0FyteNL3DfrSq6j5V9ewkH0zfj5zZOFIrt03yl0leU1VD3IrmSJ6X5DPTXz+jqk6Y/voP018UupmD7nJncRTorBTl+Sid1zoAW3ZO6wBsmRId2JKq+tkk/5DV2k/32PTjel9ZVae2DsO4VdXJVfUHSd6a/k63dXBa+hNOr6+qVT1ROlhV9bAk/5jkB1pnGZuqOinJi5P8VvrngjH78fTfg7df5EGmF2v8XZI/TXLiIo+1ZI9Of0HdN7QOMm9VdavpthsfSj89xEU2vWPTT3F423RcMbALVXVSVf1++gvSvrV1niU5M8nLp1MtTmsdZquq6uiqenRVvTnJG9Jv/TP210Hzct8kbxnZBfYfTvJz01+fluTXq+rhufYixz9If5EtS6BAZ2Uoz0fpXZONfKR1CLbMGPdxUaIDh1VVJ1bVOemvXD6mdZ4FuV+St1fV/VsHYZyq6nuTvCfJT6ffM3zd3CfJm6vq9w6484EFmd5N+r/TF8CntM4zNlV1RvppKme1zjJH90x/0vd+i1i8qu6V/uKgVfqcHei09BchPLp1kHmoqjtX1Z8n+eckP59kpe+w34Uz03/dn2ySCuzM9GK+S5L8TNbzNfBsqsVPDvnnSFXdoKp+Osl7kzwnycpdNDYnR6e/wP41VTWKc6Rd1/1FkpdNf/uz6S+YS/qv9ZNbZFpXCnRWwuZZeUKU52NkfPuITMe4v6h1DrZFiQ58laq6Zfox1N/bOssSnJLk/Kp6bOsgjEdV3WR6gck5SW7WOk9jR6U/afMOF6MszvQup9cn+dHGUUZpWgS/Iau5T/yNk+yvqv88z0Wr6gfTvxZY9fcJxyZ5TlX9UusgO1VVX1dVL04/meJHsroXPs7T9ZL8RpIXTSdTAFswvev8z9NfzHfL1nkau0GSP0pyQVXdtnWYA1XVsVX1a0n+Jf3dyLdrm2g07pN+Os0DWwfZoh9LP8r9qPTnNa5J8piu665ommrNKNAZvc2z8vgkv906Bzuyr3UAts0+6OOjRAe+rKrukuSNWd396w7lmCTPqqqfu86PZO1V1bckuSjrcYHJdpyR5FVV9esjGn84ClX1oPTjUVdpK42lqaoHJ3lVkpu2zrJAxyd5XlXNZax/VT05/TYNS9tjfQD+Z1U9tXWIHbp9koe1DjFSD0vy6qq6VesgMHTTLS/ekf5CHa71wPRTzYY0reXq9Bdd3qR1kBE6Jf2FiY9pHeS6dF134Cj3JPmdruve2CrPulKgM2rT8vzprXOwI/+R5LWtQ7BtFyb5t9Yh2LbTk5y/ucc4UFhnVXXX9D/HB3UF/RL9blU9qXUIhqmqrje9k2N/kls0jjNUkyS/nORCZcR8VNV/TXJenADdkWl5/pL0BfOqOyrJs6djdXekqiZV9bvp78xdR0+sql9vHWIHzkvyqdYhRuzuSd443eYBOISqelz6STinNY4yVDdO8ndV9bSqaj7Svuu6a5L8bescI3ZM+tdUv9g6yHU5YJT7pUn2tE2znhTojJbyfPQunGzkC61DsD2TvflSkhe0zsGO3DHJBUp0WE/T8vyCrPYdeltxdlU9vnUIhqWqbph+m5pfjffIW3Hf9Psyf2PrIGNWVT+Z5K9iHPOOTMe2vzjrUZ7PHJX+TvQHbvcvTvdwfXq+8k6mdfTLVfWE1iG2o+u6K+M9+G7dOv3FX0p0OEBVHVNVz0jyJ+m3vODIfiHJS6rqRq2DJHlu6wAr4DdHcoH9jyX5ga7r9CgNODnAKCnPV8J5rQOwY+e2DsCOfV2U6LB2qup26bdNWffyfOaPq+rhrUMwDAfsPf3QxlHG5ubpy4gfah1kjKYn6/4ozsnsSFWdmf5unBNbZ2ngmCTPr6o7bPPvnZ3kcQvIM0a/NbBRvFvx160DrIBbJTm/qk5tHQSGYFoCvzx9OcfWPST9VIvbtwzRdd1bkvxTywwr4uyq+u+tQxxJ13Ufnn69acCbNUZHeb4yFOjjdWGMcR8zJTqskaq6Sfry3MnCa02SPKeq7De85qrqbkm69M+NbN+xSf5iup8yW1RVP5G+zGQHqupr0o9tX+eLwr4myUZVbekCgqr65SRPXGykUTkqyXOr6mtbB9mGC5N8tHWIFXDbJC/f6vcOrKqqukWS1yT5ltZZRurMJK+vqns2zvE3jY+/Kv60qlxMzSEp0BkV5fnK+MBkI5e0DsHOGOO+EpTosAam+7Odk2RMJ4iX5Qbpx+DesHUQ2qiq+6U/cXiz1llWwG9U1e9PR0RzBFX1g0n+uHWOsaqqo5M8L4kxzP3J+z+5rg+qqkclGeO+34t2YpK/rarjWgfZiq7rvhST4Oblbkn+3HMW62o6ney1cQHpbt0i/TSmBzfMYIz7fByV5K92MN2HNaBAZzSU5ytlf+sA7Jo37+OnRIfV97QkLd/QD90ZSf6sdQiWb3qia3+Sk1pnWSE/k+TpConDq6pvT/Ks1jlG7uwkD2odYkB+cHpRxiFV1TfFv7kjuVuSp7YOsQ3GuM/P9yb56dYhYNmmY8dfl+T01llWxEnp90Rv8p6767pLkry9xbFX0Mnpt8i5/gLW/q4k90zyo9fxcfecPn5rC2u+8oCPf+Wu0nFER7cOAFuhPF85+1oHYNcuTD/GXfk6brMS/cGTvcbywyqpqu9N8oTWOUbgUVX1gq7rXBi2Jqrqm9OPfz6+dZbD+I8kn0hy+fT316S/8P34JDeZPobqcUk/orzrus3WYYZkumf338ZNDDtWVY9I8vOtcwzQH1XV33dd968H/uF0PO/z0m+1wOH9TFU9v+u617QOsgVdkn9O0nTf3amrknz2gEeSfDHJrHg4Kf0551OSDPUu/6dV1Su6rnt36yCwDFV16ySvSHKr1lkO41NJPp7kC7n29e/1008Ou3mG+3x2fJKXVtXDu65rccPY3yS5R4PjHsqBzwtXTf9s9txw/fSfqxtkuNvw3DXJb2TOrze7rrt4ix+35Yshuq77TFw8sRQKdAZPeb5yrklyfusQ7M5kb760uScvSPLjrbOwa0p0WD23yXLurL46yXuTvGf6eH+Szyf59PR/Z6XfjdK/UT59+jgj/Vj5oRRJT6+qV3Zd94nWQVisqrpXko0Mozz/fJI3JHlLknckuTTJ+7qu+/SR/lJVHZPkdknukP4kz9cnuV+GczL0cUk+l+QXWgcZiqq6UZIXp/9ZyM7cOsmeBR/jU0kuSnJxkn9K8skkn0ny7+lP2p+Qfuz3qem//85IcvckrbcCOTn9tgD/ZfYH0y1c/ibJLZeY49Ikl0z/97L0Pwc+l/4k+knpP383SL8H9RlJ7pjkLmn/83iSfu/Tu3ddd3XjLEfUdd1mVf1tkict6ZD/lv756Z3pX+N9aPr4YJKPbfVCqao6Of2/xVPTf81nj29I26//9ZM8q6ru03XdNQ1zwMJV1U2TXJBh3Hn+qfR3wb8pfQH4nvSvga880l+qqlPSv8+96/Rx7yT3SXLMQtNuzXFJXlRVD+267oIlH/uvs7xpKlemf530jvTP+R9M/7zw4SQf6rruC1tZpKqOTb+N1uw11Z3Tf03vkf5r3NITphfWvaFxDgZCgc6gKc9X0hsnGzniicGmTt38nfQnM8/PRyaXX9eHr7lzo0BfFUp0WC3PzOKKmjenvxDu/CSv67ruip0sUlUnJfmmJN+c5GHpT6S2ctP0Y4H/e8MMLFhVnZ7kpWk7tv3SJC9Mfwd8t5Oypuu6q9JfuPLeJC+f/XlVnZHkIUkenn7E9fXmEXiHfr6qPtp13e80zDAkz0q/XzU797OZ//mra9JP1XpRkldMx6Buy7SovmeSb03/XPaN8wy4DY+squ/quu5l098/JckDFnzMy5O8IP12GBd2Xbft9xDTE+j3TvLAJI9M/7ls4c7px3n/bqPjb8dzs5gC/YtJ3pj+e+KNSd7R/f/s3XeYnVW1x/HvSW/UEMoAkSJVFISQFVSqSEexYwERK8WC4L1yMYIidrGBYKVIsyDKIBBqBJGsEAhIDZ0AISEJ6b2c+8d+BwKGJDOz91vO+/s8zzw+Ylh7mUnmnPP+9l7b/YUYhbNTcrMIYcvLwVL2/d+D8Jp1KDAsxnqdtDvwWeD8AtYWyYWZ9Sds5CvyfucJhKkoVwN3u/uyzhbIXmemAvd0/DMzG0DYSPoe4L3ku3HstfqTjXN39zF5LeruE83sDuDtCco/QXhd+Cdhs8PDMTabZZslOjZljV3xf8s+s+0LHEB4bRjQ3fU6qUHYYL972TfWST50P5mUlsLzlnV6o51vFd3E62prLiTsRF5O2A15AzAKcCY19MK5guZIegIvoDHureQBUIgu5WVmWxBGV8b0SXe/MHLNTjGzmYQTZGX1NPAb4BJ3n5hiATPbGfgY8EmKGenWBHZ397tjFs1G6B4Us2bmAOAjEevdQdh4UTbXv3YscVdkp27+TTEPDucAFwMXxP7z9XqyP3cfJWx03DaPNV/HB939LwWuv0pmdi/hBHEs73X3v71mjeMJp4OrYL3VTUBYU2Z2IfCJGLUSmEJ4zvA7d38+ZmEz2xb4VPaV93ULDxPu9B4O3E66KS/XAb8H2t19UczCZrYTcAzhjtC83xfNBLaM9XcgJTN7gDgbDx8hbOq6BfjXmp4cTCW76uLo7GuzHJeeAWwV8edfH8JrcGzbA/8bsd6zwDci1otl7JqOO+6qBK//+7r76Ij1ojGzBuHwy/tX92sTWAj8Afitu49d3S/uLjPrQdjQ9nnCpraiNpO+BOzl7g/mtaCZnQCcE6HUbOBawqbj0e7+XISaXWZmgwgbI44B8r5n/jh31+YqUYAu5aTwvKWNaLTjRTexUm3NPoSd1yszi/DBchQwikmNp/Nqq8yaIzkfnUJvNQrRpbQUoOfuXuA7wJV5jbbMTkgcQ3igt3Eea67gRnc/IOc1u8TMvkzck3IXufsxEeuVhpn1Itz3uE/OS08GfkB4aDgn57WBlx+aHkg4rZj6NOrKzAfe4e7jC1h7tVIH6FkYOI5X7gTOU5Nwamg8IVh9EniGcLfodGCBu89+/X+9e0oaoL9ImDZyXuzg97WyB75fJoRdg1Ku9RqnAMcDWyWofS3w9Tz+PmfXHpwEnEwY+56X77j7aTmu1yVm9nXgzC7+6/cQToFe1ZWpC3nIAuhjCX+e8xo3/V13/7+c1uoSM9sHuDViyfvcvSz3JueqZgH66cAZOS87C/gpcE5RV2SZ2VDgfwgb2voV0MLzwB7u/mwei5nZhoQDTl3ZPDedMI3nSuCW1O+RusrM3kp4RvAe8sk0JwNvdPd5OawlJaYAXUpH4XlLewnYsNFOp0f15KKtOYTwYGVNPAZcT3ggewuTGrV8QW2O5J3ATUX3IdEpRJdSUoCem+cIDxyuWNP7LWPLxvGdRnh42ifHpUv7AGxFCtDXnJn9lDD+OS8zgLOAc4s+zbei7MH7jwh3zubpWWDXoh6grkrKAD27q34c4URwXiYQTgzdCtyejU0uRMkC9OXAL4DT8/49MbNNCRMI3pPnupE9RDiFdVveC2cByC8JI1zzMBfYvOyn0LPxto934l+ZQjgFekHqk70xZRvgPkd4TU39PnkB8IauXEWQFwXo8dQlQDezwwgj0/PKf5YAPwPOKsvPUTNrI2w4+iT55mDLgIPd/ca8FjSzUYQpZWtiGWGizAXANau7f75Mssl155JmZP1rfc3dv5/DOlJiqUY6iXSJwvOWd1Npw/OgM3dibkO4J+1qYAZtzVtpa36NtuautDXrtDlpNChkbUEdd6JrPL9IvTQJDz22d/fLiwrPAdx9fnYKzAibevJyao5rSWJm9mHyDc9/A2zt7j8uU3gOkD3Y3Z0w4SHPMHtz4A/Zafg6OYV8wvOngW8Sfm5v7+4nu/s1RYbnJfM0YQrCl4v4PXH35939CEIIWJmH05km8D3CBpjcw3MI97q6+2GEU/VLclhyULZWqbn7E7zmztjXMYowxngzd/9qlcJzAHdf6u7nEsbVX594uf7k+35BJCkzewNh40xe779GA2/OftaUIjwHcPdJ7v4pYFfCNZ15+Uye4XnmijX4Nc8SPu9u5u6Hu/tfqxSeA7j7fcCehGfyqT9vfdnMipgkJSWiAF1KQ+F5LYwquoHV6Oqu5t6EsaDfBe4GptDWvIS25tG0NTeK1VwZNc5kGfDXovuQJBSii9TLC8B+WchQmqkq7n4v4T7XS3Na8gAzq+VpnFaTTaz4VU7LPUW46/Cz7j4jpzU7zd2b7n4R4R7Vy3Jc+iBCoFwLZvZG0t8rez1hPP9W7n6Gu09IvF4VXUMIf+8suhF3/zWwF/luXumOmcAh7n5qGUa5uvt5wL7k8/t3YnbyuexeLyiZS7gHd3t3P8jd2919aY59RefuzwOHECYTpXRCNgFJpNLMrCfhs9O6OSy3ADiO8DmytO9Fss+UexCuB0kdup7m7hckXmNl/srrb9a7DfgA4X3j99x9cn5txZd9pjmH8D19OuFSGwNHJawvFaAAXUpB4Xlt3FB0A6vRmRPoqzIE+BhwETCZtua9tDV/QFtzP9qarbhz7c9FNyDJKEQXqYcxhJBhdNGNrIy7LyB8cD0jpyVPzGkdSSQLPy4jn6sRLgV2dvfbc1grCnef7u4fAz4C5HU/+1k12pxyPunu2/w74ef1we5+Q5GTQkruZ8ARZdrQ4u5OGDf6fNG9rMbThHtbU5/47RR3v4OwCeGFxEttQji1XXZ/JEwJ6DAF+D/CCPovlDnI6oosLPkO8EHSTSNYFzgyUW2RPJ1GPuOtHwSGufv5VXg/4u7L3P2nhOuM/pNomXOyn1W5yybt/GOFf9QkPK8d5u57u/uVVd9Q9VrZxogRhGuTUjkuYW2pAAXoUrjm4RyLwvM6eLDRznNFN7EaqXZn7gx8FbiZMO79H7Q1v0Rbc/tE6+VtNOG+T2lNCtFFWttVhHv7Sr0LPXtw+k3yGbH+ETPL48SGpHMS4URCSkuBL7j7x909rxA6Kne/AhhGeACaWm/gwuxu8JZlZocD70xQejzwdnc/wt3HJ6jfSr6RTVMp3dVh7v4osB8wveheXscTwJ7u/kjRjayMuz9MmLyQ+rPnZxLX7zZ3nwT8k/A9Ow7Y0t2/W6bRySm4+18IpyhTheifS1RXJBdm9hZgZA5L/R0YUbWrIQCyng34feTSVwJfjlyzs64g/Hz8NbCtu3/I3e8uuKek3H0KsD/pQvRdzWxYotpSAQrQpVDNw/kY4a5AaX1lP30O+ZxS6k8YP/ZT4GHamhNpa/6Gtub7aWuul8P60WVj3K8qug9JSiG6SGu6DPhg2e5qXhV3/x7hypSUBhBOOEkFmdm2wJmJl5kNHJqNDqy0LNB7G/lctbQz4YRkq+oF/DByzXmEOx6Hufu/I9duRd9399R//7sl+zv3HvK507szngP2cfdSb3p39/uB9xI2MaWyv5ltmLB+LMcQRrWfn03rqQV3v5p0mxyGm9l2iWqLJJWNbv894f1ISj8F3uvucxOvk4y7L8zuRv88cV5PbgM+VoLNe1cDW7j759z98YJ7yU12+v4QwrVaKRydqK5UgAJ0KUwWnl+M/hzWRalGwL2OWCPcO2Nz4NPAX4BptDX/TVvzDNqab6Ot2bOAfrpKY9xb307Adc2RuWw0EZH0rgKOLsGH/K44jXDHW0ofT1xfEjCzBuHERcorc6YRTmhWYXPoGnH32cBhhM9mqZ1qZlvnsE4RPg3EDF7GAG9293PcfXnEuq3qQvKZUtJt2TjyrxTdxwrmAAeXPTzv4O7/BL6WcIlehFPOpebuz7TaON415e4XAWcnKv+RRHVFUvsiYTx5Sqe6+0lVGNm+Jtz9V4TgdXY3ytwPvNvdF8XpquuyjQGTiu6jCO4+lbBBcX6C8h/KNqhIDSm4lEIoPK+dhYTdeGVXRIC+oh6EcaOnA3cQAvUraWt+hrbmG4ptbbXCeHppdbsBNyhEF6m8McDHKxqekz2wOYYwtjSVPc1s44T1JY0jgb0T1p8G7Ofuqe5NLEwWwhxDuL87pb7AuYnXKMqBEWudDezl7qlO0rSaMcDnqvRAP5tgcW3RfWQ+4e4PFN1EJ50N3JKw/hEJa0scXwPuSVC39JsnRF7LzDYCzki8zKnZNLCW4u43Au8AXujCvz6RsAFtVtyupCuyKTUnJyi9EbBngrpSAQovJXcKz2vpn412qjAetmyh4LrA+wgnqZ6mrfkIbc2f0dY8lLbmgIJ7e5XGmSxBY9zrYjgK0UWqbArwPndPsTM7N9md0x8HUp3KbACHJ6otCZjZQOKPz17RbOCd2YOZlpSFj8cDv0u81IFmdljiNapqCWE6yMnuXrYR32X1EvABd19cdCNd8Dmg6NHbP3P3yn2Oy35efQZI9X3fx8yK3mAvq5D9jPwkEHtD6JvMbIvINUVS+w5pDwWd1YrheYfs/f2edG6D9nTgQHd/Pk1X0kW/Am5NUPfQBDWlAhRgSq4UntdWHncqxlD2D8jbEUYyXQPMoK15C23N/6GtuQttzUbBvYHGuNeJQnSRamoCH3X3ruyuLx13HwP8POESCtCr5avApolqLyGMZmy5k+evlYVSnyP9NQnfNTN9Jny12YQJB38oupGK+XxVH15nI9O/X2ALE0g7Cj0pd3+SdO8DegP7JqotkWSvy79MUFpBiVSGmb2FsJkklYvd/esJ65eCuz8B7MOahegLgMPd/ZGkTUmnZZ9lvkD8zVV6XagpfWCV3Cg8r7WqBOhVCgP7ED7Qfx8YD0ymrXkxbc2jaGtuWFBPGuNeLwrRRarnp+6ectxpEc4ApiaqvbfuOqsGM9sAOCnhEp/J7tythex6h6OAsQmX2Qk4OmH9qpkG7O/u/yq6kYq51t2rvon3B0BRd48f5+5VmBS3Kt8mnAJMQQF6NZwJzItcU997qZJvEaZnpfBvwrSPWsg2tu3DqkP05cAH3f3OXJqSTnP3B4FLIpfdQVe81ZOCTMmFwvNae7bRzkNFN7GGyn4CfVU2JDzovBiYQltzPG3N79HW3Je2Zp88GtAY91pSiC5SHc8ALXdyILtv7keJyq8N7J6otsT1NdK9jzvP3S9KVLu0smse3ku49iGVr5tZr4T1q2I2YQToXUU3UjELgROLbqK73H0B8NMClv6zu6cYcZqr7H3AOYnK752orkTk7lOB30Quu7eZlWHKn8gqmdkI4D2Jyr9ICIqreEVKl2Uh+juB15tu81l3/0eOLUnXfIcwgS+mfSLXkwpQmCnJKTyvvRuLbqATWikE3AX4X+AWwrj3dtqaX6StuW3idat+AkQ6TyG6SDV8per3nq/CL0l3+myPRHUlkuz0+ecTlb8X+HKi2qXn7pOAIwknbVLYGvhIotpVdPAIQgAAIABJREFUsRA4xN3vKbqRCvqBuz9VdBOR/JqwkSIvy4D/y3G91H4JLEpQ981mNiBBXYnv58QNSjYgXKEnUnanJaz9sey9YO24+zPAfoQJQSs63d1/V0BL0knu/igQe6PDOyLXkwpQoClJKTwX4PqiG+iEKp9AX5UBwGHAz4AJtDWfpq35a9qa76OtuW7ktTTGvZ4UoouU27/cPfV9xoVx97nAuYnKW6K6Es8JwMAEdRcRHhzW6tTNa7n7aOC7CZf4Ws1P+R3j7ncU3UQFzQZ+UnQTsbj7HOC3OS55mbs/nuN6Sbn7i8BlCUr3BN6aoK5Elm2muTly2d0i1xOJysx2JDzrS+EX7n5TotqVkAWw+/PKBrfz3P1bBbYknff7yPWGRa4nFaBQU5JReC6E0ypVesNVl/DvDYQ7jK4EptPWvIO25jdoa46grdmtu141xr3WFKKLlNfIohvIwa9Jc0pWI9xLLDsZ+IVE5c9w96pcQ5TaN4HxiWrvCLwrUe2y+5a7/7HoJirqPHefWXQTkcW+q3NVUl19UqRLE9VVgF4df4lcb3jkeiKxnZKo7lOE65Fqz93vAw4lvEan+swh6VwHxJzCt7Oun6ofBZuShMJzyYxttFfqNHIdg78ewNsID0bvBKbS1vwzbc1P0dYc2sWaGuNeXwrRRcpnXHaCtKW5+/PEP3kEsKXGt5bakcDgBHUfAH6coG4lufsS4NOEsc8p1PGB5I2E99/SeYtpwQDY3ccDE3JYaqy7/yeHdfI2GpiaoO5OCWpKGtdErqfvvZSWma0PfDRR+RNa+OqvTnP3f7n7Ue6e6n2wJOLuC4l7tWw/4I0R60kFKNyU6BSeywpGFd1AJyn0g/WADxBGCD5DW/Mh2po/pa15CG3NNQ0QNMa93hSii5TLeUU3kKOLEtRsEE7ISjkdn6jul7LQWDLZHd3nJCp/qJltmah2GU0FPu7uqe6Wb3VXuftr7yRtFX/KYY2WvLs1CzZSbOTeIUFNSSDbTHlPxJLbR6wlEtsngb4J6l7j7tclqCtSlKsj19OzgZpRwClRKTyX16hOgN7WbNX7z7trB+BLwD+Al2hr3kRb86u0Nd9CW3Ol91VqjLugEF2kLGYCVxTdRI6uIc0J2W0S1JRuMrNhpLmftN3db0lQtxV8E3gpQd0GcFSCumX12ezOZumalgyAM6lDi4W09vuCFM8ftk5QU9KJ+frdZmZ6TiRl9dkENZeRbiy8SFFGR66nzVU1o5BTolF4Lq8xExhbdBOdoA9Gq9cXeCfwA+A+YBJtzYtoa36MtuaQ1/xajXEXhegixbu0TuP33H0W4AlKb5WgpnRfqsD19ER1K8/dZwBnJip/tJmtdHNmi7nc3f9WdBMV9hxprusoi7uAeQnr3+zusxPWL9q/gGbkmm1m1idyTUnn7sj1tohcT6TbzMyAbROUvsTd87hKRCQ37v4kcaekbhGxllSAgk6JQuG5rMRNjfZk9ySmoAC98zYGjgYuAabQ1ryHtuZ3aGvu89WxP7wdjXEXhegiRatjSHNTgppvSFBTusHMehLuP4/t79k9xPL6fgW8kKDu1oAlqFsms4GTi26i4v7eyqPv3X0pIQRO5fqEtQvn7i8Bse93bwCbRa4p6ShAlzr4WIKay4BvJ6grUgYxXxu2iFhLKkBhp3SbwnN5HVX7cK6Ar3sawFuBU4Fbf3T/KZOHXz12zjkPnchjszX5tuYUoosUYxbwz6KbKMDoBDU3SVBTumd/YMMEdb+foGZLcfcFwA8Tlf9AorplcYa7p9h8UCdV+4zZFWMS1r42Ye2y+HeCmhslqClpPA7MjVivLWItkW4zsx7AhxOUvtLdH09QV6QM7o1YS5vqakaBp3RL83A+gMJzWbkbi26gk3QCPa5Bd03dfegX7vwF2/75Ubb605N8/o7zueqZ9zJrsXLUGlKILpK/a919SdFNFCDF6eEUQa10z3sS1LzT3e9MULcV/YZwXVNs701QsyyeAs4tuomKW0hrj2/v8GCius9mY0xbXYrfv40T1JQE3L0JTIxYUu8BpWz2IM2fy7MT1BQpi5jvfzaIWEsqQKGndFnzcN4NXIb+HMl/e7jRHvVDSx4U7CX01Jwt+dUjn+N9N/2VwZdMZ89rbudb47/B2KnDWd7Uj5Ca6AjRtVlFJB91PH2Ou88k7oNT0IfkUsnuyT48QelfJ6jZktx9LvD7BKW3MrM3JahbBl9398VFN1FxY7IJCK3ugUR1xyWqWzYpAvT1EtSUdJ6NWEubJ6Rs3p2g5r3u7gnqipTFcxFrDcmuE5OaUGohXZKF538Behfdi5TSqKIb6AKFejlZ1uzJv6a8g9Pv+SZ2tTPk0ql8+JY/8vtHj+W5eZqE0+KGA39rjmRA0Y2I1MDYohsoUOz7T9eKXE+6Zxfij86bDfwpcs1Wl2rDwQGJ6hbpUeCKoptoAXUJgB8DUkyQiTm+tMweTlBTzwqqJWaAru+9lM1hCWr+NkFNkTKJGaCDng/UigJ06TSF57IGqhig6wR6QV5atD5/eupDfOr237H5Fc/ypisf5Ct+Ntc/dxALlvUvuj2Jb1/gGoXoIkktBO4vuokCTYhcTw9Py+WdCWpe7e7zE9RtWe4+AbgjQen9E9Qs2nfdfXnRTbSAu4tuIA/uvhSYlKB0XX7/phDeB8WkZwXVMjliLYUkUhpmtjGwY+SyS4HLI9cUKZvnI9dbN3I9KTEF6NIpCs9lDSyimmNj9XC8JB6auSM/eeAkDh51Hev9YQbvuu5Gfnz/ydw/481FtybxKEQXSWt89gC+rmIHD30j15Pu2SdBzcsS1KyDSxPU3NvMeiWoW5TJ6M9XLLUIgDMxA8AOjyeoWVax3wc0IteTtOZFrKXNE1Im+ySoebO7v5SgrkiZxL5GaVDkelJiCtBljSk8lzV0W6OdKt5Npw9GJbRoWV9umrQ/p4z9EW/5639ou3wSn7ztAi5/4iNMW6graStOIbpIOk8U3UDBUpzckxLI7pvbJ3LZ+cAtkWvWxZVAM3LNgUAr7Zo8X3efR7EMeLLoJnKU4nVsYoKaZfVi5Ho6hVwtsScQiJTFvglqXpWgpkjZzI5cr5U2+8pqKECXNaLwXDrh+qIb6CKNX6mAF+ZvwoWPHcNHR1/Ghpe+yLC/j+O0cWdx2+S9WLJcP54qSCG6SBrPFN1AwWLfcSblsQMhYI3pJndfFLlmLbj7i8CYBKUtQc0iLCfdXfF187y7Lyu6iRxNiVxvmrtXcZN7V8XegNAzcj1JK+YJdE0qlDJJ8f7o2gQ1RUolwVVKmkxTI9otIaul8Fw66YaiG+gifTCqmCYN7p62G3dP243v3Pd/DOo9l/02uYUDNxvFgZuOYuu1634AszI6QvTDGmei+2dF4ni66AYKNrfoBiSZ4Qlq3pigZp1cB+wRuaYB50euWYTr3f2FoptoEc8W3UDOYm/qqdvGsjlFN9BKzGwtYBNgA2BjXnl2sg4hRBhIuZ4X7hKxlg6eSSmYWX9gp8hlJ7h73V5fJYLsuqUhwIaE14V1gf6EDWcdU1vKdlBtEfGuZtMU2xpRgC6rpPBcOun5RjsPFN1EF+nFr+LmLhnE1RPfzdUT3w3AVms9+XKYvm/brazdO/bEHolIIbpIXHUa07oyM4tuQJIZlqDm7Qlq1smNwLci19w5cr2iXFh0Ay2kbg/4Y39wmRW5XtlphHcnmFkPYEvC9RlvAt4IbA28AdiIeIGDiHTdzsSfhjE6cj1pIWa2LuE14c3AdsBWhNeGjQgbqkRqQQG6vC6F59IFVT19DjqB3nKenLMV5z18HOc9fBy9eixljw3v5IBNb+DATUex2wZ306MRe4KPdJNCdJF46jSmdWX0A751xT55Mxe4P3LNuhlHuEc+5nUs25tZjwTjFvM0D7im6CZaSN02RsX+s1+3ySwK0FfBzAYB7wD2Jkx22R3d8y5SdrHfA4M2kUrGzBqEsHwfwmSp4YTNVCK1pwBdVkrhuXTRqKIb6AadQG9hS5f34vbJe3L75D0ZefeZDO47nf03vYkDNx3FgZuNom1A7GvypIsUoovEUffRpRo50rp2iFxvfMVD2sK5+1IzGw+8PWLZ/sAWwJMRa+ZtVM3unE4t9kjzsov9OrY0cr2yW1x0A2VjZjsBhwOHAiPQve4iVbNjgpp3J6gpFWFm6wAHEV4XDkanykVWSgG6/BeF59JFy4Gbim6iG3QCvUamLxrMH5/8MH988sMA7LTeA+F0+maj2Gvj2+jXU4cWCqQQXaT79HdHWo6ZDSb+g517Iterq7HEDdAhnHqpcoB+VdENtJi6jSCPvbGnbif49T4IMLOhwNHAR0gTvolIfraLXG8+8GjkmlJyZtYHeDfhdeEwoE+xHYmUnwJ0eRWF59IN4xrtTC+6iW5QgF5jD8zYiQdm7MTZD3yFfj0XstfGt3HgZqM4YNMb2Gm9B4pur44Uoot0j05eSSvaKkHNCQlq1lGKMfhDE9TMSxO4vugmWoxe10TWQDaG9xDgROBAoFFsRyISydaR6z2qKUz1YWabA18AjgGGFNuNSLUoQJeXKTyXbqru+Pa2Zm/CqEgRFi7rxw3PH8ANzx8AQNuASRy42SgO3HQU+296E4P7VnmfSKUoRBcRkRVtlqDmIwlq1lGK38cqB+h3u/u0optoMfOKbkCkzMysF/Bx4GvEP6kqIsXbPHI9vQeuATPbEfg68CF0dYdIlyhAF0DhuURR3QBdp89lFSbNb+OCRz/JBY9+kgZNhg0Zx4GbhtPpe2x4J7161O1KwVwpRBcRkQ4pAtWJCWrWUYoRoG0Jaubln0U3ICL1YWZHAN8Hti26FxGJz8zWAwZELvt05HpSIma2GfA94KNoEolItyhAF4XnEsMsYEzRTXTDOkU3INXQpMFdU3fnrqm78+17v85avefwzrabX74/fau1qnxVZ2kpRBcREYCNEtR8LkHN2nH36Wa2EOgXsez6EWvlTQG6iCRnZtsBvwT2K7oXEUlK74FljZhZb8IkklPRpFWRKBSg15zCc4nk5kY7y4puoht0Al26ZM6StfjbM0fwt2eOAGDrtZ/goM2u54BNb2DfTW5lrd5zCu6wZShEFxGR9SLXm+XuiyLXrLOJxD39uEHEWnn7d9ENiEjrMrOewFeBM4C+xXYjIjmI/R4YYHKCmlIgM9sNuAh4U9G9iLQSBeg11jycA1B4LnFcX3QD3bRu0Q1Ia3hi9tac+9AJnPvQCfTusYQ9Nrzz5fvT3zp4PD0ay4tuscoUoouI1FvsE8kzIteru5ci16vqBten3H160U2ISGsys02By4C9iu5FRHKTYiqP3ge3CDNrAKcAZ6GMRyS6HkU3IMVoHs5+wN/QD1aJo8r3n4NGuEsCS5b35rbJe3HauLMY9vdxbHTZFD46+jIueuwTTJpf5Ws9C9URovcpuhEREcndwMj1ZkWuV3exH8RW9f353UU3ICKtyczeTvgZo/BcpF5SHPpRgN4CzGwg8GfgByjjEUlCJ9BrKAvPr0F3YUgcExrtTCy6iW6q6gkXqZBpCzfg8ic+wuVPfASAN693fzidvtko3rHRv+jXc2HBHVbGvsBfmiP5QONMFhfdjIiI5GZQ5Hp64Y0r9nSYRuR6ebm/6AZEpPWY2QeBS1FAIlJHKf7eV/kaTgHMbAhhIuyuRfci0sp0Ar1mFJ5LAlU/fQ7VPeEiFXb/jDfzo/tP4V3X3cj6f3iJg0ddx08eOImHZu5YdGtVcDghRNdJdBER6SoF6HHNjVyvqpv9Hyy6ARFpLWb2eeAKFJ6LSDyzi25Aus7MNgPuROG5SHIK0Gtk7v6su2w556PwXOJqhQBdJ9ClUAuW9ef65w7iK342O191H++76a+Mn/7Wotsqu8OBrxTdhIiIiCTRr+gGumhC0Q2ISOsws2OA89DzW5E60zNLeZmZbQqMBrYuuBWRWqjqrm7pgkE3MXPiMD7fpzfXDhpAY0B/ejQa+jMg3bKI8KJddTqBLoXZeu0nGD5kLDbEGT5kLG8dPF7j3NdMO3B20U2IiEhlVXVEeF3EPtGel8eLbkBEWoOZHQL8rug+RKRwKR4Q9U1QUxIzs0GEycIKz0VyovC0ZoaO45aJwzjkpVlcM2M2fQb0h0H9oY+G4ErX/KvRHv2+wyJoN6fkYr2+M14OyzsC8w36TSu6rSpqB92BLiIi3aINlHHp2QJMcXftghSRbjOzNwF/orwnzxcAkwibnZbzyjjoWUCzqKYyQwGNc5NWkuK5h6bTVoyZNYDLgV2K7uV1NIGpwEuEA3eLgfnAUsqxMfZQ9HlFukB/aGooC9EPaza5Zt58+s+bD717wcABMLA/9Cjr23Mpo+uLbiASBegSXZ8ei9ll8L0MHzKWERuOYfiQsWyz9mNFt9UKFJ6LiNRT7J/7VR0RXlaDIterYhA9segGRKT6shOGfwEGFtzK88ADwEPZfz4KTAEmufu8IhtblWzs/QVF9yFScgOKbkA67WvAYQX3sAB4cIWvCcAzhNeGqe6+rMDeVsnMZqIN1NIFCtBrKgvRjyS8Ke+9ZCnMnA2z5kD/fiFM76dT6bJ6NxTdQCR6AZVu22btx8Lp8g3DyfJd1r+Xvj0XFd1Wq1F4LiJSX7GnHq0XuV7dxd6QOnv1v6R0Xii6ARFpCT8Bti9g3SmEQxKjgdHu/nQBPYjIf0vxnmjdBDUlETMbBpxZwNLLgX8CtxBeG8a6u57HSa0oQK+xoeO4euIwPkAWogM0mzB/Qfjq1TM7lT4AeupUuvy3Fxrt/KfoJiLRCXTplMF9p78clneMYl+/70tFt9XqFJ6LiNTbzMj11jOzHu6+PHLduoq9IaGKb6ymFN2AiFSbme0PfDrHJecSRsVfAdxS5tODIjUW+z0wwOAENSUBM+sNXAj0zHHZMcClwJ/c/cUc1xUpHQXoNbeyEL3D0mXhRPqKp9L79y2mTymlUUU3EJFOoMvr6ttzEW8dPP5V95ZvvfYTRbdVNwrPRURkeuR6vYGN0KnhWDaOXG9G5Hp5mFZ0AyJSXVlI8ouclnsR+BnwS3dPEc6JSDyx3wMDbJagpqRxIvCmHNZpAn8Dvu/unsN6IpWgAF1WGaJ3WLAwfPXsGe5JHzggnFCXWmuV8e2gAF1WsN06E9h9yF2MGBLuLd9l8L307rGk6Lbq7FoUnouISJoTyUNRgN5tWeizUeSykyPXy0MVQ38RKY/jSD+6fTHwQ+Asd1+QeC0RiSPFBr2hCWpKZGa2LnB6DkvdCRzn7vflsJZIpShAF2DNQnSAZctg9tzw1a9vdiq9HzTya1XKoQncWHQTESlAr6kh/aYyfMhYRmwYwvLhQ8aybh9twC+RW4EPKjwXERHg+QQ1twV0wqL7Nif+R8JnI9fLw9yiGxCRajKz/sCpiZf5N3Csu09IvI6IxDUFWEbcEd7bRawl6ZxM2mfW84CTgN+6ezPhOiKVpQBdXramIXqHhYvCV48er5xK760/UXVxd6O9pUYUKkCvgX49F7LrBvcwYsgYdh9yFzbE2XKtp4puS17frcBhjTOZX3QjIiJSChMT1NTDwzhSnJhUgC4idXIU8a/CWNHPgFPcfWnCNUQkAXdfamYvEHfsut4Dl5yZDQK+mHCJR4H3uPsjCdcQqTzFnfIqnQ3RAZYvhznzwlffPiFIH9APGjqW3squL7qBaNqag9AQhZbToMl260541b3lO69/H7166HlBRSg8FxGR10oRoO+coGYd7ZCg5hMJaqY2p+gGRKSyvpSw9inu/uOE9UUkvYnEDdDbzGyIu0+NWFPi+gSwdqLaY4HD9P0XWT0F6PJfuhKid1i0OHzNbMCA7FR6n05VkIrQ/edSKhv1nxLC8g395VHsa/eeXXRb0jUKz0VEZGWeAZYS9zPs7hFr1dmuCWo+mqCmiEjpmNkewI6Jyp+m8FykJUwA3ha55m600gGp1vPpRHUfAg5y9xmJ6ou0FAXoslLdCdEBljdh7vzw1ad3CNIH9tep9BYxG7iz6CYiSrWbTxIZ0Gs+uw6+hxEbvjKK/Q2Dnim6LYlD4bmIiKyUuy8xs0eJGzJsZGZbuPvTEWvW0W6R6z3j7hqHLiJ1cVSiun9x9+8kqi0i+XooQc0RKEAvJTN7E7BLgtJzgCMUnousOQXo8rq6G6J3WLwEFs+CmbPDaPeBA8Kod6msmxvttNIcbJ1AL7EGTXZY92FGbDiG4UPGYkOcndZ7QKPYW5PCcxERWZ2HiH9Kbx/gwsg1a8PMhhD/Hs0HI9cTESklM2sARyQo/QxwbIK6IlKMFAH6PglqShzvT1T3c+7+WKLaIi1JAbqsUqwQHaDZhHkLwlfvXq+cSu/RI06vkptRRTcQmU6gl8gmA1541b3luw+5i7V66zrJGlB4LiIia+I/wAci19wXBejdsXeCmnclqCkiUka7ApskqPtld9cHaZHWcU+CmiPMrL+7L0hQW7rn0AQ1b3b3yxPUFWlpCtBltWKG6B2WLA0n0mfNgf59Q5jer2+MypKDVgvQdQK9IAN7zGO3AXdjA53hA8cyfNOxM4duO3HdovuS3Ck8FxGRNTU2Qc1DzKyHuy9PULsO3pWgZorvs4hIGe2boObt7v63BHVFpCDuPtnMngM2i1i2L7Af8I+INaWbzGxtYFiC0icnqCnS8hSgyxpJEaJDOJU+f2H46tXzlVPpPXvGWkEie6zRztNFNxGZTqDnoAfL2bH/Q4wYOIbhA8cyYuAYduz3ED0by175RQtZlyZNGjSK61RypvBcREQ6I0WwugHhDsh/J6hdBylOyChAF5G62DNBzR8nqCkixRtL3AAd4N0oQC+btwGx5/Xe5O73Ra4pUgsK0GWNpQrROyxdFk6kz5oD/fuFIL1/v9irSDddX3QDCShAT2DT3s8zYtAYhg8Yy/CBYxk2cByDesxd9b+0HJhNQzMBakPhuYiIdIq7zzCzCcS/c/tIFKB3mpntDmwauex/3H1a5JoiImW1W+R6LwDtkWuKSDncDrwvcs33mtmJ7r4kcl3pul0T1PxVgppV07/oBqSaFKBLp6QO0TssWBi+evYMQfrAAeGEuhTuhqIbSEBxbTcN6jGXYQPHYQP95a+23pO6Vmwm+o7Ug8JzERHpqpuIH6B/0MxOcvdlq/+lsoIjE9S8NUFNEZHSMbP1iL8J6e+6koS1im5AJJFbEtQcAuwPXJegtnTNzpHrLaTm318z6wn0KboPqSYF6NJpeYXoAMuWwey54atf31dOpTc04LkIi2nNB1q6c7sTejaWsVO/B16+t3zEwDHs0P9hehDpM/oswkn02MOKpEwUnouISHfcDJwQuebGwOGA7oxdQ2bWC/hIgtI3J6gpIlJGsTeDQWtODeysjYpuQCSR+4FphOuHYvoUNQ9YS2abyPVud/d5kWtWzZCiG5DqUoAuXbJCiH4VOUVdCxeFrx49XjmV3lt/gvN0R6OdVnzB1Qj3VRjaZyI20Nl94F2MGDiGXQfcw8AeCf8YLAfmoFPorUvhuYiIdNetwFLif5b9LArQO+MwYJPINRcQJgyIiNTBFglqjk1Qs2pin+oXKQV3b5rZtcDRkUu/28w2dPcXI9eVrtkicr27IterIr0uSJcpfpQuy0L0o4GLyfG86PLlMGde+OrbJ4TpA/rrVHoOWnUns6LazFo957x8Z3nHKPaNe0/OvxGNcW9VCs9FRKTb3H2mmd0G7Be59EFmtr27PxK5bqv6fIKaN7j7ggR1RUTKKPYD/enu/kLkmlUU+/SmSJlcTfwAvTdwIvCNyHWlk8xsALBe5LIPRK5XRdsW3YBUlwJ06Zah47h04jAg5xC9w6LF4Wvm7BCiDxwAfZIOla+1UUU3kEgtT6D3bCxj5/73vRyWDx84lu37PRJvFHt3aIx7K1J4LiIiMV1F/AC9AZwMfCZy3ZZjZjsBByYofVWCmiIiZTU4cr1nI9erHDPrQfz7g0XKZBThis3Y9zkfb2bf1UbGwq2foObTCWpWjV4XpMsUoEu3FR2iAyxvwtz54at3bxg0IATqPXQqPZbJwH+KbiKRWpx13qLP0wwfOPble8t3HXAP/XuU9H2xxri3GoXnIiIS21XAzwmhd0yfMLMz3X1i5Lqt5qsJai5EAbqI1EvszfxTI9eroh2BQUU3IZKKu881s2uA90UuPRg4Hvhx5LrSOSkC9CkJalbNiKIbkOpSgC5RlCFE77BkCcyYlZ1K7xdOpfeNvS+vfm5otNMsuolEWu4E+jo9Z70qLB8+cCwb9qrYVUYa494qFJ6LiEh07v68mY0G9o1cujfwTeCTkeu2DDPbETgqQemr3X12groiImUVO+jVZ67402lEyugS4gfoAKea2a/cfW6C2rJmUmQqixPUrIxsLP4eRfch1aUAXaIpU4gO0GzCvAXhq1evcCp9YH/oUXhnlXRD0Q0kVOmYtldjKbv0v/dVo9i36zeBRtX3O2iMeysYC7xX4bmIiCRyEfEDdICjzewn7t6q05e660zin/yH8P0UERHpjncX3YBIDq4FZhD/ruzBwKnAaZHryppbK0HNWgfowAHEv/JAakTRhEQ1dByXAkdDGS5SfsXSpeFE+qQXYdoMWLio6I4qpUlrB+iVOoG+Vd8nOXL9K/jJ5ifx7+3fxpxd1uKuHXbn3KEncPTgi9m+3yPVD8/hlTHuUlVjgQMaZzKr6EZERKRlXQmkOCHTA/iZmekyqNcws71Ic+LpaeD6BHVFROqkf9ENFMnMhgB7F92HSGruvohweC2Fr5jZFolqy+qlyFMGJqhZJR8sugGpNp1Al+jKdhJ9Rc0mLFgYvnr1DOPdB/aHnj2L7qzUxjfaW/QurbZmL2BA0W28nvV6znj5ZHnH6fINek0ruq38aIx7VSk8FxGR5LI7IC8m3NcY2z6ETcE6FZ0xs97AuYnK/8rdS7UBW0QkB7F/7qU4uVglR6Hn3J2hu+Kr7XzgSwmEm8/XAAAgAElEQVTq9gPOAw5OUFtWb16CmoOBpxLULT0zW5c0m3+lRkoVbkrrKOtJ9BUtXQaz5oRT6VNfCqG6rFQrnwYpzenzPo3FDB84lhOGnMsftjyKCW/ajum7DOb6bQ7im22nc8g619YrPIdXxrhLlSg8FxGRPJ2TsPbZZrZxwvpV87/ATgnqLgR+m6CuiEjZzY5cb5vI9SrDzHoAJxTdR8Vos0GFufsjwM2Jyh9kZh9LVLuSzGxtM7vSzN6YeKmlCWq+IUHNqvg0YVOISJcpQJdkqhCid1i4KIx2nzQlhOpLlxXdUamMKrqBhAo73/zGvo/z0fUv4+ebf5Ex249g9lvXxrc3zhl6Ih9f/xK27fdoa4xi7w6Nca8aheciIpIrd3+YdO9V1wcu0Ch3MLNdgJGJyv/W3Wu2S1REBAgz12LawMxi34lcFR8Ctiq6iYopzYES6bIfJqx9rpltnrB+ZZhZH+Aqwknm0YlD9BTviXdMULP0su/bF4vuQ6pPAbokVaUQHWDZcpg9F154EV6cDvMXhLHvNTYHuLPoJhLKJUAf3Gs6B69zHWe0ncF12xzMtJ034LGdtuHSLT/GFzb8BTbQ6dtYlEcr1aMotioUnouISFG+l7D2QcBJCeuXnpkNBC4D+iQovwz4UYK6IiJV8GKCmm9PULPUzKwX8I2i+8jBgsj11jMzncysMHcfBdyXqPw6wKXZ36/aMrOehPfB+2X/aFPShugpAvTavS5kjgO0CUS6TQG6JFe1EL3DosUwfWYY8T5zNixJMUSl/G5ptLOk6CYSih6g920swgY6X9zw51y65cd4bKdtmLbzBlz7xkM4fZNvctDa1zO41/TYy7auWVD3g/gVoPBcREQK4+6jgTsSLvEDM9s7Yf2y+xWwQ6LaF7v7M4lqi4iU3bMJau6boGbZfZ50r1NlkuLUxaYJakq+vpuw9p6k3ahaatkUqvOB97/mf0oWorv7UmBS5LLvMLPekWuWmpmtTz02VkkOFKBLLqoaogMsXw5z5sHkqTBlGsybX6tT6a08vh0ijKzatt+jfHz9Szhn6ImM3X44c966FmO2H8HPNv8SH13/Mt7Y9/EYfdbXMjTGvdwUnouISBmckbB2T+AvZla70bBmdjKQ6g7MRaT9vomIlN1jCWp+MLsPvBbMbFPg20X3kZMUAfqbE9SUfP0JuDdh/ZPN7OiE9UspC89/SbhDe2U6QvTtEiwf+0HyQODAyDXL7geE67hEuq02b6qkeFUO0TssXgIvzYLnp4T/XNzKZ7ODVg/QO3UCfUivqRy6zj84s20k129zEC/tsj4T3rQdf9jyKE4Yci67D7yL3o3W/0ORu9g3w0ksCs9FRKQU3P0m4KaES2wAXGtmQxKuUSpm9j7Cw6dUznP3iQnri4iU3RPA4sg1NwdqMTUlC7h+Q05X85XAjAQ1d0lQU3Lk7k3gtMTL/NbM3pl4jdLIxrb/ljDdYlU2Bf5lZrE3ojwcuR6EPKYWzOwQ4FNF9yGtQwG65KoVQnQIJ9DnzQ8n0idPhbnzwkn1FvN4o50ni24isdc9gd6vx0L2GHgnX97wp1y+5Ud4cqeteHHnDbnmjYfx9U2+zYFrj2K9nik+v8h/0Rj3MlJ4LiIiZfM/pH3HsB1wnZm1/IN6M9sPuJx0zwumA2cmqi0iUgnuvgT4T4LSX05Qs4xOBg4uuokcvZSg5n6r/yVSdu5+LXBrwiV6A38zM0u4RimYWR/Cqf5j1/Bf2QC4JXKIfnfEWh3ea2ZDE9QtlWwqyUVF9yGtRQG65K5VQvQOS5bCjNnhrvTpM8Pd6S2i1U+fQ7ZTuUGT7fs9wicGX8Qvhx7PuB2GMXuXtfn39m/jJ5ufxJHrX8GWfZ8qutf60hj3slF4LiIipePu44HfJV5mN+CGVg7Rs/D8GqBPwmVOc/cUQYCISNWMTVDz3Wa2c4K6pWFm+wPfL7qPPLn7YuKH6COyu4Kl+r5IeHqWyiDCe+CWDdGzvws3AO/r5L8aO0RP8brQCzg1Qd3SMLP+wFWE74dINArQpRCtFqJDOJU+fwG8OB1emApz5sKyav+/u6HoBlI7Yci5k67b5uAFM3ZZj4fftAMXbnEMxw05j90G3K1R7GWjMe5lofBcRETK7FTSjDhd0XDCuMZNEq+TOzM7nBCe90+4zDjCyF0REUl3avSn2YjzlpNtDriSej7Tjn31SW/gyMg1pQDu/gDhzu6U1iaE6C03zt3MtgHupOtXYMQM0f8DTItQ57U+Y2Y7JahbuGzs/mXA7kX3Iq2njm82pCSyEL0l76RYuhRmzoEXpsC0GbBwUdEdddoS4Jaim0jt3PtOvOigta/fap2es35DC23maEka414GCs9FRKTU3H0aYZR7ajsBY1rpIZSZHQf8jbTh+VLgWHfX+24RkeBm0jyL2Ac4KkHdQmXh1E2s4jq+FvdMgponmpnygdbwdeDZxGusTbjSqGV+vmQbSMcC23az1AbAP7t7Sj+71/7GbvayMj2B87OwuWVk/38uBo4ouhdpTXqBlEINHceFwPFF95FKE1iwEKa+FEa8z5oDy1IO1InnjkY7c4tuIg+NdiY32vkssAtp3qBIDBrjXjSF5yIiUhW/I5/3dEMJIfqHclgrGTPra2bnE04tpX4+cJa73594DRGRynD3GcDoROXPNbPuBkKlYWa7Eg561Hk874MJau4AfDRBXcmZu88GPp/DUr2Bi83sbDPrlcN6SZhZbzP7HnA1sG6ksusRZ9T9X2M0sxJvB0Ymqp277M76S9HPMElIAboUbug4zqOFQ/QOy5bB7LkhSJ/6UgjWS3ygtg73n79Ko537G+0cABwKPFR0P7ISGuNeFIXnIiJSGdmpjU+Tz9a7gcAfzexcMxuQw3pRmdl2wB3A53JY7m7grBzWERGpmj8lqjsIuNLM1klUPzdmdhjwT+odnkO6Z1Vnm9ngRLUlR+5+LXBBTsudRDhxvUVO60VjZjsAY4D/TVC+Y9R9d0L064H5kfp5rW+Y2aGJaucmu7P+euDDRfcirU0BupRCXUL0DgsXhdHuL0yBmbPDyPeSqV2A3qHRzrXAzoQ/j1MLbkdWpDHuRVB4LiIilePuE8n3s8XxwD1m9vYc1+wyM+tpZl8CxgO75bDkXOBId1+Sw1oiIlVzOemCkp2Aa6q4yQtefr36BuGE6KCi+ymBuxLVHQJcVvRoZ42Sj+aLwOM5rfU24D9m9hkza+S0ZpeZWR8z+zrhPfCuCZfqCNG79D7b3ecCV8Rt6WUN4M9m1tX73gtnZrsA44B9i+5FWp9emKQ06haiAyxbDnPmwQtT4cXpMH8BNIsPCF8E7i26iSI12lnaaOc8YBvg+0D1brFvRRrjnjeF5yIiUlnufgn5ncAB2A74l5n92sw2zHHdTjGzEYADPyXtfecrOs7d83qQKyJSKdnY5csSLvEOwp3F6yVcIzozG0q47/ybhMCn9tz9UWB6ovIHABcWEaKb2dDsOpmv5b12K8rC148AeW1cXAv4NeE0+s45rdlp2anr+4Azgb45LDkTeK4b//55sRpZif7A1Wb2roRrRGdmPczsJMJnmS2L7kfqQQG6lEodQ/QOixbD9JlhxPuM2bCkuPMZoxrtOucL0GhnVqOdrwHbA38suh9BY9zz8wBwiMJzERGpuC+Q5r7QVfkM8LiZnVamsblmtqOZ/Rm4k3xOnXc4J9vMICIir+9s0s5b2wu408zemHCNKMysVzYl5UFgn4LbKaPbEtb+ONBuZrmMyjezbczs14TT0p8D+uSxbh24+zjgyzkvuycw3sx+m22AKQUzG2FmNwPXEJ7v5mEWcLC7T+lqgex7mPLv+9rAtWb2mYRrRGNmbwH+RXi91M8KyY0CdCmdOofoAMuXw9x5MHkaTJkG8+bnfir9hlxXq4BGO0832jkS2IPw0FGKojHueXgA2K9xZrKd7SIiIrlw93nAu4GXcl56LeDbwDNm9m0z2zTn9V9mZu/IgvMHgA/kvPw/ga/kvKaISOW4+8PAXxMvsx3hupFPJV6nS8ysYWZHAPcQpqRoZPvKXZu4/sGEkdwfTzFSPRvLf4iZXQNMIGw87B17HQF3/yX5TmOCMC3iU4TNpBcUdSI9O6l8iJmNJjzH3S/H5ZcAR7j7QxFqnRWhxqr0An5tZldkd4qXTjah4leE14Y9iu5H6qdX0Q2IrMzQcZw3cRgAvyy4lUItXgIvzQon0gf0h0H9oU/6PVYK0F9Ho50xzcN5O/Ah4HvAFsV2VEMdY9zXLrqRltURnk8tuhEREZEY3P1JM/sA4T1u3p9/1wFOA/7HzK4GLgauS30XuJltAhwJfAIoapTm48AHdO+5iMgaOw04Akg5Qnst4Ldm9kHgFHd/IOFaayS7N/k9wOnALgW3UwXXEo4VpBxrvwnwB8L7l/OBy919RleLmVlfwunkdxOep20UpUtZE8cTNs+8Led1ewPHAMeY2e3ARcBf3D3plEMz25rwHvjTFPPMdjnwcXcfHaOYu99gZreQfgPAh4G9zOxrwCXuvjzxeqtlZpsBXweORZtspEAK0KW0FKK/otkMJ9HnzYfevWDgABjYH3rEnyExvtHOi9GrtpBsvP0fm4fzN+BLhA+5inPzNBP9jqeh8FxERFqSu99qZp8GLiyohd7A+7Ov2WZ2LTAKGO3uT3e3uJn1AXYF3gkcCoyg2PtipwIHufu0AnsQEakUd59gZucBJ+aw3IHAu8zsQuBH2Qn4XJnZxoRg5Fhg67zXryp3n5Sdqt03h+XeDJwL/MLM7gTuAO4FngCeBWa6+4KOX2xmaxHC8Y2AbYEdAAN2J9y5LDlz94Vm9h7g38A2BbWxZ/b1SzO7FfgHcCvwoLt3a8ZktjljOPAu4DDgrd3stbtOdPc/Ra55CnAXaTdXQdg4cxFwspmdAbS7+9LEa76KmfUkvD59lvD9TP3/WWS1FKBLqSlE/29LlsLM2TBrDvTvF8L0fvFOpY+KVqnFNdpZBPygeTgXAN8kvLjrhT0PHWPci3ws3HoUnouISEtz94vMbAjww4JbWZtwMuZIADN7njCS8D+EB9JPA1OA6cAiYDGv3PM3GNgAaAO2JJwo2oXwgLssD6ZnA4e4+xNFNyIiUkGnEa7b2DiHtXqQBdjZCcdfA9e6+5xUC5rZ5sDhhM1eB6Dn0l31B/IJ0Dv0AN6efb2KmeXYhnSFu08zs4OAMcCQAlvpQwhHD8z++wwzuxu4D3gMeAqYTNiIuYAwCr3j5PG6vLI544288h54F8pzH/ap7n5e7KLuPt7MziEc4srDWwhXijybTaD4Y8r39dkmiL0Igfn7gcKuvhJZGb1RkdJTiL5yzSbMXxC+evXMTqUPgJ7dO5WuAL2TGu1MBY5vHs4vgB8BhxTcUutbBswlDJ+TGBSei4hILbj7j8xsA+B/i+5lBZtmX4cX3UgEC4AD3H1c0Y2IiFSRu882s88A7TkvvV/2tdjMbgZuBBwYv+IJ487IThLuQDgdujshfH1znHZX6TrCPd6t7HLC86dS3lks5ZNdafRO4BbCZswyWA/YP/uqulPd/XsJ659G2Hj0xoRrvNbmhDvYzzKzBwiTA+4Axrr7lK4Wze5aHw4MI0yo2AcY1O1uV+2fwG45rCMtSAG6VIJC9FVbuiycSF/xVHr/vp0uM5cw0ke6oNHOw8ChzcN5F/Bj8vlgWF8zUYAeh8JzERGpFXf/WnZaqkwheitYABzm7l50IyIiVebu12Sj3I8rYPk+hPC5I4BeamYd01GeJpwOnUmYkNIRrK8L9AUGEiakvGGFr7xPhp6a9djSAXo2lvsXhHvjRdaIu99vZvsDt6GLEWNKHZ7j7vPM7OPA7RRzH/hO2RcAZvYcYXLWRMJ1DlN55XWhScgc1wIGEF4jtuCV14WNcuwb4BHgCMJrmEinKUCXylCIvmYWLAxfPXuGe9IHDggn1NfArY12Fidur+U12rmxeTi7EEahfZv83xjUw0xgMzTGvXsUnouISC1lIfoi4BtF99IiZhDGto8puhERkRZxEuG03PCC++hFGJW8XcF9rIkfuvv3zOyYohvJyU+BLwPrFN2IVIe732dmewE3UZ6T6FX2JXf/eR4Lubub2VeAX+Sx3mpsln2V3RPAu9x9pq6bkK7q3rBnkZwNHcd5wPFF91EFy5bB7Lnwwosw9SWYvzBsAVsFjW+PpNHO8kY7vyWM1vk2sLDgllpPxxh36SqF5yIiUmvufjrhc8XyonupuOeBvRWei4jE4+6LgPcBzxXdS0WcT80my7j7TCDpqVdpTe5+H7AH4eSwdM0S4Ni8wvMO7n4O8Js816yw54GD3F2vo9ItCtClchSid97CRTB9BkyaAjNnw5KlK/1l1+fcVstrtDO30c5IYBvgkqL7aTkzi26gshSei4iIAO5+HvBBYH7RvVTUvcDb3P3+ohsREWk17v48cAgwu+heSu7HwPHuvpozIy3pJ8DjRTch1ePujwMjgPFF91JBs4FD3f2CgtY/jnAfuby+J4C3Z3/ORbpFAbpUkkL0rlm+HObMg8lT4cXpMH8Bi4DFwJONdp4our9W1WjnuUY7RwG7E+6rkRhmstqxCvJfFJ6LiIiswN3/CryNcIefrLmrgHe4u37fREQSyTYoHYBC9Ncz0t1PqWl43jGp4Fj0ZES6wN0nAe8gvKeTNfMUIZi9sagG3H0Z8CHg1qJ6KLn7CNOxnim6EWkNCtClshSid8+ixTB9Jn2fn0yfeQN5pjmSg5oj9TMhpUY74xrt7AW8H7Rhods0xr2zFJ6LiIisRDbKchhQ2MOwClkGnAq8393nFd2MiEirc3cH3gVMK7qXElkCHO3u3y66kaK5++2EqwNFOs3d5xOeUY5E1xqtzihgmLs/UHQj2fftMHQS/bVuAPbKJriIRKGwTCotC9FPLrqPKlvehD4b81bgOuCp5kjOaI5k86L7amWNdv4K7Ah8BQ0i7x797q0pheciIiKr4O5TgYOA/yOExPLfngX2cffv1fW0n4hIEdx9LLAn4fRj3U0iBCR/KLqREvkmupZRusjdm9lmlHcBU4rup4SWA2cSxra/VHQzHbIQ/b1AUaPky+ZHwCHuroktEpUCdKm8oeM4m3AKQrqgR2/oPYh1s/86FDgdeKY5kmubI3l/cyS9C2yvZTXaWdxo5yfA1sDPgZXfTC+rpjHua0LhuYiIyBpw9+Xu/l3COMsJRfdTMhcBb3H3fxXdiIhIHbn7I4Rr4UYX3EqRbgZ2c/cxRTdSJiuMdL636F6kutz9FuDNaKT7ip4hbNj5Rvb3rFTcfYm7Hwt8lfpOEJgFfNDdv1rG75FUnwJ0aQlDx/E9FKJ3Sb/BQOO//nEDOBj4C/BscyQ/aI5k25xbq4VGOy812vkS8Cbg70X3Uzka4746Cs9FREQ6KXswvwvwQ3Qa/TngMHc/xt01+0dEpEDuPh3YHziLem0lX0wIiA5w98lFN1NG7j4HOIDwDECkS9x9qru/DzgKmFF0PwX7HbCzu99RdCOr4+4/AvYDXii6l5zdTvge/aXoRqR1KUCXlqEQvWv6bbDaX7IR4YPKhOZIRjdHclRzJP2SN1YzjXYebbRzBLAvML7ofipFj3Jfj8JzERGRLnL3he7+P4Qg/bai+ynAEuD7wPburvsVRURKwt2XufvXgb2BJ4vuJwd3Aru6+4/cva4nLNdIdh3NnoRQSaTL3P0SYFtCiFw3EwhXFn3a3WcV3cyacvd/EiYIXF50LzmYA3yJ8H16puhmpLUpQJeWohC98/oN6dQv3xu4GHihOZJfNEeyc5KmaqzRzmhgGHDM/7d351GX14V9xz+/mWGGGXYYQBgEQdzBFb0RSCSAS6K3safaqrU9jbGpoT1Wu6TQZLTJzVE0SNuctNYwiKi07lVx1xgtVP1SNZ66xA1NB9xxBUEY4PaP3wOyzMCz3Hu/v9+9r9c5808i937OmRmeh+d9v99f2md7cW9c47474jkATEAp5QtJTkt7NeqVddfMzNuTnFhKObuU8vPaYwC4u1LKZUkenvbDTvP4SLhrkrwgyamllC/WHtMXS7fFnJnk1bW30G+llGtKKc9PcnKSzp/CnoCfpj1A9oilGN07pZQfllKek+S3kuysvWdK3pbkYaWUP/OhKmZBQGfuiOjLt9e+yfrVnSU/MMm/SPK58fZcMd6e3x1vz34THbfAmktza3NpLk7ygCT/IYkfXN4T17jf1ZVJniieA8BklFLGpZS3Jnlw2h/mX1150rR8MMljSynPKKV4BjxAx5VSfl5KOTvtqcN5eSTcL9J+KOD4UsprBJKVK6XcVEo5K+2H/35Ye88y7Ury9dojuLtSyidLKaemjbLz+GGWG5P8xyTHLd10cWPtQWtVSnl3kockeUnm5yemn0z7gapnllKuqj2GxSGgM5dE9OVZxvXty/HYJK9J8t3x9lw43p7HT+RVSXNprm8uzR+lvTbpojhnvWeucb/NlUlOa0bxXDgAmLBSys2llNckuX+S5yX5m8qTJuGWJG9O8phSylNKKZ+uPQiAlSmlfLmU8vQkj0/7Yag++nmSP00bsc7u09XJXbX04b+HpNs/T7olycVJHrJ0bTgdtRRlT0zy9CSl8pxJuDbJK5McW0r5V6WUH9UeNEmllOtLKaMkx6b9UFJfD2f97yS/UUo5uQ/Po2f+bKg9AKbl6E/n3J0nJUleXnlKZ00ooN9mS9ofJD5vvD1fTLIjyRuaUW8+7dpZzaX5dpLnjYf5sySvSnJ65Und85MkRyVpag+p6rZ4Pq+n4gCgE0opNyW5aDAYvC7JE5P8s7SnctbX3LVC30n7XMsdnh0IMB9KKZ9K8pTBYPDIJC9K8qwkm+quulffSHvd+EWlFD8/mrCl56I/bzAYnJf2NOrfTzd+cnJd2rD/n0spi/KInN4rpYzT3nbxrsFgcHKS30v7Z2pj1WEr89UkF6T9Hnjuj+OUUq5JcvZgMHhlkt9N8s/T/gS1y3alvar9v4jm1CagM9dE9D1r1iWbDp7ayz8s7fU3rxhvzzvSxvSPNqPOfuK1F5pL87kkZ4yHGSY5L+3JdJJfXuO+uA8SEM8BYMaWfoj4oSQfGgwGRyR5dtpY8diqw/bs52l/6PmmJO8vpczjM3MBFl4p5XNJ/slgMPiXaePWP0ryq3VX3cnPkrwzyRuT/KVr2qevlPKlJM8aDAYvSfJP0/6ZOLzClE+m/X1/YynlZxXenwkppXwiyScGg8GL037/+w+T/ErdVXt0279zdiS5fOl7+IWydML+3KWQfkaS5yb5e0n2qTrszj6d9r9T3lBK+X7tMZAI6CwAEX33Nh2cNNM/I7Mx7TdRz0ryjfH2XJjkdc0o3576O8+x5tJcOh7m/Wk/6fnSJIdUntQNP8miBnTxnEXy7SSPmvBr7pzw663Gr2ayJ1cX/evstZn8n5OuuSTJxyb4enN1ZWENpZTvJDk/yfmDweC4JH8nyW8meULqnsq5Ksn7l359sJRyQ8UtXfMPkmye4Ot9c4Kv1XcvSfKfJvh635rga/WBf8evzX9LG0om5QcTfK2ZWroG/YIkFwwGg2PTfm16UpJfz2T//bcc30x7vfwHknxgis8Zfncm933g3H3NLKV8Ncm/HQwG5yR5cpKnJfmNJMdM6S1vTPLxtN+HvLuU8o0pvc9KTPrr/0I/u33phPOfJ/nzwWBwv7S3Mj019b8HvjrJe5P8zyQfLaXsqrilM5Y+sPThJB8eDAZnpf13wFPSfm04csZzbkxyWdqvC++c8m0Uk/yZy0L/nV80XbiyBWZi50k5OyL67Q58cLLfsVXe+pa038DsSPK+ZpRbqqyYE+NhDkzyh0lemGSvynPq2pDkhNojZk48B4AOGwwGW9Kexjl16dcjkxw6pbe7JcmXk1yR9nmBl5dSvjKl9wKgpwaDwaYkpyz9etTSr/tN8C2uT/LFtF+PPpXkU6UUwaHDBoPB8Wlv0HlskkckOS7J0UnWreBlfpLkK2mvyP5s2udk/3Up5ReTXUsfDAaDfZI8Pm24PDXJo5McOKW3uzntn7uS5H8lucyjAVZuMBickPYDVo9J+/v1kEz2AO7VST6T9vfpiiSfLKVcP8HXh4kT0FkoIvov3efUZK/6p3W/neS1SS5qRunCp1B7azzMcUlemfb6ncV1fJJ9a4+YGfEcAHpo6br3E5M8IMmxaaPFEWlvFTokyQHZ/Qcjr03y0yTfT/LDtDdo/O3Sry8m+dIUT/QBMMcGg8FBSR6UNpred+nXYUm2pP2v7L3Sfn267ZnBP0t7Qvv7Sb6T9qT+lUm+Vkq5aqbjmYrBYLBX2j8DW5MclPb3/7aWME77Pckv0v4Z+F4p5ec1dtIfg8Hg6CQPT/vTu2OXfh2eO38PfNdedW2SW9P+efteku+m/Xnyt9NG8y8m+bIT5pO39GGrh6b9unB02menH5Nk77Qfhtgrv7wC/rq0H2S4Pu1/p9z2deGqtL9PXyulXDvL/TAJAjoLR0RP1m9Kjjy99oo7GSf5y7RXi72rGcUP/lZpPMypaa8P7eqzN6dra9pv5+afeA4Ac24wGKxPsrcfSAMAsCgGg8HeSW4updxcewuw2AR0FtKiR/R9jkoOPrH2ij36YZKLk1zYjPKl2mP6aDxMk+TZaf+MH115zmwtxjXu4jkAAAAAAEyJgM7CWuSIfsgjky1H1F6xLJ9Ieyr9rc0oTt6s0HiYzUlenOScLNLF5vN9jbt4DgAAAAAAUySgs9AWMqI3ybYzknW7e6pid12b5L8nuaAZ5TO1x/TNeJjDk/xxkt9Jsr7ynOmb32vcxXMAAAAAAJgyAZ2Ft2gRfeMByeEn116xJp9LsiPJJc0oP6k9pk/Gw5yY5LwkT6q9Zarm8xp38RwAAAAAAGZAQIckO0/Ky9Jecz339j8+OeABtVdMxA1J3pb2ivfLm1HGlff0xniYp6QN6Q+rvWVq5vuHyAMAABVmSURBVOsad/EcAAAAAABmRECHJTtPyrlJ/l3tHdN22K8kmw6qvWLivpo2pL++GeX7tcf0wXiYDUmen/Zq90Mrz5m8+bnGXTwHAAAAAIAZEtDhDuY9oq/bkGw7M/P8N39Xknenjekfbka5tfKezhsPs3/a2xdelGTvynMmZz6ucRfPAQAAAABgxuY3o8EqzXNE33x4svXRtVfMzM4kFya5qBnlqtpjum48zP2SvDzJsypPmZx+X+MungMAAAAAQAUCOuzGvEb0g05I9r1v7RUzd2uSD6Y9lf6eZpRdlfd02niYQZLzk5xce8ua9fcad/EcAAAAAAAqEdBhD+Yxoh9xWrJhc+0VVX0vycVJLmhG+XrtMV01HqZJ8swk5yY5tvKc1evnNe7fSnJyM8rO2kMAAAAAAGARCehwD+Ypom/YJzni12qv6JSPJ9mR5G3NKL+oPaaLxsNsSvLCJH+Q5IDKc1anX9e4fyvtyXMf7gAAAAAAgEoEdLgX8xLR9zsmOfChtVd00o+TXJL2VPr/rT2mi8bDHJrkpUlekGR95Tkr059r3MVzAAAAAADoAAEdlmEeIvrWxySbD6u9ovP+T9pnpb+pGeXa2mO6ZjzMg5Ocl+SptbcsWz+ucRfPAQAAAACgIwR0WKY+R/RmXbLtzKTp19nhmq5L8pa0p9I/VXtM14yHOTPJq5I8vPaWZen2Ne7iOQAAAAAAdIiADivQ14i+9yHJoY+rvaK3vpD2WelvaEb5Ue0xXTEeZl2S307yJ0nuU3nOPTs0ybbaI3ZLPAcAAAAAgI4R0GGF+hjRD3xQst9xtVf03k1J3p42pv9VM8q48p5OGA+zb9q/D/86yebKc3ZvryQPqz3ibsRzAAAAAADoIAEdVqFvEf0+pyZ77Vd7xVy5Mslrk7y2GeW7tcd0wXiYo5K8LMlz08WvLQ9Isk/tEbcTzwEAAAAAoKO6FzmgJ/oS0ddvSo48vfaKuXVLkvckuTDJ+5pRbqm8p7rxMCelfT76r9XecifducZdPAcAAAAAgA4T0GEN+hDR99mWHPzw2isWwreSXJT2VPo3a4+pbTzM303yyiTH196SpCvXuIvnAAAAAADQcQI6rFHXI/ohj0i2HFl7xUIZJ/lI2melv7MZ5abKe6oZD7MxyVlJXpLkoMpzal/jLp4DAAAAAEAPCOgwATtPyiuS/H7tHXfTJNtOT9ZtrD1kYV2T5PVJdjSj/E3tMbWMhzk4bUQ/K+1Z8DrqXeMungMAAAAAQE8I6DABO09Kk+S/JnlB7S13tHH/5PBTaq9gyeVpn5X+lmaU62uPqWE8zAPSXuv+9CoD6lzjLp4DAAAAAECPCOgwIV2M6PvfPznggbVXcBfXJnljkgubUT5Te0wN42GekOT8JI+e+ZvP9hp38RwAAAAAAHpGQIcJ6lpEP2yQbDq49gruwV+nfVb6Jc0oP609ZpbGw6xL8twkL8ssL1af3TXu4jkAAAAAAPSQgA4T1pWI3mxItp2ZNP6W98ENSd6a9lnpl9UeM0vjYbYk+TdJfj+zOBs+m2vcxXMAAAAAAOgpaQ2moAsRffNhydbH1Hp31uArSS5I8oZmlO/XHjMr42GOSPInSX470/7aNN1r3MVzAAAAAADoMQEdpqR2RD/oYcm+R9d4ZyZkV5J3pY3pH2lGubXynpkYD/OIJK9KcsbU3mR617hfk+TkZpSvTeXVAQAAAACAqRPQYYpqRvQjnpBs2DLrd2VKdqZ9VvrrmlGuqj1mFsbDPC3JeUkeNPEXn8417tckOb0Z5fMTf2UAAAAAAGBmBHSYshoRfcOWNqAzd25N8v60Mf29zSi7Ku+ZqvEwG9L+vXlpkq0TffHJXuMungMAAAAAwJwQ0GEGZh3R9z26vcKdufa9JBcluXDen7c9HubAJH+Q5IVJNk7kRSd3jbt4DgAAAAAAc0RAhxmZZUTf+phk82HTfhc65GNpn5X+jmaUX1TeMjXjYY5Lcm6SZ675xSZzjbt4DgAAAAAAc0ZAhxmaRURvmmTbE5Nm/bTegQ77cZI3JrlgnqPueJhTkpyf5HFreqEHJtmy6n9aPAcAAAAAgDkkoMOMTTuibzo4OWwwjVemZ65Ieyr9zc0o19YeM2njYZokz07ysiTHrOpFDkty5Kr+SfEcAAAAAADmlIAOFUwzoh/wwGT/+0/6Vemx65K8Oe2p9FJ7zKSNh9mc5EVJzkmy34r+4Y1JHrritxTPAQAAAABgjgnoUMm0IvrhpyQb95/kKzJHvpD2VPobm1F+VHvMJI2HOTzJHyV5fpLlP8BgZde4i+cAAAAAADDnBHSoaNIRfd3GZNsZk3gl5tyNSd6eZEeSjzWjjCvvmZjxMCckOS/Jk5f1Dyz/GnfxHAAAAAAAFoCADpVNMqJvOTI55BFr38RCuTJtSH9dM8p3a4+ZlPEwT04b0k+4x//h8q5xF88BAAAAAGBBCOjQAUsR/S/SXj+9agc/PNln22Q2sXBuTvLetFe8f6AZ5ZbKe9ZsPMyGJL+T5I/TnjXfvXu+xl08BwAAAACABSKgQ0fsPCnrk7w+yXNW+xpHnp6s3zS5TSysq5O8LsmOZpT/V3nLmo2H2S/JOUlenGTvu/0P9nyNu3gOAAAAAAALRkCHDllLRN9rv+Q+p05+EwttnOQjaU+lv6sZ5abKe9ZkPMwxSV6e5Nl3+n/s/hp38RwAAAAAABaQgA4ds9qIvt9xyYEPms4mSPKDJG9IckEzypdrj1mL8TCPS3J+klNu/z/e+Rp38RwAAAAAABaUgA4dtJqIftjjkk2HTG8T3MHlSXYkeWszyvW1x6zGeJgmyTOSvCLJsXe4xl08BwAAAACABSagQ0etJKI365NtZybNuunvgjv4WZJL0j4r/bO1x6zGeJiNSV6YjXlJHpJxmpwqngMAAAAAwOIS0KHDlhvRNx+abD1pNptgDz6b9lT6Jc0oP6s9ZqXGw2zNUTmqeXU+V3sLAAAAAABQj4AOHbeciH7QQ5N9j5ndJrgHNyR5S9pT6ZfXHgMAAAAAALASAjr0wL1F9CN+Ldmwz2w3wTJ8Oe2p9IubUa6pPQYAAAAAAODeCOjQE3uK6Bs2J0ecVmUSLNeuJO9MG9M/0oxya+U9AAAAAAAAuyWgQ4/sLqLve9/koBPqbYIV+tskr01yUTPK1ZW3AAAAAAAA3ImADj1z14i+9dHJ5sPrboJVuDXJ+5JcmOQ9zSg3V94DAAAAAAAgoEMf3R7RmzznqCfm5mZ9NtTeBGvwvbSn0l/bjPL12mMAAAAAAIDFJaBDT+08Kes33yf/Y+uj8szaW2CCPpr2VPrbm1FurD0GAAAAAABYLAI69Nh4+92fiQ5z4sdp/2xf2Izy+dpjAAAAAACAxSCgQ8+J6CyAkuSCJG9uRrmu9hgAAAAAAGB+CegwB0R0FsR1Sd6U5IJmlCtqjwEAAAAAAOaPgA5zQkRnwXw+7an0S5pRflR7DAAAAAAAMB8EdJgjIjoL6MYkb0uyI8nHm1HGlfcAAAAAAAA9JqDDnBlvz15J3p5kWHsLzNiVaU+lX9yM8t3aYwAAAAAAgP5ZV3sAMFnNKLuSPCPJpbW3wIzdP8m/T3JM7SEAAAAAAEA/OYEOc2q8PRvTXm3tJDqL4rokZzajlNpDAAAAAACAfnICHeZUM8pNcRKdxXFDkt8SzwEAAAAAgLVwAh3mnJPoLIAbkjytGeWjtYcAAAAAAAD9JqDDAhDRmWPiOQAAAAAAMDECOiwIEZ05JJ4DAAAAAAATJaDDAhHRmSPiOQAAAAAAMHECOiwYEZ05IJ4DAAAAAABTIaDDAhLR6THxHAAAAAAAmBoBHRaUiE4PiecAAAAAAMBUCeiwwER0ekQ8BwAAAAAApk5AhwUnotMD4jkAAAAAADATAjogotNl4jkAAAAAADAzAjqQRESnk8RzAAAAAABgpgR04HYiOh0ingMAAAAAADMnoAN3shTR35HkqbW3sLDEcwAAAAAAoAoBHbib8fZsSfKeJL9eewsLRzwHAAAAAACqEdCB3RLRqUA8BwAAAAAAqhLQgT0S0ZmhXUl+sxnlI7WHAAAAAAAAi2td7QFAdzWjXJ/kaUn+qvYW5tquJM8QzwEAAAAAgNqcQAfulZPoTNFt8fzdtYcAAAAAAAAI6MCyiOhMgXgOAAAAAAB0ioAOLJuIzgSJ5wAAAAAAQOcI6MCKiOhMgHgOAAAAAAB0koAOrJiIzhqI5wAAAAAAQGcJ6MCqiOisgngOAAAAAAB0moAOrJqIzgqI5wAAAAAAQOcJ6MCaiOgsg3gOAAAAAAD0goAOrJmIzj0QzwEAAAAAgN4Q0IGJENHZDfEcAAAAAADoFQEdmBgRnTsQzwEAAAAAgN4R0IGJEtGJeA4AAAAAAPSUgA5M3FJE/1CSU2pvYebEcwAAAAAAoLcEdGAqxttzQNqI/rjaW5gZ8RwAAAAAAOg1AR2YGhF9oYjnAAAAAABA762rPQCYX80oP03ypCRX1N7CVN2a5DniOQAAAAAA0HcCOjBVIvrcuzXJP25GeVvtIQAAAAAAAGvlCndgJlznPpdui+eX1B4CAAAAAAAwCQI6MDMi+lwRzwEAAAAAgLkjoAMzJaLPBfEcAAAAAACYSwI6MHMieq+J5wAAAAAAwNwS0IEqRPReEs8BAAAAAIC5JqAD1YjovSKeAwAAAAAAc09AB6oS0XtBPAcAAAAAABaCgA5UJ6J3mngOAAAAAAAsDAEd6AQRvZPEcwAAAAAAYKEI6EBniOidIp4DAAAAAAALR0AHOkVE7wTxHAAAAAAAWEgCOtA5InpV4jkAAAAAALCwBHSgk5Yi+mVJTqy9ZYGI5wAAAAAAwEJbV3sAwO40o/w0yRlJvlB7y4IQzwEAAAAAgIXnBDrQaePtOTTJR5OcUHvLHBPPAQAAAAAA4gQ60HHNKD9IcnqcRJ+m3xPPAQAAAAAABHSgB0T0qTqrGeUvao8AAAAAAADoAle4A73hOveJO6sZ5dW1RwAAAAAAAHSFgA70iog+MeI5AAAAAADAXQjoQO+I6GsmngMAAAAAAOyGgA70koi+auI5AAAAAADAHgjoQG+J6CsmngMAAAAAANwDAR3oNRF92cRzAAAAAACAeyGgA70not8r8RwAAAAAAGAZBHRgLojoeySeAwAAAAAALJOADswNEf1uxHMAAAAAAIAVENCBuSKi3048BwAAAAAAWCEBHZg7Irp4DgAAAAAAsBoCOjCXFjiii+cAAAAAAACrJKADc2u8PUckuSzJ/WtvmRHxHAAAAAAAYA3W1R4AMC3NKN9JclqSKytPmQXxHAAAAAAAYI2cQAfm3nh7jkrysczvSXTxHAAAAAAAYAKcQAfmXjPK1Znfk+jniOcAAAAAAACT4QQ6sDDm8CT6Oc0o59YeAQAAAAAAMC8EdGChzFFEF88BAAAAAAAmTEAHFs4cRHTxHAAAAAAAYAoEdGAh9Tiii+cAAAAAAABTIqADC6uHEV08BwAAAAAAmCIBHVhoPYro4jkAAAAAAMCUCejAwutBRBfPAQAAAAAAZkBAB0inI7p4DgAAAAAAMCMCOsCSDkZ08RwAAAAAAGCGBHSAO+hQRBfPAQAAAAAAZkxAB7iLDkR08RwAAAAAAKACAR1gNypGdPEcAAAAAACgEgEdYA8qRHTxHAAAAAAAoCIBHeAejLfn+LQRfduU30o8BwAAAAAAqExAB7gXM4jo4jkAAAAAAEAHrKs9AKDrmlG+nuS0JN+awsv/oXgOAAAAAADQDU6gAyzTFE6iv6IZ5ewJvRYAAAAAAABrJKADrMAEI7p4DgAAAAAA0DECOsAKTSCii+cAAAAAAAAdJKADrMIaIrp4DgAAAAAA0FECOsAqrSKii+cAAAAAAAAdJqADrMEKIrp4DgAAAAAA0HECOsAaLSOii+cAAAAAAAA9IKADTMA9RHTxHAAAAAAAoCcEdIAJ2U1EF88BAAAAAAAAWEzj7Tl+vD1Xj7fn3NpbAAAAAAAAAKCq8fZsrb0BAAAAAAAAAAAAAAAAAAAAAAAAAAAAAAAAAAAAAAAAAAAAAAAAAAAAAAAAAAAAAAAAAAAAAAAAAAAAAAAAAAAAAAAAAAAAAAAAAAAAAAAAAAAAAAAAAAAAAAAAAAAAAAAAAAAAAAAAAAAAAAAAAAAAAAAAAAAAAAAAAAAAAAAAAAAAAAAAAAAAAAAAAAAAAAAAAAAAAAAAAAAAAAAAAAAAAAAAAAAAAAAAAAAAAAAAAAAAAAAAAAAAAAAAAAAAAAAAAAAAAAAAAAAAAAAAAAAAAAAAAAAAAAAAAAAAAAAAAAAAAAAAAAAAAAAAAAAAAAAAAAAAAAAAAAAAAAAAAAAAAAAAAAAAAAAAAAAAAAAAAAAAAAAAAAAAAAAAAAAAAAAAAAAAAAAAAAAAAAAAAAAAAAAAAAAAAAAAAAAAAAAAAAAAAAAAAAAAAAAAAAAAAAAAAAAAAAAAAAAAAAAAAAAAAAAAAAAAAAAAAAAAAAAAAAAAAAAAAAAAAAAAAAAAAAAAAAAAAAAAAAAAAAAAAAAAAAAAAAAAAAAAAAAAAAAAAAAAAAAAAAAAAAAAAAAAAAAAAAAAAAAAAAAAAAAAAAAAAAAAAAAAAAAAAAAAAAAAAAAAAAAAAAAAAAAAAAAAAAAAAAAAAAAAAAAAAAAAAAAAAAAAAAAAAAAAAAAAAAAAAAAAAAAAAAAAAAAAAAAAAAAAAAAAAAAAAAAAAAAAAAAAAAAAAAAAAAAAAAAAAAAAAAAAAAAAAAAAAAAAAAAAAAAAAAAAAAAAAAAAAAAAAAAAAAAAAAAAAAAAAAAAAAAAAAAAAAAAAAAAAAAAAAAAAAAAAAAAAAAAAAAAAAAAAAAAAAAAAAAAAAAAAAAAAAAAAAAAAAAAAAAAAAAAAAAAAAAAAAAAAAAAAAAAAAAAAAAAAAAAAAAAAAAAAAAAAAAAAAAAAAAAAAAAAAAAAAAAAAAAAAAAAAAAAAAAAAAAAAAAAAAAAAAAAAAAAAAAAAAAAAAAAAAAAAAAAAAAAAAAAAAAAAAAAAAAAAAAAAAAAAAAAAAAAAAAAAAAAAAAAAAAAAAAAAAAAAAAAAAAAAAAAAAAAAAAAAAAAAAAAAAAAAAAAAAAAAAAAAAAAAAAAAAAAAAAAAAAAAAAAAAAAAAAAAAAAAAAAAAAAAAAAAAAAAAAAAAAAAAAAAAAAAAAAAAAAAAAAAAAAAAAAAAAAAAAAAAAAAAAAAAAAAAAAAAAAAAAAAAAAAAAAAAAAAAAAAAAAAAAAAAAAAAAAAAAAAAAAAAAAAAAAAAAAAAAAAAAAACAnvj/OzAXO2tIOdAAAAAASUVORK5CYII=;clipPath=inset(12.14% 70% 15.05% 4.67%);fontSize=15;" vertex="1" parent="f95klg6fwESr5AWln45m-12">
          <mxGeometry x="233.31" y="47" width="104.37" height="103" as="geometry" />
        </mxCell>
        <mxCell id="f95klg6fwESr5AWln45m-19" value="Taskflow" style="swimlane;whiteSpace=wrap;html=1;rounded=1;strokeColor=default;align=center;verticalAlign=middle;fontFamily=Helvetica;fontSize=12;fontColor=default;startSize=23;fillColor=default;" vertex="1" parent="f95klg6fwESr5AWln45m-12">
          <mxGeometry x="42" y="213" width="487" height="272" as="geometry" />
        </mxCell>
        <mxCell id="f95klg6fwESr5AWln45m-22" style="edgeStyle=orthogonalEdgeStyle;shape=connector;curved=1;rounded=0;orthogonalLoop=1;jettySize=auto;html=1;entryX=0;entryY=0.5;entryDx=0;entryDy=0;labelBackgroundColor=default;strokeColor=default;strokeWidth=2;align=center;verticalAlign=middle;fontFamily=Helvetica;fontSize=12;fontColor=default;endArrow=classic;startSize=23;" edge="1" parent="f95klg6fwESr5AWln45m-19" source="f95klg6fwESr5AWln45m-16" target="f95klg6fwESr5AWln45m-21">
          <mxGeometry relative="1" as="geometry" />
        </mxCell>
        <mxCell id="f95klg6fwESr5AWln45m-16" value="STG Mass Ingestions" style="shape=process;whiteSpace=wrap;html=1;backgroundOutline=1;rounded=1;strokeColor=default;align=center;verticalAlign=middle;fontFamily=Helvetica;fontSize=12;fontColor=default;startSize=23;fillColor=default;" vertex="1" parent="f95klg6fwESr5AWln45m-19">
          <mxGeometry x="25" y="70" width="120" height="60" as="geometry" />
        </mxCell>
        <mxCell id="f95klg6fwESr5AWln45m-24" style="edgeStyle=orthogonalEdgeStyle;shape=connector;curved=1;rounded=0;orthogonalLoop=1;jettySize=auto;html=1;entryX=0;entryY=0.5;entryDx=0;entryDy=0;labelBackgroundColor=default;strokeColor=default;strokeWidth=2;align=center;verticalAlign=middle;fontFamily=Helvetica;fontSize=12;fontColor=default;endArrow=classic;startSize=23;" edge="1" parent="f95klg6fwESr5AWln45m-19" source="f95klg6fwESr5AWln45m-21" target="f95klg6fwESr5AWln45m-23">
          <mxGeometry relative="1" as="geometry" />
        </mxCell>
        <mxCell id="f95klg6fwESr5AWln45m-21" value="PSA Mapping Tasks" style="shape=process;whiteSpace=wrap;html=1;backgroundOutline=1;rounded=1;strokeColor=default;align=center;verticalAlign=middle;fontFamily=Helvetica;fontSize=12;fontColor=default;startSize=23;fillColor=default;" vertex="1" parent="f95klg6fwESr5AWln45m-19">
          <mxGeometry x="187" y="130" width="118.68" height="60" as="geometry" />
        </mxCell>
        <mxCell id="f95klg6fwESr5AWln45m-23" value="DWH Mapping Tasks" style="shape=process;whiteSpace=wrap;html=1;backgroundOutline=1;rounded=1;strokeColor=default;align=center;verticalAlign=middle;fontFamily=Helvetica;fontSize=12;fontColor=default;startSize=23;fillColor=default;" vertex="1" parent="f95klg6fwESr5AWln45m-19">
          <mxGeometry x="349" y="190" width="118.68" height="60" as="geometry" />
        </mxCell>
        <mxCell id="f95klg6fwESr5AWln45m-13" style="edgeStyle=orthogonalEdgeStyle;rounded=0;orthogonalLoop=1;jettySize=auto;html=1;entryX=0.92;entryY=0.5;entryDx=0;entryDy=0;entryPerimeter=0;fontFamily=Helvetica;fontSize=12;fontColor=default;startSize=23;curved=1;strokeWidth=2;" edge="1" parent="1" source="f95klg6fwESr5AWln45m-8" target="f95klg6fwESr5AWln45m-6">
          <mxGeometry relative="1" as="geometry" />
        </mxCell>
        <mxCell id="f95klg6fwESr5AWln45m-17" style="edgeStyle=orthogonalEdgeStyle;shape=connector;curved=1;rounded=0;orthogonalLoop=1;jettySize=auto;html=1;entryX=0;entryY=0.5;entryDx=0;entryDy=0;labelBackgroundColor=default;strokeColor=default;strokeWidth=2;align=center;verticalAlign=middle;fontFamily=Helvetica;fontSize=12;fontColor=default;endArrow=classic;startSize=23;" edge="1" parent="1" source="f95klg6fwESr5AWln45m-4" target="f95klg6fwESr5AWln45m-16">
          <mxGeometry relative="1" as="geometry" />
        </mxCell>
        <mxCell id="f95klg6fwESr5AWln45m-25" value="&lt;font style=&quot;font-size: 20px;&quot;&gt;Snowflake&lt;/font&gt;" style="swimlane;whiteSpace=wrap;html=1;rounded=1;strokeColor=default;align=center;verticalAlign=middle;fontFamily=Helvetica;fontSize=12;fontColor=default;startSize=23;fillColor=default;" vertex="1" parent="1">
          <mxGeometry x="1023" y="-14" width="605" height="527" as="geometry" />
        </mxCell>
        <mxCell id="f95klg6fwESr5AWln45m-28" style="edgeStyle=orthogonalEdgeStyle;shape=connector;curved=1;rounded=0;orthogonalLoop=1;jettySize=auto;html=1;entryX=0.5;entryY=0;entryDx=0;entryDy=0;labelBackgroundColor=default;strokeColor=default;strokeWidth=2;align=center;verticalAlign=middle;fontFamily=Helvetica;fontSize=12;fontColor=default;endArrow=classic;startSize=23;exitX=0.5;exitY=1;exitDx=0;exitDy=0;" edge="1" parent="f95klg6fwESr5AWln45m-25" source="f95klg6fwESr5AWln45m-9" target="f95klg6fwESr5AWln45m-27">
          <mxGeometry relative="1" as="geometry" />
        </mxCell>
        <mxCell id="f95klg6fwESr5AWln45m-9" value="" style="shape=image;verticalLabelPosition=bottom;labelBackgroundColor=default;verticalAlign=top;aspect=fixed;imageAspect=0;image=data:image/png,iVBORw0KGgoAAAANSUhEUgAABlkAAAFwCAMAAAAMtO2UAAAAAXNSR0IB2cksfwAAAAlwSFlzAAALEwAACxMBAJqcGAAAAwBQTFRFAAAAKbXoKbXoKbXoKbXoKbXoKbXoKbXoKbXoKbXoKbXoKbXoKbXoKbXoKbXoKbXoKbXoKbXoKbXoKbXoKbXoKbXoKbXoKbXoKbXoKbXoKbXoKbXoKbXoKbXoKbXoKbXoKbXoKbXoKbXoKbXoKbXoKbXoKbXoKbXoKbXoKbXoKbXoKbXoKbXoKbXoKbXoKbXoKbXoKbXoKbXoKbXoKbXoKbXoKbXoKbXoKbXoKbXoKbXoKbXoKbXoKbXoKbXoKbXoKbXoKbXoKbXoKbXoKbXoKbXoKbXoKbXoKbXoKbXoKbXoKbXoKbXoKbXoKbXoKbXoKbXoKbXoKbXoKbXoKbXoKbXoKbXoKbXoKbXoKbXoKbXoKbXoKbXoKbXoKbXoKbXoKbXoKbXoKbXoKbXoKbXoKbXoKbXoKbXoKbXoKbXoKbXoKbXoKbXoKbXoKbXoKbXoKbXoKbXoKbXoKbXoKbXoKbXoKbXoKbXoKbXoKbXoKbXoKbXoKbXoKbXoKbXoKbXoKbXoKbXoKbXoKbXoKbXoKbXoKbXoKbXoKbXoKbXoKbXoKbXoKbXoKbXoKbXoKbXoKbXoKbXoKbXoKbXoKbXoKbXoKbXoKbXoKbXoKbXoKbXoKbXoKbXoKbXoKbXoKbXoKbXoKbXoKbXoKbXoKbXoKbXoKbXoKbXoKbXoKbXoKbXoKbXoKbXoKbXoKbXoKbXoKbXoKbXoKbXoKbXoKbXoKbXoKbXoKbXoKbXoKbXoKbXoKbXoKbXoKbXoKbXoKbXoKbXoKbXoKbXoKbXoKbXoKbXoKbXoKbXoKbXoKbXoKbXoKbXoKbXoKbXoKbXoKbXoKbXoKbXoKbXoKbXoKbXoKbXoKbXoKbXoKbXoKbXoKbXoKbXoKbXoKbXoKbXoKbXoKbXoKbXoKbXoKbXoKbXoKbXoKbXoKbXoKbXoKbXoKbXoKbXoKbXoKbXoKbXoKbXoKbXoKbXoKbXoKbXoKbXoKbXoKbXoKbXoKbXoKbXoKbXoKbXoKbXoKbXoKbXoKbXo2Wr3dQAAAQB0Uk5TAC5nn9f+4KduNRJNg73y9cKJURUxk+j/8Zw4C2bExmkOMLe+Ogl47e98B4v8lT3fQNoGkI9jbBnQFnuAI+IghyTn428T3hAz+wG/BdsDW3IN7uUM64JzdnHz6gLmSkLZnSX9004YoIVDNMuvWNR09G2MlC8nETsmfclhLH4KcM+pRg93pjxdHPZJUpG1IcArIt021Sjs5FMdzD60alyX+oYIMtH3ROFQmQR6P39fS6q2lmuYFNjwT7h5dcdgoynBmrKwKrtIN7Ot+NIew1oaoVWoF4TOyB+xOYGKm7xojYjFZc0tG5Ks3EWkyky6Yun51o65q6KlR1RWV1meQWRernKp6A0AAFV6SURBVHic7Z15gJ3T+cdfRmKr0AZvKkXGOtYZMiQMY0lcMrZsKAkhiGUstROSWFqCihBSS5FUJK3MoMqkKpaGau1FSa0/raWWoqqqrdLf3Htnufe+zznnOec85953Jt/PH22nee9zlnvf8z3L8zwnilLCcstXrdAnS98VV1pZxuQqq35jtX5Zk6uv8c1v9ZexCQAAoGew5lprx4UM+PY6viYHfmfdIpPxeusPEqgpAACAnkD1BnGSDTfyMbnxJpsmTdZstrFUlQEAAKSYzbfYkhCWOO6z1UBnm1v3JU3GtXWCFQcAAJBO1tyGFoF2+jqet2w7uI/KZJ/6bWWrDwAAIG1sp9SVLNu7mBwyVGdy6A7STQAAAJAmdtQKSxw32JvcaWe9ydpG+WYAAABIC7sYhCWOd7E1uetuJpO7Q1oAAKDXspJRWOJ4mJ3J4YYVS5Y9MmGaAwAAoNLsuRdDWfayOsYf0cQwGW8QqkUAAAAqyt77cFQg3mdfC5vfYZmM9wvWKAAAABVkf54KxCvxTY4cxTM5evNwzQIAAFApxtQwlWUsP3L+AKbJ+MCADQMAAFAhDuKqQPxdrskxB3NNHoKASQAA6HWMG89Wlj1GMG1yfM06wEkLAAD0Og7lq0B8GNPmBL7J1YI2DgAAQAU43EJZ1uKZPMLC5MQxYZsHAACg7OxhIQNH8kwyXY7zHBW2eQAAAMrN0TYqEI9k2ZxkY/KYwA0EAABQZo61UpbjWDaPtzHZHLiBAAAAyszyVspyAssmM0wyz4mBGwgAAKDMWDgIt3MSy+bJNiZrAjcQAABAmfmelbKcwrLJjpPMEbiBAAAAysz2VipwKsvmACubSKUPAAC9C7s1C09Z7NYsUBYAAOhdQFkAAADIEmI3rB+UBQAAlmFwzgIAAEAWrFkAAADIgnMWAAAAsmDNAgAAQBasWQAAAMgCZQEAACALfMMAAADIAmUBAAAgC3bDAAAAyII1CwAAAFmwZgEAACAL4lkAAADIgjULAAAAWaAsAAAAZIGyAAAAkAXKAgAAQBac4AMAACAZctpGp5/h8sEeGs8y5LQzz3JqLwAAADNnnd28T36MPvmcwyePtPx0z1uznHteYXvHWH4aAACAgSlTp5UM1OdfYGWghynLhRedWPLx7//Aqr0AAAC0ZA7YlBiqj7zYwkSP2g27ZK3phIF1L7VoLwAAAB2TxyoG630uY9voQcqyyuUqEz+8gt1eAAAAas5YQzNcz7iSaaXnKMv2ozRGJjONAAAAUDPzKu14vWX9QJaZnhLPcvUsvZUGlhUAAABqrrnWNGLP/hHHTs9Ys6xyuNHMWqyqAQAAUHHdeMaYff0NZkM9wTdsynkci5ux6gYAAIBm4Aq8UfvG002WeoCy/Ni4PMtzE6tyAAAASG7mDtu3zJmrt5T6c5af3Mo1NO8sZu8BAABIcJvFwD1/gdZUys9ZVvmphaUj+T0IAACgiH1rrYZurQdyqtcsP5uq8zROcrtdPwLQG1iYpaW1pWXYwmrjwxvfMefOu36+/hFlqFdIqluampqahzVWuh69i7uthts43vIX9yhtpVlZVr3XylAct11o3ZcA9FiqF7U0lcwya1u0ewDjvtfW8eAvdypXLQNQ3dTZ3ipoixwj9rAccON4wH2q45b0Ksu5M6zM5PiVU4cC0OPILKqity5qNNvf193f/dy8744oX21lWVzDay6wo85+xI3j2Yoo9bSes1z3gJWRDk507VMAehJ1VZq3YLHqUzuMLnpui3LWWJDFxc2FtEjxC5cxN45vvY0ylk5lGbSFlYluHvTpWAB6BK2Gg1bVWPtQyXPfKmutpWisKW5FDTbEhNjdcdSNNyDG3VQqy/5UCmcWK3n2LQBpp87owFND7wNMLn1uvO1tTqmgqbQZzZWuUS/hCNdRt52HE/cwpjBS8rK+Vp8v4tcCHQxAeskkBlaCqeRH90k8d3eZKy9BY7K5WLSIcIL7uBvH15Yet6RuzTJkidWnS9hdpo8BSCd1NeaXII6nUR99JPncauWuvgBTk82ghRRYsovPyBvHj84sspa2NcuP7RzLEsDvGPRi6p1eqjw/Sj42quwN8IeYeU6qdJ16BzqvEA7ztijcEkuX1/FvSu9etsaYKA2AHgv73a8jPrw88dygcrfAHyIYYUal69Q78NotyjHqpO7oljTthq25odUHSR4T728AUgJ/UkkpCzWJPLrsbfAGyhKK37oPu13svqjTWnp2w4ab72BhsE6ILgcgBQzmvwZUlhcoC9DyO+dRt5DfdvhTpGbNcrddijAV5sRJAPRIFpt//V1Qn1+JeG5IuRvhD5QlFCJT+zh+/JTccUtKzlnueMLqM2qeDNjzAFSOapZXWJ4llAEoC9DS4DzqltBvkygla5bjnrL6hI6wfQ9AhcjYJDinjlmwGwb0PO066CapXZAGZXnGKUUYzYTAnQ9AZbCZUNIjLdYsQMtM11GX4qlnrR7nKUub2VABFueSZg4P2/cAVAYi8lxJG53cBcoC9Mx2HXb9CbFmEeXiwH0PQEXg5HTpoK/Ci4VSFuyGgW4edh53vQlxgi9Jn+GB+x6ASmBxc8Yk1YVHWLMAPYc6D7zepH3N0hS46wGoCNwly4zB6uyMUBagZ9zOPoOvF2lfs/w+cNcDUAk0pywzGhbX1WlvKO4EygIM2MWgSBIiBl+QqwJ3PAAVYZLiBz/J5j5FnLMAA/uuIDkc25DyNQvpxg9AT4cOklxidy8J1izAxEayAzKfdJ+zPBe42wGoCAvIn7vtrSRQFmDk27JDMptUr1nang/c6wBUBHIzbLCtFSgLMJK5SnhUZpLqNQuO70HvhErs0tfaCpQFmDm9MuuCNK9ZXgjc5QBUhmrq525/poi8YYDBOhVZGKRYWdYaEbjHAagMVPp8+yUL1iyAxXLjpcdmBun1Oj4wcHcDUCmoY5bF9magLIDFDn+QHp3NpHXNcvChgTsbgIoxjfjFs2Iji4GyAB7b3re69AhtIqXK8qKdYz8APQniFz/UwQyUBXB5aanwEG0iRBZ9b9Y+KHA3A1BBqAP8Bgc7OMEHfB48Xnqc1pJGr+PNAncxABWFynPskm0CaxZgw4Hl3HtKn7I8tFzg/gWgslC3STocs0BZgB39D5cerdWkTVlm/yhw5wJQaQhlcfA5hrIAa/54jviQrSBdXsfTX54buGcBqDhSQymUpZeysKWpw32wqXmY4kJRV44qU/bjVK1ZTu0v24kApBFiKLXOGZYFytIbqasqSYRdWy/qKbvv3deKjNYGUuR1vGSmZP8BkFaIodTFNQy+Yb2QOvKy0WbRhcsZr3gO1RxSs2a5fqFk3wGQXojLWRwi8LFm6X00NqvGx3oXFw8lQ171GKp5pERZTlxVst8ASDPEC+B0xR2UpZdR1znnqFmSvbK6rq6hoatzpsmet1zzmsjArSYVu2FjXx8n2msApBniFYCyFLFsKktnotLBhb+GzOKO/bEa4aP8y3YXGr5p0uAb9sZI2S4DINUQ7wCUpYhlUlk6hGVS4ry+4+xFWlrmviA2hBNUfjfsxdNk+wuAlEO8BU7eP1CW3kT+BmtaPqZq/s2D09eQG8dLqfSaZcDdwp0FQNoh3gMnO1CWXkRj7oxlmuKgPn8CUyt6jJ/l6WBXt1T2nGXiT1eR7ioA0g7xJjjZgddxLyK349WklI7qnLQ4hT1pGfN/kgN6ARXdDXtzTfGOAiD1EK+Ckx2sWXoPuUOWGs2aJJ/G1Ok8Ts/MpXIjegEVXLPMP0G+lwBIP8TL4GQHytJ7qM02W6sbLdknmkKUfWyIhC8VO2dZfTOkCAPLJsTr4GQHytJryC1ZqvL/u6Glk9aFhYuY3H5ZgEVLFI37026SY3uOCq1ZJr6KFGFgWYV4IZzsQFl6DbkElB0OgkU9Ma2165ncftiSMOUPnOM9ppdQmTXLjQ+G6R8AegDEG+FkB8rSW8jdMtqxZCn9eXSf6ucWLeLuYR08U+U5qJdQiRP8E48N1DkA9ASId8LJDpSlt5C7saczWqW0M7o8kRdl/3LKMMfi3A28hvUSyr9mGT85WNcA0BMg3gonO/A67i1ku6C2849Eb3T6GmeyfwTaDstx7Il+Y3sh5V6z9DsJB/dgGYd4L5zsYM3SW8i2uarwj7iqIUvOYyyu6fyX7GlMLW1BiMljhQb6cq9Z3jgjaL8A0AMgXgwnO1CWXkLubL7rqD7XAx2XiuSz6nc6hOUcjzcPWpVBa02UGerL6ht2ziNBOwWAHgHxajjZgbL0EnIpw7ouqIoL/lqY+6PzbCX315OBK7Pnn0UG+zLuhl27XeAuAaBHQLwcTnagLL2E3AF+V1LSXA8UKUvnmqUsyhJF+0nk169nFTVKoKQ5FwbuDwB6BsTb4WQHysIk09pS1dIinSlYjoain0CuB8jdsJxz8pllqNBJxLWnlnyDVdBs73KevSRwX5SJxoVZWlra/8Mp8XnvY0z/l65Z88ytj7vyiqMxd+BBvB9OdsqiLFOGX3fWaessvPqtXd8+w977ZuSapw00PRNaWTL1HVZrF0iazY4FQmMAoSzD2keY1pb8CX7fon8qh7JEZ7zjO+KfxCrHN6/MhucG7ojgNC4cVt80raRZ06qGLTR/1Miiqqaa2qZ6zpRq4aKWqqZ24rgm+19VLQsrOBG7btWz3/1Ln6IeGfvoFjedu6+E8Uxrc1NtU3NrqMAwIRqHZatZr8m5sbC+qRTiDUk801S1yNh0SlkEvY4z7x34/pHF1qd/8PDdZ07hGtj1jXuzH3pijn5aGVhZqgvm31X+P6fqhe2vYNFI0P79e76HhLIUsrjon8qiLFF01l3Er8uCy1il+BUy4cPAnRCYhcOaa5WNq6nyHPwWdNlu1s6Aqoc100vUaVWt5V8+7XnRX9WHb8efcunGnvaHdd0I3iJS3zBkuuKWmxQjS536l2PE2PSAa5Zrtv+1+uaOq77/EUfAftr9iV10z4VVlsVFhlX3n7BobK0qnVwWmq43zwUU6JVlUte/nJb9M6ksY47a7Ln1alef3vf+888+Su6C3ttmqRtrhuetdblHCaNWEmtq9Mh29b888uP42hU23Gr9q+XMasi0Vpm3HJtbzYZUtBTYUd4Z1z6B19ei1lffbHjmoxWNXu+fbLjJniPciyjMNOE1GASlcDZMx0bXl/aLHerrOnIEUpZVTnjYvP39t09XNWxz/b3w8ec0DwZVlsUllqvMHyHJLKpnTBLa1cXFeE5Zuu7WLbFZcCcLeYK/6rvFzzf/yKmBFOtvam6yglG8Ek5wLiC+Wexur2duL16a/+WAl6RMq2htZraypt5x2TC12AxlJcOsRZXTj9qWbS9el9kn8c7nuW7NFKcwSqu0VBerPSEtg7ldpWKatgIhlGVg62vcgIbH399aY2it4oc166+QylIqLHHsdNbCHgiymxj26Yhz8SzFXsfdFJhLKsu239kmWYWdDxzk0kiCVX6atM7jM14Bz7vaX1fsgOWRf9ySsL7l529JmSdorLdykGhyyW9dV2IkOZJUWySKc9Y3Nrt+ajWL2bL5ny4LlwUlZuRv0pMgUzqHTaw4S9vhgLbp4soy7jefr25Vvb9NVal+6S+7z3LKUgMqS1JYHGLYqxnbFsVF2L6HOZ+vYZ1/5WxMraury087C64Dyy2BCz/4xXy6BqOH+W5Hd7LmOXZt7+RfTPtrOFmfLXa31+mvKor4R6hs/I32qT8dtCVxmFsy8a2jTnt1VIXUlkUPWfdJvPuB7APfLhLbDqlctDSU1jJxK5PHGUsXuu9TWFnG3O5yS8cD9Ib6PqXPPaQsN5yyEMJCTAD0tDp9i5ZjQfYjzYV/5Fcq+TVv1z/ksrt0O4pFZ2hSSI6W8C3KcVniq2TQj+tGuLyD8Rq5FGGau5r7eZxxqHHQlSyqc1xlMQkLRfnmFrj8qJuD3A3UzqHXO/VJ/PF3LfNRJKf6DWFa5EfyyylRAYEli37RIqosGx/kmDKqz3OnJ61VJ59TzgGDKQspLPFUGxNuupLFSltyXdD5R+7juU9n+ub+d+d088LsH93n+TOv0pXfZ5KYA/pK9vGMb3BtT7GPwt9CLEXYImIrsYA5UuV0kWnRFqij3mp6PTVpoPsfq23XK53ofcwcueB+5z6Jx2+/rU1RydOJsFn43CB0o2TM8j5lyaI7aZFUlgMP8ajk57smzCUf+req6FDKopgd8qcpmRavgEGL8JncQNB5Tpr7cF6X8gLdefzamv2ja1djTWPlBksFEWaso1v4iQJOsbS8dCehRkU/Mk6VH5AqqgMfT9G4Zpi5gC6IsadzpuO4asrXQdxT97gX3WuTZbTNrRLESJPC8OlJyVqWrC+IdjigqYJcFv2b1C7GPP6xQ7HBU5OPbKYqPJCyqF4gtrIM8w5Eb+LO8XKbF527qbmPdowD+S3Xjp2M3LjUOXWdea25/Mdv35vbWANnbWjV8Ff4lldpszF8ldjdXg9ypsq85GdcPD1F+T8n8p3q+EUt8PtV14puiQ0c7J//dI2ZPr0yyfypMpMh2lgyHgZXFqk1y5MCVz61rV9kcsXkEz9XFR9GWZQzM+Ykx3nLoAjuHkauDzqORnL58zsHkanZP/JVzi1ZOt+E/rzp7wo/YHeYgYstNkvn2/gPbGfRnWdLtWbKN3gFHiRVYPvsQRMLxYS/bFEpS4bv5KiClxCOxR0SCerieTty509Er9SYP1VmqD38cq9ZhJTlpHkiFV2v8Ary55L//gtV+UGURb3kZ038PDbEi6nhnQPn9lYTLiDF5LSkc/V+PrcCn0nFZozc4hNmkX3WsTL8S25T7pRqyojJ3DX6lmK7JZ5rhQ6abWYqxdRJVWKa0GnLDu+ay+Lxt+N4JRL7TAHvaHWEmtGGOGfpSxefQ0RZqv2nUp3M6bZaaWVRCwvLtJPvjALeYDA0+6h2F7uqsPalTt0aHq+/h1MBBjt9xivxdjuzO/A6+/qNhJoRfXgrv/dmWR0Rq6G9SeyZxpM6WlmEpks1Ivn3bnMPw00wcTNWdAvlUxXyjlYXkl59ceI0qEf4hv1HopKdPNE1m6mwsmgOKTn7xL4b4sWwtqbzUqFxFc7thXUtuLRuYaVMf9ne85/mOM4W4Tu2Vo9geI/MWlWoCdGZdj6uB4gU6nFqXgJvWKeUJSNXCf8dsRENQjfMdfAoJx1yhjrTS1lm6UQwS0wsL6zOJhXoRiV/ZRmxi0AVCxjVOTRWVlk0rxDjxE5gQ7wEjkfNkuyDNaep/nlhbh+j0/vgT5YVmL2fR6qlIr4wbo0/bG/0GpO0DPiuSJrbdi4hfpla5j0vUKrcmB7z9m+Id2qB5M/aNUlSJ6s8KliZHPM5WROo7TCrKITwUAv4hNMRJT+WaIdYb2UZ80P/Gpbw47zlSipLRjOxHmremqoT2RAvxpAALlfrXOxKjSJFU37FMrTzz77WNVhP6j7fKYZftdIFUMc1+mjMm8Xi4R32gy73L1VqK6wDhrTInPFqYPyiNazpfy9PgsefNpdLbSKnK6SFCASkllVDfXurTbur6qssjb63Y1B8+bOs6QoqS0YzN2MIi9TRfTGM7fHq/BKXcv+5ML8919ZZ+/1cqnCK1JbYEE0ysbUdvYIHEs6Enby7q1DFoxv+4tBvo7w9t4WFhSMtwZXFK5vjpY8HqZI2o3oeakqWqpAWalVFjIYZT2nRC4tvPMtpjkH3BjbM5kCunLLohGWS+W0Q3bcoQJnHvJsOaalNLFs6EgF0/xr+ritJyc5f2Paliv+qwtt+N9zZ5mRFoP/OYqmbh9huhHXwLc9yq5mL4LYZOTiPGqUlvLJ4SMuivQJV6XDjni+14E5VWkrqt0J92xmvb7ivYTTyW7OsHGDXJ8cHmQoqi1ZYzJ/2d/dXUWOeaHZISzxtWIF77WkdF0sW/Bp26KMuRstqRB4eN264kTA/w+tSsjNOOThpctM5UlfZ/exX/Rx77UvPkhnnGzMGLyg4UK2ua1hiOKM1OYWUQVmcpWU/5tl9bVPzs6fu8sLlX777Gndz5c6fGcqmPK/SFNJCLW/b6H5e4Lxs6WsMFvdSlq1P5lVj7Ju//vzmV15+49XnfvgB892c9UzFlMVTWCwOOfvtfuKb680azezFLAxp6fqxTKtqaVnU2tLSfefgjO7fl9NmWJ5TxC4GO2tOcZ7l8XOO8DW58cWrFdf2tY+kUjZHR+lThOmY7VeyKfigbRLp7VU9VTdykPetFOCgLDMmNSyoy7OgYQnHgCH+SsFHjHnR9d98es3ir/7By1o4fol3mXJUUu2SvcTciyVE9ZTjVuPihhKIT5c+0jCVsfvnoyzHMr6m3W/+6gfF2xtvH7vS9xkuovOvqJCylENY5i99YfJhu3Z9aMqDl77+6YYsN0DGyavqeLyt0IPlDU5hCtbeTspLLIquXn+r1VbIRiXsc9fZN8iYvORPzx7/cbvF2X9o/sa/Jbyy8lzzmkeXWSRBIyDjE7qhZaXjo4PVPyvDqG6pLEuI4aauwWjExUPsxyajbQ/8XpFydMpRaxlP/jc0FE8tCtIT0kJldrE5ByI+7VQPD2U51PQNrX7j9xRbJyOqD3rNFI292/HJ/68MyhJcWEZf/p5i0v/S19R0owSGtDRSR3htDUULYrscXqUMFcuv31MYTmSxs+Eon8Kp77OTtsGGpUemQakt+om2jbLMWKza1sosNuy42CehP9SwFfbm19pl6r5H/dBg4F39zIkMaUnNLS1EimptrHwpxMed6uGuLD+Zrv96+t6n394+/RT7ANrwylKtCeYWEJZNX9HfkD7wprtMfcAJRWhsKHFgGVr65vsmCFgili64J7DtQb5xZTZJhkvRLVkGM0Y0pbbonWX5yjJJL27kTKcb2/yUhoHnF2eZTTwzR2/D4CGW6pAWagiyqRzxcad6OCvL21qvsL3evcC8Y7L5f2wzNgZXFp0PDmNINxzer3YCI8/HFXP0/nYMD7EsjYsbZsxo15ehM5Y0LEgOP/5pMS4Xu+Ik9VxsH/tTis/1UOqBeShzVG5ULIa1H2cqS8limC5fpy01dtP9l7Svx53Mk7ohv9A6l03WfpgKadFfCl8+mMEsaoiPO1XEVVkG6VwtJjavzCt9nOWtWKGVxVNYtO7GE5/j3ou++fraIHWmtOjh9beWtpME6tEDqHO8rrCILdzLJzfOc1j4ui4gly1aAzxlWcIbtRo11qxO8QfpAmIfYqaVzHLE/zSGtnxP+1lqppGSDC+Us4fVIRDxeaeKUMrCcNLcW3Pp9JaTruGXv+1Um+vCAiuLp7BoI8uftXJ7mqw7ZqwV2NMlvHPt2Vk/tesVPPhbiZ6Kj3GvgTJI0irFLhm8oH1HOMrSl7+VRWtbDpsFneaAcNTXFnbauUAzgVtd61yf4pAWaqpu9UMhPu9UEcc1y8Pq7+Tg7exqcM8DalulhFUWT2HRhUm/qEzmpWDQqxprzebPmxBKjXFkLz/Kf0b3Ndiwo3sdFDtZhhDoJMRs1ldZltjMcTSBefz5/ibqyjxrnY974Kfqo/xbdWEt1MlXOjK8UCmM26wsEAacauKmLKuqv983+dezdXIBexs7qLJ4Ckuj+uO7KW9Z1nDYfKU9r137PE9wu9zEb6UuPNHTWFXYvbUt5XHFkUvT436Fh2ozzD6CIrlq8FQW21Nr5aKevR/2lvJ0pOY3lpXJcbX6kh3tKjO1IS3UgZbdnZeEAaeaOCnLEEUWjTi+5T6XhLID65khtSGVRSMsbZxxQe0WNsMtGeKgZ9Ud4f0rdsxSQjB9E1PQsgCJ9SDzjhEvbnOPjEzgfkGv4hodF6lqLHUA1kqDSVmsF02aHTFma+beq6rMvY4TnP7KC6cn6u7yofYn0nBpsW8wS1RhZVGmr17b9WLbL3ih+QGVZbFGWDhfjTpM+hjn7O2XKetkip82ciCrv3lMELtYXgXxIov4Mei4TpPg0p5BzvWg4hNcI/MyxVPaNu2vyKAsDsLSnXyoFKZ/2Fqqyvx2oENlcvzsHyqb8zU20xrSQimeTTBLVFlloT6T4+/uEc9HnKMyWkg4ZdEckrBeIeUFjSf7xMi9rdy08j1qOZPT3WxufNBcogfklxNWWjKniHaQh08q6bCr1wQNRTql383SK4uTsKilhXX+fYGqMh6edyrpjvXJ3lJ6aTHjmmIThAWnqjgoy+mq6PnDxzlVIc9cjbdZF8GUxVdYMqrVRV+/BI4j11VVy3c/7GNGd1vwqtj1J0kUX05IadlfONWqx8EYucvqvvPSnVfONJprlcVRWJTSwlm0bK46FDnPsS4dKNNbatINpTOkhYyptZyEEBac6uKgLB8ovgcvYYmiMQxpCaUsvsKiDGbzu9woy1KFZcv4sgSe2UoSnHz2XN+mKlAeoweTlsusLnLm4DG/IO35bIYuzjvM9DXNTXTK4iwsSmlhaO/Lisp4h78vuoU2PEuzj53KkBbKRcL2vJkw4VQX+/tZVLfef+YnLCxpCaQs3sKi2gt7yH+03VcV0OV5YLimsbNtGd3q3VgKTfhpGGnZ8ynxrjHlONRAnskONX9OR/XihgZz1+mUxWfFTL9t5pnSdYq7vr7rUZcODlM0c3v1R8icwB5VyLQ2ta+Ta5sVF8Ly8A5miSq4ZpmiWJJ+5u8hNMYY7BxGWTTCMpQ3din8wq6XuIJxX9VJsru7UQ6/nJR0e/cUaG8J2rwGAaRliEV4FZtV3etDTlrKEpWnURY/r3d6gW+0+S5dF9+rb3LcRNsepc5gJBzSMqxr+7XWXbWpzC52wSxRBZXlGPo7uFXiFozrTPH4QZRFJyy8LSfFGeCRQpm1FN4rnqFZyuNQH56VumSrE8P9nOLScrYhz6oT13tUiFSWspwVq5XF5yLwSHVNrunyLIXPyQxnz8siFA4bW6k/QXWP62QvU3TyXu9oRSCYJaqcsiiWpGMvcSq9lDMN73UIZalXF8cUFsXx/Wypu0H2Vfjce44vf9X3tRv99heNbjFe/CwrLXfsEaJPdCfBRkhl8Vyu8lAqi7NjWidk1kTTz5l2k9xmkGddOhj3S7qt5yo/IRnSUrLn4XJnTRZqHLJ+PwgbTpWxVRZ6STr9j06FJ/k9/f12EkBZNGMXU1gUq/sBFtnTDOxAO3J5LlqetLjL0oIJl8o0OotRWESl5SzjDQZuvO9TKTJuvbLK4p8wnmyUPkTn32RVVmekzOcxhs50eb7yA1RIi6NbTSIWzm1DTCCYJaqYslxJdn/8I6eyKXahC+hAXlkEhEVxfcZtvE+zWJkuwnPRMlnb1+68JjXYM4RFTlqeOTxQd4y1zmdVSPqUxdN9IEuGzOekXQqdSNblX/516aSaDKaYeIXyA2IhLckBxE2hqARz9rMAwohLZWyV5XPy+3VdvRFsq42YFFcWAWFRRN/fzvw0j++SZfgmPZaNBizgH9wLr7WwhEVIWqa8MC9QXwzwqx6pLGVJUaVSFglZI882daPgb8iqKMcDF+62LILap3RKjUAMIC7LQtKL0H7jkjDiUBlbZWkkY4pmSbhAdRWhi1GTVhbN2MVO40qfsjwld1V8jr+TlfTdl5DLHlbC9PP8/a2ZwiIiLa3qzIS+PaG/RNQIqSyV9A3zPL7vgFq06CINyYiEWbIhVKR//yc7WLXB4QiKGkBcNropPyIHpSOsOFTGVlm2ovp+9UecSlbxLaqMDoSVRTN28c/iyFd/rLSPVH/Sbc43c/e4n2s624+d/+lZN7aw+EvLcqzUQk584jvDJ0/wy5KxXaEsMjtx5KJFPSz/hHq8j7Bj4BkDqFLmKJ+n3nyHuR7ZFQ6rUir0wWF3jrBibySyjJTsT25FXuRUsBpNJkBZZRERFnrJIu8W+gVZT+9tEcnMlCUs8fIXtBAWT2kZJJ2OoIAV1vTpgyx0EG453I5pZZFZstATfnWrllJVeVioKl3sT5XST5mYUiikhbxW136xIRLMElVozfINqg/mb+5UsJqXFLG2sayyZDSX1lt4D5IzjhAZhMj9ALeUt4WcRh+NSjD9APdtUith8ZKW120uNbXkFedadUH7h/jm9uFAK4vUEQ814Ve+djtsSTzdTzxV3d6kf9jFyuepHrL+ISryd1hvq1HHvS5e0IQZByt2yjKCdH51udVKj9o/TFBZMur7VKy+ENLMYxYGuDxCvV0SqYp2FLm5mGT0V451shQWd2k5KpywxtNc75Qogk6zZXV3vBuksth7sSqwmvBTOyvx/lJV6Ya80fCHysdFQloUV4ZaH6VRSx+Xl4Iw42DFTlkWUj3wV6ditQxSziLllEVKWMigr3ctDPAhfdAkznKHB9wO2sYpD5K1sDhKyzrGfELuzH7apeVJFMcdgv6YNgXL+Q5QgfiqedJ6xLM7i9WkACq1+JbKVBpkSItliYqYBetVKXVNsdM0gLDjYsZKWW6mul32+D7P8orellMWnbBYHcJRw32fXW0ssCFPuWx/yDRXMu48d+Wunayr4yAsLtLS36kcJi1SfkuqK36nhd4QI38TcofmlCuTYqvtEqomAokok5CLlj8pH6dCWiy3C5U3BloepVFVcUrvRthxMWOjLPtSdxQHWZVP2VTR21LKohMWu2+UWoM+Z2WBD7m0ENr3br1W3SO+fGqZP81xwLeUlo1vX122mYU8qg6ws4VOhZJtb+CoFkpZxDbD6HYphsJNiEf7SSQqTDCCug55Nas2WB59KoMs7HwBhIJZooooCxms5OtbSqO6kkNIWeSEhfpp9QmxjMvyzF5EaVLbE/c8rO4TX/odaFMT55WE1VA7OeDB/Wj1oa8Dqrvj47g56IUglLJI3vVOtEsxKlMpw+YI1qSAr4ii+qgTAFIeblZrSU06XCv3bsqOmxsfYcjJjoWyPEs8OkE4ILCDVRTTSRllkRMWcg36PzsTFlAJ3uVCG85SpCmX4MUP2dXw2aJif3tnBLhDoJNDNLd6uKDcL2mnKqC2UMoi6e1MHF3T7+xMquWh7jCl1u7q7TBqS89qN10zFFktfqhrit2+LMKQkx1KWRTxLNTcKcxlT/SRTiykLNVywkKuZRda2uBDJhIXDBe7+g/qnvGlmZnwxe/sg/n9HRUs5D6OX5DMSJFFdcabpzlYDjFKWSSFjDpAIh/cjnhwqWBFiqB0XJ1SlPpubEIOVFcG2nY2VY82t4M47rdigr9moS4hPHiMU6FmHqP7WkJZqjXpY2yFhdoMm2Vpw4YJRHmSmT5G3K3eevFl1EacGvgeqnO+wXFriTSI5CGPe4lVGNwrmlrDnOVTxUrap7yZyMGUup9IPtahg3WIwkarH6d8hi3meqpbznNYHMBbRQfpkfrW+coyjHhyRbfKmxmxDdnXAsqiERb7y72pxfDytkYsoBJTykZl9qf2PIX42ly8v7eWWVoGBrmYJsduogcsnWgntjmqvO64VeB3A7gZalpGLsB2Sz43TzZjWCE7E9VSrx6o8w3+XE+/HLXw+6QciRwXs4QlJzt8ZaHytYX4QeehoyX9lUVUWMgZy0hrK3zuoeotPGPd80VlD/li3IGWcAM2ScvwYFt+01+W3gjrQBFMV0hNvfjFzcQ7JXmAT45h1Gj4EvHc56IVKYIaeTQTBq+QFpVHeQfsLRRKpF3d+AhTTnb4ykJ4Ah+8t2PtzZxGdrW3ssgKC3XMsqG9FQueIiou7nx6AjVtE2E7fcFGYalqWNCgOSXLo38f5x4v05QkD8jcq0pAReQlqRUWF+KdcgqQUEK0gVKWr4nnAjpcU8kvX1U/7hXSosvrHltsR4gFs0QVUJZHiAdDxgGvQHW1r7IICws1VdjE3owFvyJKlH3ds8w9icz6KsCZumJNwtLhZFtneB/10kLfMOTPDO/ckxo0vqlF1Epui6VFWYgb2SaGOt9tZ1y/ZHkT1I9TYwB3aWf8WrkbWtQb4epsQZhyssNWlteJB0N5hmUhhxlPZREWFvKYJeQAE0WnEyWKbn53MHwtKnbGn/GaoEmTsHTNY3Re4zk00kL5GQnwt1Ulez+J9qS3iBoxcSHeKdkUy0R+F0q6iMdCZHzt4rdEr2qy7nqEtFCuwkUwJUoumCWqgLK8Sjz4kmvtGbRSPe2nLJrJrpOwkO97S1iIEmUSvJSy02fKzvJBvUHOFhYfadEfmboydn3RrifIUFm2VAiJC/FOyXo4MxdFROrzoDefHUR0qWZ4oKaXPAVWZlfohrfwoM7hnCcBhC0nO+z7WYgk7kHvH6LO7fyURbP2ZN9MbCy1Eoif3eZ5zHii4cJbdGFGsaiyelr1Xmnu/nFm9QOUN3jIYSUtMuKSEmV5kmjeZaL1KIHyO/6X+nH3kBbGQpS1/UhldnG5mSUPYczJDnvNQrj+hU23SjnS+SiLvLCYDuDKRbBroJ6eLV/ZDciS7ITFWVrekmpFAYczQ0A9aaR2XbQ0e8a5pERZ3iOapk63IgFR4Gaax6kVA2etQab6KoE1eadWTe5efIQxJztcZRlDPBcycoOeXnooSwBh4fw0yoH8EX4nc8+Tz9pIZlWzFBZXaaHS4/ix7mnSfa7CctWSw0tcUqIs2yefOli0GglmJUv8h+Zx15AWg8txHs6skXoV3PcxCGNOdrjKsjLxXLg0JlmoIwV3ZQkgLIwItvIgG2VQzBDxwXgrohRdaqwsxOrYKC3Eu9Vfqg2djA8WCk7gIi0+22IpURYiw/f9otVIQFw2+6LuecInnLPWIG8pLoWRS14ymCUqv7LsRzwX8gCfPsJ3VpYQwsL2BQ1NCOewbm74i2xtRyWDoEzn6sOoepmkhXgnhR3DbnklUGSkCpMA09RUuU1gU6Isf08+FXIq1c4ryRI31T1PnZeYe4o5epi/O+pX4bGNQVhzssNVFmLptuW+7tVnQN1g6aosmm9xhvt+AWs5WwaCelK0c9480epemiiA2iguQOHcbpKW5F63bDLnpgApwgwsdkzrVtviEN2QEmX5c/Kp20WrkYDKpD9O87xbSIvR5ZhriFr7eGQOJaw52eEqC5HEbwX32nN4nqiZo7Lopgcebgj8IIPAuDeBx/On3iJY2xcS9vXZS5RRUwZpSQ6DYwVbMe1Q2T7m0ejsjmifEzklykLcxRV4D/Iwovu080/CucJ42TDb/91kiErs6bOLQZhzssNVFiIQ9kaP6nM4OVmkm7LoIyWsrlMwFVoZQt9b2/4e3ClX26R3mLYjW9S10ktLYhgkL711Y/x+ot1rwQLnbNS1lsf5KVGW3ZNPBRZ1Kr/LdboPuIS0sKelpvGJMuTjLUqYc7LDVZbnko+FdTomV3lOymIKwXPOQZQaZQl2RUcBh4p5IM+26kjtVp/WhyLRK5dKtSAeHDLtqIFMg7O21FhdFJYSZSHuSP+vaDUS7Ep03ZW6D1DrD8PRe4aKWFhCfbOGvW4ymMVnqknYc7LDVRYi5cHNHtXnQGQOc1EWY5pDy/vTtYVWhnIoSzTwGKnqWnWkPoOQbtGS6JWPhOr/ZqDQVC6NHtuwFtqSEmX5JPnUY6LVSEDtw/9R+wn7kBbyaLGa/GL1M19qp9/Lw4Gw52SHqyyrJR/bxaf+DO5PFumgLIzE7LWOEp8aZQl6HXo3Mwl3TBcSOYF1HXmhtkqUa3oniWFwE5Haz6/YRlg3jZPcb2hr4f7a06Es44gmLCdajQRTiCL/qf0ENbzrd7GoY/cZ9OGLfvVDOQJ4zXwIe052uMpCXNpxkU/9GWyQLNJeWVg3fjCcximCZD9xwD2Tgy0ys/6dSs3qlEVfIcqBsJPEMHiQROVnaXJqlpHMVOuY/E5qmIlk06EsFxIt2FW0GkkmJov8vf4TtiEt1LF79nSEfBN0E0dKizyCWaLyK8sTycfChuCTAUvWysK8SsrtyIhnOzyB3fu7GCJxMVc7w0sNl2nNsr5I7ceG/t1zWeC8KdbEWuSmQ1lGEvUn0zgIQijLCfpPUF+FbuVArTSygkAqju79piIf3H2SshAGnexwleXW5GNk/JogRHoXW2VhD4VOzhRc46Ep07b/jtOF6puw7H7OotufSwyDNwnVf1rgfX42mcUuYflZOO9uOpSFesuuFq1Ggs2JIu/Qf8QypIXc9cq1nVqJ6jyYhYNZovIry5vJx1K/G2ZMAFKAyzvjvtctStCU4l1sJBaKn4xn1imLdqeSvnm0g8RXeodUC+JX9SupMtI41U1cmsynLSlRFiL44DDRaiSg7gS/wfAZKqRF/TS52sx9I2T0tXoRQinaEpc2d0NYdLLDVRYix0LaT/BthMXJQSwdJ/hl2Qsb8qVchde160jN9PpCu3gWasRw5BDNzejlJrOY9FY1YP7Bp0RZ1k4+dZRoNRJcQXSX6UI/q5AW0uU4/x6TWW7VRzbSwSxR+ZXld8nHUu51PNTugH2avYNYKpQlXKLjbjKnSOZ3OcayI5X7YXphIYbBqwRb8cSHsn3sx4LB1kuXGlMcV0qUZZ/kU0+LViPBckRvJbxOSqD2t5SLBzInSEffkssZZb8TEuXrz0MU72SHqyzPJh8LHSlJ3Ahjoyy22DuIVV5Z2iaVw+H4V8TN4B68lyjAkIBNIS0GYSG2m/8h14h21gh9kGxHo/XSxTC5TYmy/CH5VOAT3mOJvtrB9CGbkBbqcGRox7+RF02qNEo8mCUqv7JslXwsdHYX4sA4pLLYKyW1UGooH4vrynJ0f+aJAn1bQL+NE0WYciiR0mISFiJ3EpWw24c3ypzr2Eh1g9XSRS8tKVGWNZJPvSNajQTLE12V/NGWYBHSQmaO6PoubByPKTnzHRQIk052uMryzeRjKc9IaY/tBiXxvYZNaF8BdhA8YMlzOVGKKT08IS0mYSFHwWulGtFBWe9n4dG+dOHXXzsKpURZzk8+9UvRaiT4NFki464xYsGouLSY+oK697DIrTLaS4c6lPELZonKryzECdVeP/NrggHfLPoqJlUrNw0sXxxiE0fjD9IT2fw+2Y2wdvrMJMoxXmqVkBajsJDTBGJ+5En57pTkk2GLS41uMzUlyvJC8qk9RKuR4MZkicebP8UOaSFX6AXSwXc8ptwG/IJZovIry4fEc+m++UvBJE1SfUsHMeqL9W52mviCde2dHfQeqq20uAkLP3W5BVXU61JpMot5b4RiVp0jJcpCjQNhb4YifAa+b/4UdUBCLjXIBXqBxJOnjuTvmXoJvA9eCZtOdrjKcjrxXLpvK6bJnW8pT4ztHMSo/dKyJIcsD48dz+1UC/ZSHHvbSYujsJDHhd6c3DBQuOdFaGTlf9G4FqZEWTYiah30gHEgUeDLjM8xQ1roLMcFD5DTH2oKQGmZ/3Y8YdTJDldZ9iWeC5vmggjB91eWDscJZV4MKwcx6ifg6UyeHnaSvYCxkwNU5dlIi7OwRGPE7gIoZLevdFcOVo7qwWZvMfUgnRJloaKQthetRwnvEQVyspBSWxiEZ7fO5TgP1/GYWvz4jz+EUSc73yMMHU09SMQCNHu1wAS1E+OrLJ0eeephzCqgXVNCD2f4O5K3SHYzS302x5cWd2Ghhw0BTvyNaPeLkVlsWrio51IpUZZoQPKxO0XrUQJxsMPKJ8MMaaF+vMXH7qTvGDGwECOk180seYiynexw1yxUEP6mIWdqL1Hd66ks3SNORjmZsxF9YiwMfSd9WZh7+8Gs/rTnJ5pSjdJSlc+pcpqHsETRL6SaUsJr50p+A4LUGd4NpVqkRVk+SD52rWg9SiDcnOMxnA9SfhOJkZ6UjZJjd/JFSBygUNkrBSa2hFUnO2xloXaoQ/rFUE7lnspSOOKoHcQs9nDtL/zpEey3M6c3XbhUW65RWmrqFy1sNV4SY5gbEJ4/MnxpjKarEHptUS5a0qIsNxOVPkK0IkXM3StZHM8ZjdrnSvwYqa2u0pUGuWGW6BrKksAXRFh1ssNWlq+IB0PGwpIDiJeyFH/JagcxvjZQngA9/qDlMeIqHhn6/MdQtFFaOJi+gLnnCBRCcvDtm0t9CcLU6TpWNRqlRVn+TdQ54EHLb4jivuR9lBHSQh7PJ1Ya1LS31BsgSDBLVAFlOYt4MOBBywjKg8JLWUpHHPK+0Cx8BzFqZeuZabTSHP25uSddWclYesY/4tWs7CL6RTP/MonvIART1Wf5qh2UtCjLKkSd1xCtSBHUzRvM/KPUKqJknkq6pSbmshzHY/t7LHkQZp3ssJWFyjl6y/M+TdDyT6pvfZQlOeIoHcT4gkl92v8MrXKMG0Yclwox25SIPIfHFe85OEvGbT/tI9Iiil+mdTe0UfmKqKJ706Is0azkc32CjTx7U0eMzH1ORkgLNWFOegpzHI+DBLNElVCWz4gnw/kd03d2uSsLNeL4O4hRxfbg7bA/hpvNxw8M4tXBT1qYnX/DfKFWEZw917n/w6JMoaNIepwaZaGOeA8UrUkBlxGF/YX7YcIRr9ilh9yDJ/qfTKJQdAJslVzZBsKukx2+slD+yY4XyJshZw4eykKOOBmlRyZXHahVa4/dDnvEeDbuzjb8BFs+0sJW9ZGHizUtweyvnLo/PKqjRcV2WGqU5Quizox0K25QE+hXuR82hrSYXY7zmB2Pg53xEnad7LDjWcilXrBF6SKqZ92VRdHl3g5i5A+gZ26H9ZdNMV9EP6t7stylxebNemapXPtKmWC427ZSKKRF4SmfGmUZTlV6OdGqdNH/E6Is9rSIWkgU6gGZIp9sMznpLRxZqGAW10YXQZTrZIe/ZqEiluIWjyboIG4qzuKoLMoRh3IJz8F1EKOkKfxdXJmFra0LZTf07w549fIDl9jVxVVaLKdsFxMXAEnxbhqTiSk3xOi5UGqUJXqUqDMjk5cLuxBFzePvbxK7WIXJJNW3FJdicjym5rQyUdqEYSc7FspC5VMfZby3wImzFEesbsqiGXF8HcSonwqdl1SOuo4zqCblZYvW7EncDC3FretYV8dNWqz3Aqa8LNzUAgZ817rV5YA+SKMFIz3K8hFR54lvi9alg42p3N7n8z9PTVUL4rOpzqf1gAzlLlhcsjMrW0MYdrJjoSz/pfolzBk+FRyVxUlZtCOOp4MYuegJe4Zf311Qk4yGPRPw0OGQu11q5CItLr2+U8CjpXtTdZ1xB+T2rcJZNT3KMpJKNVQvWpcO9qe651sWBghB6D6MJp2JFXpALi+7f+OEj5lEMEtUEWUZQfgdx/eO8GiEimeI6yRzuCiLYcRRukPxNrUMUwt5isZCu9zMCjZT950vNRc5rmntpcVRztd5KECzO1g3bDJwJ8gXhf6pp0dZoqVEpaffI1qZPFTC0oP3tjBACULXvjWVClGVnJh0PO4SqVDBLFFFlCXagmrsIvc2KKE2O3M4KItpxPF0EDNMLcQpmfb4x6peGc7TeMutVnGulq20uHd5iEtoOnl2kHO1AkHu39PujClSlhOoWv9ctDI5dqTKsbrFnDqj72wU2ffKH67W8ThgXinCspMdG2UhPRv6yme0ePJxqqAs9spiHnGUDmKse8DIPgl30pLYzVDEIrB5XdVx/rz7oE/FrKSlzWvI239UqC6IZ6UtcJKcCtPz5hQpy8bUJkYfxVU/7gxZneqdf1rZ0GSpbSKMq/25yI32jkOZYMEsUWWUJTqRauxFzm1QQd3MksdaWThTWbWDGEcgyCVPKPewTGJ+rbsUkMEpyq72ZcPjPNtqIS1tnmeXY15Wbb96sykn/3o5oSqZemWhM1T733JVwgNUKbV2Gd0pn6D8z5PvcpxHc2sxVYjURglh2smOlbJQwS/xgP7OjaB5jColj62y8Hrby0GMvp8y0FSV2HvzGlTfV3e1H/sc5d9YtrT4Cks7Q8hBRYKTU3bYQr0p6VeWxolU39ocrTNYh/wCLX2UKP+v/EqD/D1rBgpyWMofphABlzLBLFGFlGUK5ZNntw/JQJNr11JZuDKuHMMYTaNvegmTnIDy7PE5t5uj7mkvpsvk3mBKi4CwtLNniLuZs5wsvmnjRc9Ulug5qmvH0jHdjowkD9wO2dbSDBXSkv3/yVuKdSEoasdjavUjduUgYdvJjpWyRP9H9b3lRqSJi8gy8tgpC3996OMgRi9ahBw1ikjuhfFqqEJ5kYAn7z4j1GCWtMgISztTTw7THVcNEqqgCHz/pFQpy7lk1z4lefcgeWRuv9mvCmkhlyDaDiV//tmDVcptSOotqJCyPE/cihPH489wbQXBW1R6hU6slMVi41GdWJ2RlJ3+oNg33Q0ZfGF1vXIR14UZSecfKtdihrSICUsUHa0+4PNiRbEaCkBVsAcoS/RLsmsFDzTXJwvoN9LaELHUyJ6uU5KuD0FROh6HC2aJKqUs9BmX5Kuz7RNkCR3YKIvV+Z6Pgxg9/ImEmhRBp+Zwf7de0/W0K9PPFvUVNEqLoLC0898JIfokiGe+I+RolXqv40gV4xkfK1UZ8nw9jnext0SHtLjEVJM7MbQpOYkljDvZ4WekzKHof7k8I8pQlhzBlEX1w+U4iJEvq/zxk2LvytklhLo7z5vzLVOEGTFIi6ywtHMgnWTbj3uFK+kBOcClPlIyy4Zk1w4Qure4/3javMN2DDVGTqVdjg1jC/llDeZcMOYBYdzJjuWaRXGL+C23ubUiwU2k+S7CKYv60MG8+FCMfrKuxyrpc14araHvaheGninZ4jxaaREXlii6h3Rw9cR0TXP5IBe+ac/ukuNc0j0srhXZit/7A/qLO8nFGBXSQk4/jTvZpOMxZUrQAZuw7mTHVll2pVL4tGv7W27NKOEw8hynm4DK4uEgRruHyYbiV5O3N3u4hFyt72kH1g5zL4lGWgIISztXribeNdeHqKcT5M8o7Rkp89CXAcbr2SRfUaFwOu/rZJs6q6cuZjEvNEjvIGr1IzjUENad7NgqS/QG/R3Mlkg9ejXp1VxASGVRx/Eb/bxUATFy37dKWNqcV8EPG7ralunfGCjW2mKU0hJGWNpZ9SrhzolPC1RTW+iVOf1s2pTl7Xl03/7Ovya0f2cc/97JmsKnJ4F5hOJaEgtmiSqoLCMPoRv3xCCn8gvZ6VpTDwZVFrWDmDGFiuqTUtKiEhYP5+ZNTX1tR5WUpzGBQlqCCUs7Kwl3z5xwVbWCDNkYSj+bNmWJDlB07l2+TiP1CsP3O9qj/ZcTMDIzMUO6xIJZogoqS/SVonXzn3SqQDfrqIbPboIqi4eDmPL8X+ZVVAqL+/bqbca+tuGv54q0UwX5foUUligaJBtF+oRfbRpbmprqW/29Dem5uWK7P3XKMvBjRe+u4bVcHqG8RGJNR4vKfFFFcByFFR5TpUi+CoR5JzuWvmHtjCC3DNuZ7+emsQ4jvCKssqgFotb0UivnFhKrFqWwuO+FReeZO5vNiZcKNFIL0b1hhaWdZxT7+m5M8ahJpnNOXeXpAaQYpxRz59QpS3SHqneP98mo/32VVfdQMdYFraz9BsM17HnkglmiSq5ZouVUx+wf298e2M1RnLi9wMqicRAzfFB1iC9xQZE6VN5DtmgfPxd2bg1xRU8Jicl239DC0s65ijuzXfB5NQqmclU+6xbFDEW1SZ8+ZYneUXXveOeDrCHXq2wOdXcNUNwKXdztrK+SlSdDNOEHYd/JjoOyRLerWvjJv53qkOUkxf3ExYRWFncHMeVyx28wiNSbwH67q1Jn1NM34V8S7kNd0d51W0PgG6E7eE8sctL9zSj2iappcbZj616YQmXZ9khV/z7u2MHrKI6N43h1jwUiZxOL+fYqr48qQDT/LWHfyY6LskRvKtv46b5OtdiYTDiXJLiyuDuIqdxL4rjWZ3rdqNp7bJ9T+YyuRmcJHr+9zqMOltR1UcZLT+6T6afYPUdn6Zyl1jEsuVp1w5lKLlKoLNFZ6p2NU1ymOHerv7F/uTSpE8Z1esxRQT2udCF1M0seogAnO07K8qT6+13N5Rz/XPXwWUx4ZXF3ENP8mNznmYvVXg1+Bw0KD047+q7qU4WewUu/legpj59A0tGoyWWAH6aqmfI9SaOy6HaH+v7XtgJvafJb+7lbKS/mMHd7CQzHY9krbIkCnOw4KUs0Wd3Mk4fZ5h/d/AA6+pIgvLK4O4g1ao7tmtxUIKM7RPZ7y7k9rqGfTK781FPHnffoOMa5eMqatbY0ktlMcyjHpVQqS/RtTSe/b3VV1MZztlSbGurjcsHRA7YcmFPnedU0AVGCkx03ZYnO17T0eLt4/K23MX4LXZRBWdR7pCYHMa2voctpS6vODdtzoqLcXmZzuWSG63Sz3+7evbWJa9mKAzwrbcm0qH9Jar+idCrLvo9qennAJhtzCx/XurPG0G6+N7+YQlr47lzqE9wOJINZooorS6T7frc8n++psbWV/005lMXdQUzrx1HTYqktdVQWhy58f077cLtcwWdpu+A9KHNvN2WHMPEn16LVnvDc+JZMq+qEJYt6kzedyhIN1GZDH/0V76T3w7/prExfzrNpxpAWi6SCpjMbYS9JogQnO67KMvAP2tYu5V3/fdtThl4roSzKovYZNDmI6ReuNS0Wo3G1evsii/c8RStbRs7xcaLtkTyvDKfj4ZyyVbOvUlPFSM/fWK8NQNa8JSlVluj52dqennCf8aj3jO8pElB2MPFD/8YZQloshgKD47FoMEtUeWWJht+rb/B6raaFaWb7WXoTScqjLOqlrGkLyrQnWsV8NfXrFYnUpor0byxm3yQXwbLOSjdveO+o+OBHD9/xMPZOhoHGE7753PXt09dpv37hP6zfMosrWUFrKtzroZ2y1jS36sao6mGmMyLNp9OqLNE1AwyNenPYS+pPr3Kxbr8lxzCBxulDWqxmhnqRkr69lijCyY59DH4nl5g2n9vWWlnz8YVV0w2fJ9yXyqQsagcx06tl9DasrTcuXhvrdbsXWbz8jfOcYKqompf9DjcLOH2L4r3uZoG54jMXnVhk8zU5z5kvTN+LmtHupRrdjGqrhi0kfhDVrcbfkX4kT62yRH80701OeOdDIuXL5od9c5o5cM7htq8k+pAWq47UOx5Lb0sTRTjZcV6zRNER9GU5hWy64mQqB/LM1/9nvmBpKyLGpUzKovbzMjmIqTWpm9oqzTxzYb3ZE0lAWKLhrMhUgmbNdNCO519NWj9kl+FeNo8lju12nyxU4Wjz80yzIRUe18BlOLFycU1Tc0tL68I8rS1VTeYkfLEyF2We9CpLtByrdROW7vL1DctdcU8UnfHSuVv/54DfKeMsi9hRpnW6kUDb7wkUVwvmkQ1miVKhLNGTf+F8UeNXO/XuC/Y86+iB0aC3H7z6jv1ffWos52M/jyqoLOoZh+keMI60xNmBoKpl0cKFBQqTWbiwhaEqsYywuF78NUHqirdo5HfpkJqDD3K3udPf6Vpfv1Cq1tf9z6nb4m95lMnLb+iCPsFIipUlekSVnNKbPusLtU631rRcR+s22WWDWaJ0KEu0g/VBCZuHo4oqi/rYrMn0SWbia2dkhIURy5Vk/PJuKRYI1lfvlT/ketXPR+oA3qeukKr4Y5roOiVr/8ynSEYYtht6oUizskRXzA/TJRP3k2qdxvWClzKsG43jsXAwS5QSZYkyf7b95picGlVYWdwdxAJLi5T3+nBOBtAipp8ndcQenfVXXUHXvudic+P3dTYP/pVU3aPf72Hbc/F5fiUG+kUZprupVpbobbGUbkV8Idc8dUiLdRJl9YaocDBLlBZliQata//lMZiTtV1ZZXF3EAsqLe6ZvUvZxa7gPpPE3Kx2NeanP8He6KD7DTb3cA4pKWXvX5mck0p4fBXPEjm5c60x/Y7TrSzRIKOLlz0f63yObFHvYlofuqsdj+VTfhOFONnxVBbl7dQ+DMino6qwsqhPTIzf5mLW/QwuCO6qnmE1PF5/nFS593B+MdbXxE7RRyjk2N0ryWAhz69o03fx4d4FspKp22H0Vk25skTjfDznSf4gezGqahSwP3RXXtIhHcwSpUhZov3dvkU1t+6UN1xhZVE7iBnvAYuqWf481sjedvU1v+Cau8UiWBbzsizbegqsxrK6VGzouIHlvZJnrM+9VB1U8zxD+JgXv2lXlija7xPRLrlT+EII1UrToRdVpqSDWaI0xLN08Z7l3oCBrnOMSiuL2kHM/H1mmFdhWzFD+FISbh23/IXA0JjnMeU9SyUMsJverMU0u3qL1Oix9/7shamIP11GdEesjbH4Tb+yRCsLXQaRpc9moo2LlOOHyzpD5XgcIMcSUYqTHf81SxRdIzhDX/2rLrMVVxblHkQt47Muvld6LN86M6vwcoHeKHbJ/Vnv8lv7VxvDt/HtykW33PNzXolzhMqrk1u2sBa/PUBZoh3stiU1bLO1aNty0F+Y0zqDngWKB7NEYZXFOs/nSOY7ZqapIA6v8sqiXIRyXkzh/YsQ1/O+tLa53PV+IFXaJXZHck/zLc+18taa4BNcUsQVyivUC/AIkixlqtD5HW/x2xOUJYouEJnWftKwrWjT8pCzS1uX4zy047F4MEuUrjVLO1fzwlsNzLu70GYKlEXl5mW6BSyP1ECQZXCQ63nfMgWtXut4gWGSKd+wbPF4vu3NLE0/5Xxreik/0KbMzfKuVFFZRLbE2piT5p6hLNHGb2iuWWGyxhGiDeuEDGlx9BOmBFQ+mCWSUxbquk6r+3M6ucjrq83x1Mwii58nnzhVVXooZVE4iDFfgEap05ahsq90Ny9pD6LnzRkpVdDFu1k3+iO2cVZShyK+7ZdEppt9X9ffdFMvl7wzR6O3S/sM7t58JZTFaRK+p2fow25fmctwg3r/HY9GqPWPfDBLJKcs/0ra2cvtZZi51O/73Xm7EoP1yWeUh2zEj1RmD5L29+OtWdpZILFW504yXVjlNXW533YNhk/QqI2MVPAE1/pHLn1a+mtzZoxuMSaVKqQAP23pyx+7iXdKdkeWWIA5Stdt67n3yG4rbS7aqkKIkBbXCS81EAWZbyaLcVsaXZ00NMG1Tmve6P79jl4+YY5Q6ZtURRMJMIQOvMnbiy2+0sW+2tLWEGQjrIuTFOX+7TCxIs5zazn3btKHnKyv8YhU807/taKIaQ9KFVFE42DXbVaOS1gXyYFfOHoiOe66b+9c6pJ0p51DDhRLLEGR/KKcj0aSE4oAwSwR5XbgNkcfkfTbe8W9Vus4xsXu/mPiAC3pabel8oJcYnIgNb8iHMTsXgA/bQlzwFLIg9Q59Pj9B0nZv8w1xdMLPPvPOHetWBOvpO4FG7+SlPkEmcUu7iF9F1v9lpKzZGnvxMSL4bO98yOHsWebg8RuhKBJzHjd9+iTw2GI83tqQu9YzjEJQ7v61OsG/V2IJB8odiYS1199X11u4kcqJ+jJ9ZDtC7DY9bylraEslwLP3KLEAeN/cumTjrC6jrqIc3glTHYuYKyYf0I05KJbi0z3W3qxmG2SxsGWE5YZ1nsnpWOMm1eThtJJW5vfr/3ok26NLfj4crG8EkoS6szeR09Suoa0S8XPJlFl15F0yugSQy971uyM71htep78baWjzlslj/bTOK0lFi2Ce5CJdaj9C9A41WHhYjnH9KL/019m74ma3ne95zY7SuzcPrqQOCzjw5tQPutRwp83EmtqdM1Hn25wZC67+2qb/VHOrJrqBvbKZehUl0G7+KRFNgNEjpI3y38S/pM3mA7oA86/VKD+ZkrGJZ9FWYk3UYCvI0/pUOoshj+5pcjOUwKJ0nd6+cSYx5sf6UaP9Ysf/pGuzJIfqVzmxqSDmNuBet0kq93xvoND/XLKyEqjbJqcgOcc7LjD3sHnsrmiykxmwWCjuvRd4iQrWetF0uIx3eYVILO7s+v6/zO8aLescfY640TKYlCUQ9DPmatoHAomLKWbNB5boEUatZ7QNPnoxd/Xu2NmLxQ1To6L3G4MV0IVSYuksLSvOIoWHO4/j+oG5l3qfQcHeI3LzlG+ic55IY1+6hXHxxDX2vYkMnVTJynkpW3G4MVeO0zdg0zfMI7vDW0hCthoxyWKPYKxr31z1fJ+341d77y3j2em++tg+467ULhL6SX33eFe0z+VqlyW6pPOv5f+fud98OpXrLni111R4vONW//dgYl9pcflgrmV789jQcMM/cbY0El+g0FaqE4ck1kzjFWQdzFjA/gGl53GuqkNDTO6mNTQsKBOYJbYmF9pLwm2MZuZmlXFtiXix9EjFw6rWuPPf6tde0Acn3zI/HunvXn+7f8U86O3oS63rhw6VeLryJnqOylUfFtnMZ37K5N8h6KFp9x/yPRZd359oUi9Cpn7x+Vv3vD4E68aX9OuW5vO3ubWF3/4fycsZ2FgwavTBtRcv9UdjEczU2fk3wLXymqoyx2Yts2Q+Hm0W1ucHQRKJpp9ZyxpmBr4J1M2niTiXK3ZglWU9RVmSVY4NHB3ANCzyE5UJKYmAAhyxiv+o32sSblQhEiq7aY9A3cJAAAAD7b9le/RRwc8ZTlYpKw+K/aKPUgAAOiVXLy7yFAfc5Wln1Rxb4wJ3DMAAABc2Il3uyOLMitLvPZ/AncOAAAAazY+QGyYj8t6ztLBX3cK3EEAAADs+NPHgqN8+dcsWT5V5qYDAABQdg6dJTrGV2LN0k7bSYG7CQAAAJMHmfkFLCinb1gBfU8I3FUAAAAYHO2TF1JFRdYsWV58LHB3AQAAMLD5feILhywVWrNk+fySwF0GAABAxxcSdzITVGzNkqVhbuBeAwAAoOKadcMM7RVds7TTl5dqGQAAgDCZdwIN7HGF1yzt/PX0wJ0HAAAgybBNg43rlVeWOP7p0YH7DwAAQDGtYinCSCoRKVnCvAN4VyYDAACQ4LHrQ47pcaXPWTqYvd+IwP0IAAAgT//3w47ocRp2w3Ks90jgrgQAANDOiB/XhB7QU7JmaWfLT7ElBgAAoTlzqHk89ictyhLH41uxJQYAACHZ9X9lGMzjVJzgd/HnusCdCgAAyzBv/7QsQ3mcmnOWDjY4LXDHAgDAMsre951cppE8TbthOSaeOihs3wIAwDLJt/Yp1zgep05Z4njsj/cN3L8AALCsceb95RvF47TthuWYsChwFwMAwDLF26eWcwyPucrSVt5KnX9Y4G4GAIBlhnHDyrjtlCd1u2F5jn8rcFcDAMCywaBHyz2Ap1ZZ4r32C9zZAACwLDBzQtnH73TFsxSzS+DuBgCA3s9bH1dg+E7tmqWdFccF7nEAAOjlXDK2EqN3mpUl/mngLgcAgN7NlFkVGbzT6HXczeuBOx0AAHo1X1Zm7E71miX+BB5iAADgzKqVGbrTfIKfZVbgbgcAgN7LvrUVGrrTvWaJ4+8E7ngAAOi1LF+pkTvla5Z4dOCOBwCA3sqIqyo1cqd9zRLfFLjrAQCgl/LPig3caV+zxOsF7noAAOilPFuxgTv1a5b4ycB9DwAAvZMKhYtkSfuaJf5e4L4HAIBeybmSI/G0z60eD5FF/xhJpfw8cOcDAECvZLHcODz6P9H2Vh8IEYOfGX6z1fNa7g3c+QAA0CuZIzYMvzAlCqIsdrthmSi6cg2rT+gI3PkAANAreV9oDH5zp6y171l9JsQJfib7ke02tfqMmqMD9jwAAPRW7hIZgf9yQt5aCnbDcp/pv5XVh5ScHqrbAQCgF7OhwPi7292d1lKxG5aj8QGrjylYLkSXAwBAL2c1/+H3mLld1tKyZsly3BNWHyS5Ury/AQCg9/OZ7+D7UOGOUUrOWfKM+7GdwzLB87KdDQAAywT1fkPv7BOKrKVpzdLO84dbfTaJXD8DAMCyw598Bt7Vd5xbbC1lyhJFa65r9ekS/iDUyQAAsEyxjsfA++oOpdbSc4Lfxb/7Wn2+iCqBDgYAgGUP54SPdz2YNJa6NUuWYc7RLU979i0AACybNLsNutPqKGOpVJYoc7mViW76+3QsAAAss5zgMuTO3482lk5liaKXzrcy0sHfXfsUAACWbebab4fV/GpbhbFUeR0XUe1wlI/NMAAAcKPBcrzd651VlLbSqyxRtGAfK0NxPF6lnwAAAPRsvrPVePvDIzS20qws0d4n2UVOTrXrRwAAAF0cZjHaXnWB1lRaz1k66G8TOTmL34MAAABKYMfhzzvPsEGU6jVLlo1mcQ198haz9wAAABBM4w225zeaDKUwUrKUA2t4hlZiVQ4AAADN81cxhtpfrmk21AOUJRo0Zx7DTj2rbgAAAFRcsbZppN3mMI6dlJ+zdHD050Yzz7KqBgAAQM1L92oH2scbeB64qT9n6eC/hkXaKSNYZgAAAGjIrKEZaJfOZFrpGWuWLDtO1xh5nWkEAACAlh1V4+zQ/7Jt9BxliYa8qjKxz57s9gIAANCy8nrUOHvi1xYmQiiLXXgjW1miqHHwyYSB6f831/xRAAAATLb+dek42/yhlYEetGbJMuigW0s+Pvq8C60aDAAAwMQ9wx7qOjEfe+fkkZYf72HK0s6DL7/Z9dm/HH6b5acBAACwePLYp6fu+J0FLjHoPU9Z2hlY959ht39nwcrYBQMAgBTSEyIlAQAA9CR6SjwLAACAngKUBQAAgCxQFgAAALJAWQAAAMiCE3wAAACyYM0CAABAlh4ZzwIAACDFYM0CAABAFqxZAAAAyAJlAQAAIAt2wwAAAMgCZQEAACAL4lkAAADIgjULAAAAWXCCDwAAQBYoCwAAAFmgLAAAAGTBOQsAAABZsGYBAAAgC5QFAACALK9bqUA9y+YoK5sDA7cQAABAebnYSgUOYNnc3cbkxMANBAAAUGZWtVKWYSybR9qYHBu4gQAAAMrMg1bKcgfLZrONyfsDNxAAAEC5sVKWRpbJOTYmvx24fQAAAMrNORYq8DHP5CIbZfkobPMAAACUnW9aqMD7PJNjJlrY5C2DAAAA9By2tlCBfzNtPsU3OSto4wAAAFSAEbuxVWDeXKZNi/DL24M2DgAAQCV4ga0CD3NNDp/HtnlJwJYBAACoDP2nM0VgryfZNt/hCsvh4doFAACgYhzDVIF3+CaHnMy0eV24ZgEAAKgY227DEoHRNgm+vsMTlu2DNQoAAEAlOe0Whgjs9UcrmxtwhOXvIwK1CAAAQIW5m6ECB9qZzOxsNrn7GWGaAwAAoPJ8aVSBz21NPmK8WfLkB0M0BQAAQDowJZFcam/yn6vrTR58rHwzAAAApIeLtCqwiYvJ0+/VmTxyJ+kmAAAASBeaJcbBt7mZHLOhWlh+OEW2+gAAANLH6UsVIvDuWc42T2qjTV4Ld2MAAFgmOPM1QgSWXu1j8sID+iVNjjoJCxYAAFhWeOznNcVri8t/4msyM+yDYl156E8bS1QVAABAT2HP7b+/R04BtvnH+qfJmOx/2Rbr5nJU9lvtgDsQwwIAAAAAAECP5P8B4qluc7NXWKQAAAAASUVORK5CYII=;clipPath=inset(0% 76.67% 0% 0%);" vertex="1" parent="f95klg6fwESr5AWln45m-25">
          <mxGeometry x="235.5" y="34.86999999999997" width="131" height="127.26" as="geometry" />
        </mxCell>
        <mxCell id="f95klg6fwESr5AWln45m-27" value="Database" style="swimlane;whiteSpace=wrap;html=1;rounded=1;strokeColor=default;align=center;verticalAlign=middle;fontFamily=Helvetica;fontSize=12;fontColor=default;startSize=23;fillColor=default;" vertex="1" parent="f95klg6fwESr5AWln45m-25">
          <mxGeometry x="19.5" y="197" width="563" height="303" as="geometry" />
        </mxCell>
        <mxCell id="f95klg6fwESr5AWln45m-29" value="STG Tables" style="shape=cylinder3;whiteSpace=wrap;html=1;boundedLbl=1;backgroundOutline=1;size=15;rounded=1;strokeColor=default;align=center;verticalAlign=middle;fontFamily=Helvetica;fontSize=12;fontColor=default;startSize=23;fillColor=default;" vertex="1" parent="f95klg6fwESr5AWln45m-27">
          <mxGeometry x="82" y="76" width="60" height="80" as="geometry" />
        </mxCell>
        <mxCell id="f95klg6fwESr5AWln45m-30" value="PSA Tables" style="shape=cylinder3;whiteSpace=wrap;html=1;boundedLbl=1;backgroundOutline=1;size=15;rounded=1;strokeColor=default;align=center;verticalAlign=middle;fontFamily=Helvetica;fontSize=12;fontColor=default;startSize=23;fillColor=default;" vertex="1" parent="f95klg6fwESr5AWln45m-27">
          <mxGeometry x="192" y="136" width="60" height="80" as="geometry" />
        </mxCell>
        <mxCell id="f95klg6fwESr5AWln45m-33" value="DWH Tables" style="shape=cylinder3;whiteSpace=wrap;html=1;boundedLbl=1;backgroundOutline=1;size=15;rounded=1;strokeColor=default;align=center;verticalAlign=middle;fontFamily=Helvetica;fontSize=12;fontColor=default;startSize=23;fillColor=default;" vertex="1" parent="f95klg6fwESr5AWln45m-27">
          <mxGeometry x="301" y="196" width="60" height="80" as="geometry" />
        </mxCell>
        <mxCell id="f95klg6fwESr5AWln45m-35" value="Dashboards" style="sketch=0;pointerEvents=1;shadow=0;dashed=0;html=1;strokeColor=none;labelPosition=center;verticalLabelPosition=bottom;verticalAlign=top;align=center;fillColor=#505050;shape=mxgraph.mscae.oms.dashboard;rounded=1;fontFamily=Helvetica;fontSize=12;fontColor=default;startSize=23;" vertex="1" parent="f95klg6fwESr5AWln45m-27">
          <mxGeometry x="484" y="155" width="50" height="41" as="geometry" />
        </mxCell>
        <mxCell id="f95klg6fwESr5AWln45m-36" style="edgeStyle=orthogonalEdgeStyle;shape=connector;curved=1;rounded=0;orthogonalLoop=1;jettySize=auto;html=1;entryX=0;entryY=0.5;entryDx=0;entryDy=0;entryPerimeter=0;labelBackgroundColor=default;strokeColor=default;strokeWidth=2;align=center;verticalAlign=middle;fontFamily=Helvetica;fontSize=12;fontColor=default;endArrow=classic;startSize=23;" edge="1" parent="f95klg6fwESr5AWln45m-27" source="f95klg6fwESr5AWln45m-30" target="f95klg6fwESr5AWln45m-35">
          <mxGeometry relative="1" as="geometry" />
        </mxCell>
        <mxCell id="f95klg6fwESr5AWln45m-37" style="edgeStyle=orthogonalEdgeStyle;shape=connector;curved=1;rounded=0;orthogonalLoop=1;jettySize=auto;html=1;entryX=0;entryY=0.5;entryDx=0;entryDy=0;entryPerimeter=0;labelBackgroundColor=default;strokeColor=default;strokeWidth=2;align=center;verticalAlign=middle;fontFamily=Helvetica;fontSize=12;fontColor=default;endArrow=classic;startSize=23;" edge="1" parent="f95klg6fwESr5AWln45m-27" source="f95klg6fwESr5AWln45m-33" target="f95klg6fwESr5AWln45m-35">
          <mxGeometry relative="1" as="geometry" />
        </mxCell>
        <mxCell id="f95klg6fwESr5AWln45m-26" style="edgeStyle=orthogonalEdgeStyle;shape=connector;curved=1;rounded=0;orthogonalLoop=1;jettySize=auto;html=1;labelBackgroundColor=default;strokeColor=default;strokeWidth=2;align=center;verticalAlign=middle;fontFamily=Helvetica;fontSize=12;fontColor=default;endArrow=classic;startSize=23;" edge="1" parent="1" source="f95klg6fwESr5AWln45m-8" target="f95klg6fwESr5AWln45m-9">
          <mxGeometry relative="1" as="geometry" />
        </mxCell>
        <mxCell id="f95klg6fwESr5AWln45m-31" style="edgeStyle=orthogonalEdgeStyle;shape=connector;curved=1;rounded=0;orthogonalLoop=1;jettySize=auto;html=1;entryX=0;entryY=0.5;entryDx=0;entryDy=0;entryPerimeter=0;labelBackgroundColor=default;strokeColor=default;strokeWidth=2;align=center;verticalAlign=middle;fontFamily=Helvetica;fontSize=12;fontColor=default;endArrow=classic;startSize=23;" edge="1" parent="1" source="f95klg6fwESr5AWln45m-16" target="f95klg6fwESr5AWln45m-29">
          <mxGeometry relative="1" as="geometry" />
        </mxCell>
        <mxCell id="f95klg6fwESr5AWln45m-32" style="edgeStyle=orthogonalEdgeStyle;shape=connector;curved=1;rounded=0;orthogonalLoop=1;jettySize=auto;html=1;entryX=0;entryY=0.5;entryDx=0;entryDy=0;entryPerimeter=0;labelBackgroundColor=default;strokeColor=default;strokeWidth=2;align=center;verticalAlign=middle;fontFamily=Helvetica;fontSize=12;fontColor=default;endArrow=classic;startSize=23;" edge="1" parent="1" source="f95klg6fwESr5AWln45m-21" target="f95klg6fwESr5AWln45m-30">
          <mxGeometry relative="1" as="geometry" />
        </mxCell>
        <mxCell id="f95klg6fwESr5AWln45m-34" style="edgeStyle=orthogonalEdgeStyle;shape=connector;curved=1;rounded=0;orthogonalLoop=1;jettySize=auto;html=1;entryX=0;entryY=0.5;entryDx=0;entryDy=0;entryPerimeter=0;labelBackgroundColor=default;strokeColor=default;strokeWidth=2;align=center;verticalAlign=middle;fontFamily=Helvetica;fontSize=12;fontColor=default;endArrow=classic;startSize=23;" edge="1" parent="1" source="f95klg6fwESr5AWln45m-23" target="f95klg6fwESr5AWln45m-33">
          <mxGeometry relative="1" as="geometry" />
        </mxCell>
        <mxCell id="f95klg6fwESr5AWln45m-40" style="edgeStyle=orthogonalEdgeStyle;shape=connector;curved=1;rounded=0;orthogonalLoop=1;jettySize=auto;html=1;entryX=0;entryY=0.5;entryDx=0;entryDy=0;entryPerimeter=0;labelBackgroundColor=default;strokeColor=default;strokeWidth=2;align=center;verticalAlign=middle;fontFamily=Helvetica;fontSize=12;fontColor=default;endArrow=classic;startSize=23;" edge="1" parent="1" source="f95klg6fwESr5AWln45m-12" target="f95klg6fwESr5AWln45m-10">
          <mxGeometry relative="1" as="geometry" />
        </mxCell>
        <mxCell id="f95klg6fwESr5AWln45m-41" style="edgeStyle=orthogonalEdgeStyle;shape=connector;curved=1;rounded=0;orthogonalLoop=1;jettySize=auto;html=1;entryX=1;entryY=0.5;entryDx=0;entryDy=0;entryPerimeter=0;labelBackgroundColor=default;strokeColor=default;strokeWidth=2;align=center;verticalAlign=middle;fontFamily=Helvetica;fontSize=12;fontColor=default;endArrow=classic;startSize=23;exitX=0.5;exitY=0;exitDx=0;exitDy=0;" edge="1" parent="1" source="f95klg6fwESr5AWln45m-25" target="f95klg6fwESr5AWln45m-10">
          <mxGeometry relative="1" as="geometry" />
        </mxCell>
      </root>
    </mxGraphModel>
  </diagram>
</mxfile>
